<?xml version="1.0" standalone="no"?>
<!DOCTYPE svg PUBLIC "-//W3C//DTD SVG 1.1//EN" "http://www.w3.org/Graphics/SVG/1.1/DTD/svg11.dtd" >
<svg xmlns="http://www.w3.org/2000/svg">
<metadata></metadata>
<defs>
<font id="robotobold_condensed_italic" horiz-adv-x="1008" >
<font-face units-per-em="2048" ascent="1536" descent="-512" />
<missing-glyph horiz-adv-x="453" />
<glyph unicode="fi" horiz-adv-x="1115" d="M71 881l30 201h135l11 74q32 212 159 318.5t335 106.5q68 0 137.5 -15.5t147.5 -43.5l-73 -226q-58 22 -109.5 34.5t-120.5 12.5q-79 0 -129.5 -48.5t-64.5 -138.5l-11 -74h177l-30 -201h-177l-132 -881h-282l132 881h-135zM645 0l162 1082h283l-162 -1082h-283z" />
<glyph horiz-adv-x="453" />
<glyph horiz-adv-x="453" />
<glyph horiz-adv-x="13" />
<glyph unicode="&#x9;" horiz-adv-x="13" />
<glyph unicode=" "  horiz-adv-x="453" />
<glyph unicode="&#x09;" horiz-adv-x="453" />
<glyph unicode="&#xa0;" horiz-adv-x="453" />
<glyph unicode="!" horiz-adv-x="508" d="M36 0l38 253h279l-38 -253h-279zM110 504l142 952h283l-142 -952h-283z" />
<glyph unicode="&#x22;" horiz-adv-x="783" d="M191 939l32 239l39 278h219l-37 -266l-130 -251h-123zM508 939l34 247l38 270h217l-37 -266l-130 -251h-122z" />
<glyph unicode="#" horiz-adv-x="1050" d="M25 410l24 163h215l90 303h-195l25 164h218l124 416h172l-124 -416h144l124 416h171l-124 -416h190l-25 -164h-213l-90 -303h193l-24 -163h-218l-121 -410h-172l122 410h-144l-121 -410h-172l121 410h-190zM436 573h143l90 303h-143z" />
<glyph unicode="$" horiz-adv-x="1069" d="M78 440h281q-20 -136 19.5 -189.5t121.5 -53.5q71 0 114 50.5t55 132.5q12 89 -15.5 136t-114.5 97q-189 78 -270.5 177t-55.5 283q24 174 134 279t278 122l30 211h145l-31 -215q149 -27 224.5 -143t50.5 -300h-281q16 116 -13.5 173t-97.5 57q-67 0 -106 -51t-51 -134 q-12 -81 15.5 -126t117.5 -101q185 -72 267 -176t56 -287q-25 -179 -132.5 -280.5t-276.5 -118.5l-27 -197h-146l27 198q-161 20 -255 131t-63 325z" />
<glyph unicode="%" horiz-adv-x="1376" d="M176 1099l11 77q20 134 107.5 217.5t225.5 83.5q132 0 197 -86.5t46 -214.5l-11 -77q-21 -134 -107.5 -216.5t-224.5 -82.5q-132 0 -198 86t-46 213zM262 183l783 1138l123 -73l-782 -1138zM361 1099q-10 -61 11 -100.5t72 -39.5q47 0 80 40.5t42 99.5l11 77 q9 62 -11 102t-70 40q-47 0 -81 -42t-43 -100zM675 280l12 77q19 133 107.5 216.5t226.5 83.5q132 0 196.5 -86.5t46.5 -213.5l-12 -77q-21 -135 -107.5 -217.5t-224.5 -82.5q-132 0 -198.5 86.5t-46.5 213.5zM860 280q-10 -60 14 -100.5t70 -40.5q54 0 83 39t39 102l12 77 q8 62 -12 101.5t-69 39.5q-48 0 -82.5 -41.5t-42.5 -99.5z" />
<glyph unicode="&#x26;" horiz-adv-x="1236" d="M37 388q18 124 84.5 206t198.5 180l9 6q-46 90 -64.5 165.5t-6.5 153.5q28 188 138.5 283t282.5 95q139 0 217.5 -98.5t57.5 -236.5q-16 -108 -63 -180.5t-130 -134.5l-106 -74l191 -308q37 57 63.5 123.5t37.5 139.5h224q-22 -146 -70.5 -261t-130.5 -203l151 -244h-320 l-53 86q-85 -54 -168 -80.5t-175 -26.5q-189 0 -292 114.5t-76 294.5zM325 404q-15 -92 21.5 -148.5t108.5 -56.5q45 0 93 13.5t96 41.5l-211 342q-53 -51 -77.5 -98t-30.5 -94zM508 1103q-7 -42 4 -84.5t38 -91.5l61 40q55 37 77.5 75t30.5 84q8 54 -12.5 92t-69.5 38 q-47 0 -83.5 -45t-45.5 -108z" />
<glyph unicode="'" horiz-adv-x="411" d="M133 907l36 268l39 281h251l-38 -268l-133 -281h-155z" />
<glyph unicode="(" horiz-adv-x="637" d="M114 567l4 24q55 400 224 666t351 351l6 -1l31 -139q-121 -98 -226.5 -320t-152.5 -555l-4 -28q-49 -347 -6 -560t139 -316l-69 -138l-6 1q-156 83 -250.5 356t-40.5 659z" />
<glyph unicode=")" horiz-adv-x="637" d="M-83 -311q121 98 227 320.5t153 555.5l4 28q48 346 4 561t-138 316l71 138l6 -1q160 -81 259 -362t47 -654l-4 -24q-55 -391 -229.5 -661.5t-360.5 -354.5l-6 1z" />
<glyph unicode="*" horiz-adv-x="780" d="M75 743l75 161l202 -78l42 255h165l-31 -264l217 80l25 -163l-219 -82l89 -208l-149 -100l-103 211l-161 -204l-121 97l160 216z" />
<glyph unicode="+" horiz-adv-x="1010" d="M57 560l37 246h317l60 400h267l-60 -400h314l-37 -246h-314l-62 -414h-267l62 414h-317z" />
<glyph unicode="," horiz-adv-x="495" d="M-68 -305l109 317l35 234h274l-36 -242l-193 -309h-189z" />
<glyph unicode="-" horiz-adv-x="782" d="M130 514l33 221h506l-33 -221h-506z" />
<glyph unicode="." horiz-adv-x="545" d="M46 0l38 253h278l-38 -253h-278z" />
<glyph unicode="/" horiz-adv-x="722" d="M-111 -125l679 1581h277l-681 -1581h-275z" />
<glyph unicode="0" horiz-adv-x="1075" d="M87 528l60 399q40 265 183 407.5t349 142.5q195 0 299.5 -148.5t66.5 -401.5l-60 -399q-40 -267 -182.5 -408t-346.5 -141q-197 0 -302.5 147.5t-66.5 401.5zM367 505q-23 -153 9 -229.5t113 -76.5q74 0 130.5 80t79.5 226l67 447q22 150 -10.5 227t-110.5 77 q-76 0 -133 -80.5t-78 -223.5z" />
<glyph unicode="1" horiz-adv-x="1075" d="M292 1204l32 217l558 56l-222 -1477h-283l182 1211z" />
<glyph unicode="2" horiz-adv-x="1075" d="M31 0l26 188l475 509q103 116 151.5 200t58.5 153q14 98 -14.5 152t-105.5 54q-76 0 -130.5 -71.5t-68.5 -179.5h-277l-2 6q24 202 163.5 334t345.5 132q199 0 300 -115.5t74 -310.5q-19 -138 -96.5 -244t-264.5 -300l-233 -282l2 -5h519l-31 -220h-892z" />
<glyph unicode="3" horiz-adv-x="1075" d="M63 394l2 5h276q-14 -89 25.5 -144.5t113.5 -55.5q82 0 145.5 59.5t77.5 150.5q18 123 -22 176t-136 53h-147l9 62l13 86l10 66h147q83 0 135.5 56t67.5 153q13 86 -23.5 140.5t-116.5 54.5q-63 0 -115.5 -49.5t-63.5 -127.5h-275l-2 6q22 179 162.5 285.5t327.5 106.5 q200 0 310.5 -108t81.5 -304q-17 -106 -82.5 -189.5t-165.5 -129.5q97 -44 141 -131t27 -210q-32 -207 -179.5 -316.5t-359.5 -109.5q-175 0 -296.5 108.5t-87.5 306.5z" />
<glyph unicode="4" horiz-adv-x="1075" d="M37 320l12 173l682 963h285l-137 -914h139l-33 -222h-139l-48 -320h-284l48 320h-525zM307 542h288l79 524l-6 2l-34 -57z" />
<glyph unicode="5" horiz-adv-x="1075" d="M76 378l2 5l278 14q-15 -97 23 -147.5t114 -50.5q84 0 134 69t70 197q20 134 -11.5 207.5t-119.5 73.5q-66 0 -109.5 -33t-65.5 -87l-251 17l198 813h746l-34 -227h-514l-88 -353q42 31 100.5 52t122.5 23q184 3 264 -125t46 -359q-34 -221 -162 -354.5t-359 -133.5 q-178 0 -297 107.5t-87 291.5z" />
<glyph unicode="6" horiz-adv-x="1075" d="M88 558l47 315q42 287 214 445.5t407 158.5q74 0 137 -15.5t123 -46.5l-80 -209q-55 23 -101.5 34.5t-110.5 11.5q-108 0 -194 -98.5t-112 -274.5l-6 -39q59 53 135 81.5t165 28.5q161 0 236.5 -134t44.5 -348q-34 -224 -177 -356.5t-344 -132.5t-313 156.5t-71 422.5z M369 554q-27 -175 10.5 -265t125.5 -90q72 0 130 77.5t75 191.5q19 128 -15.5 196.5t-111.5 68.5q-64 0 -115.5 -25t-85.5 -68z" />
<glyph unicode="7" horiz-adv-x="1075" d="M171 1235l33 221h932l-33 -221q-259 -269 -371.5 -504t-159.5 -553l-27 -178h-284l27 178q48 319 181.5 565.5t361.5 491.5h-660z" />
<glyph unicode="8" horiz-adv-x="1075" d="M58 406q18 124 97.5 215t201.5 138q-86 48 -128 130.5t-25 188.5q30 200 163 299.5t327 99.5q178 0 279.5 -104t73.5 -295q-18 -113 -81 -196t-159 -129q99 -50 149.5 -140.5t34.5 -206.5q-32 -211 -175 -319t-346 -108q-201 0 -322 113.5t-90 313.5zM344 419 q-16 -104 29 -162t130 -58q72 0 131.5 60t75.5 160q15 103 -25.5 164t-115.5 61q-80 0 -145.5 -63.5t-79.5 -161.5zM486 1065q-15 -94 17.5 -147t99.5 -53q57 0 101 54.5t58 145.5q13 91 -14.5 141t-87.5 50q-66 0 -113.5 -50.5t-60.5 -140.5z" />
<glyph unicode="9" horiz-adv-x="1075" d="M138 42l78 205q52 -25 104 -36.5t119 -11.5q87 0 158.5 82t93.5 225l14 93q-51 -58 -114 -87.5t-130 -29.5q-174 0 -261 134t-53 355q33 224 178.5 365t342.5 141q191 0 299 -150t70 -410l-60 -394q-39 -259 -197.5 -401.5t-373.5 -142.5q-65 0 -137.5 16.5t-130.5 46.5z M429 971q-21 -130 8.5 -205.5t107.5 -75.5q55 0 104 29t85 77l26 171q22 146 -13 217.5t-112 71.5q-71 0 -130.5 -84.5t-75.5 -200.5z" />
<glyph unicode=":" horiz-adv-x="540" d="M46 0l38 253h278l-38 -253h-278zM177 876l38 253h278l-38 -253h-278z" />
<glyph unicode=";" horiz-adv-x="517" d="M-17 -305l109 317l35 234h274l-36 -242l-193 -309h-189zM178 876l38 253h278l-38 -253h-278z" />
<glyph unicode="&#x3c;" horiz-adv-x="910" d="M34 435l22 144l12 78l803 366l-39 -263l-529 -213v-6l465 -208l-40 -264z" />
<glyph unicode="=" horiz-adv-x="1036" d="M89 329l34 223h783l-34 -223h-783zM154 760l33 223h783l-33 -223h-783z" />
<glyph unicode="&#x3e;" horiz-adv-x="921" d="M36 63l40 262l534 214v6l-470 210l40 262l700 -365l-22 -146h-1l-11 -77z" />
<glyph unicode="?" horiz-adv-x="907" d="M107 1078q27 195 158 297t317 102q194 0 295 -115.5t72 -308.5q-20 -131 -99 -234.5t-190 -179.5q-60 -46 -84.5 -94t-36.5 -132h-282q21 136 69 200.5t173 158.5q66 57 109.5 124.5t57.5 154.5q14 98 -16 150.5t-102 52.5q-54 0 -102.5 -47.5t-63.5 -134.5h-273zM195 0 l36 243h280l-36 -243h-280z" />
<glyph unicode="@" horiz-adv-x="1642" d="M49 478q80 428 332 682t605 254q335 0 491.5 -243.5t80.5 -654.5q-42 -220 -174 -378.5t-348 -158.5q-69 0 -115 45t-56 127q-52 -85 -116.5 -127t-140.5 -42q-124 0 -177.5 120t-7.5 314q61 252 191.5 404.5t282.5 152.5q102 0 166.5 -27t132.5 -80l-3 -3h4l-131 -570 q-21 -99 -10 -134.5t39 -28.5l6 -1q94 -5 173.5 107t111.5 280q67 353 -38.5 550t-388.5 197q-261 0 -458 -214.5t-263 -570.5q-69 -353 45.5 -560t386.5 -207q73 0 159 19.5t148 49.5l13 -144q-66 -42 -163 -65.5t-185 -23.5q-345 0 -508 251.5t-85 679.5zM626.5 219.5 q14.5 -68.5 68.5 -68.5q47 0 90.5 29t85.5 106v3.5t1 3.5l115 500q-18 6 -37.5 9.5t-40.5 3.5q-93 0 -158.5 -98t-110.5 -292q-28 -128 -13.5 -196.5z" />
<glyph unicode="A" horiz-adv-x="1141" d="M-62 0l631 1456h292l195 -1456h-295l-35 315h-364l-130 -315h-294zM453 537h248l-52 460l-6 1z" />
<glyph unicode="B" horiz-adv-x="1142" d="M32 0l218 1456h417q220 0 336 -100q93 -80 92 -222q0 -35 -5 -75q-17 -107 -74.5 -186.5t-154.5 -117.5q114 -27 161 -119q35 -68 35 -150q0 -30 -5 -62q-34 -217 -169 -320.5t-363 -103.5h-488zM347 220h206q89 0 145.5 52t71.5 152q5 34 5 62q1 65 -25 104 q-36 55 -134 55h-206zM439 840h140q92 0 151 49.5t74 143.5q4 30 4 55q0 66 -30 100q-42 47 -144 47h-135z" />
<glyph unicode="C" horiz-adv-x="1133" d="M82 511l64 432q40 264 192.5 399t382.5 135q230 1 345 -117q86 -88 86 -240q0 -52 -10 -111l-2 -5h-275q7 50 7 89q0 75 -26 110q-40 53 -159 53q-102 0 -168.5 -77.5t-89.5 -233.5l-65 -434q-9 -59 -9 -106q-1 -87 29 -133q46 -74 162 -73q102 0 157.5 56t77.5 197h272 l2 -6q-32 -243 -171 -355t-371 -112q-227 -1 -348 139q-92 106 -92 279q0 54 9 114z" />
<glyph unicode="D" horiz-adv-x="1173" d="M32 0l218 1456h449q220 0 347 -172q97 -132 97 -317q0 -57 -9 -119l-36 -241q-42 -278 -214 -442.5t-403 -164.5h-449zM347 220h167q105 0 190 109t111 278l37 243q9 60 9 111q1 99 -33 169q-50 104 -162 105h-167z" />
<glyph unicode="E" horiz-adv-x="994" d="M32 0l218 1456h813l-33 -221h-531l-56 -372h445l-33 -220h-445l-63 -423h533l-33 -220h-815z" />
<glyph unicode="F" horiz-adv-x="994" d="M32 0l218 1456h832l-33 -221h-550l-61 -406h462l-33 -220h-462l-91 -609h-282z" />
<glyph unicode="G" horiz-adv-x="1178" d="M79 507l66 442q39 262 196.5 395t388.5 133q229 0 338 -114q82 -86 82 -224q0 -45 -9 -95l-3 -6h-265q5 35 5 63q0 70 -30 105q-41 50 -144 50q-105 0 -179.5 -77t-96.5 -228l-67 -444q-8 -54 -8 -98q0 -89 33 -137q51 -73 168 -73q79 0 130.5 19.5t81.5 51.5l44 294 h-222l29 195h504l-85 -567q-75 -87 -202 -150t-313 -63q-228 0 -354 139q-97 106 -97 279q0 52 9 110z" />
<glyph unicode="H" horiz-adv-x="1257" d="M32 0l218 1456h282l-94 -629h469l94 629h281l-218 -1456h-281l91 607h-469l-91 -607h-282z" />
<glyph unicode="I" horiz-adv-x="538" d="M48 0l218 1456h281l-218 -1456h-281z" />
<glyph unicode="J" horiz-adv-x="994" d="M13 427l2 5h274q-7 -42 -7 -77q0 -66 24 -101q37 -55 112 -55q56 0 105 68.5t67 185.5l150 1003h282l-150 -1003q-34 -225 -168 -349.5t-319 -124.5q-199 0 -303 115q-78 86 -78 228q0 49 9 105z" />
<glyph unicode="K" horiz-adv-x="1103" d="M30 0l218 1456h283l-90 -598h77l330 598h368l-491 -722l288 -734h-324l-211 606h-75l-90 -606h-283z" />
<glyph unicode="L" horiz-adv-x="994" d="M32 0l218 1456h282l-185 -1236h543l-33 -220h-825z" />
<glyph unicode="M" horiz-adv-x="1499" d="M26 0l218 1456h367l110 -1080h6l434 1080h369l-218 -1456h-280l137 916l-6 2l-400 -918h-189l-125 911h-6l-136 -911h-281z" />
<glyph unicode="N" horiz-adv-x="1256" d="M32 0l218 1456h282l323 -930h6l139 930h282l-218 -1456h-282l-323 929h-6l-139 -929h-282z" />
<glyph unicode="O" horiz-adv-x="1230" d="M84 524l61 406q39 266 202.5 406.5t407.5 140.5q232 0 360 -147q99 -113 99 -290q0 -52 -9 -110l-61 -406q-41 -267 -205 -406t-408 -139q-232 -1 -359 145q-97 111 -97 287q0 53 9 113zM365 524q-9 -57 -9 -104q0 -90 33 -142q50 -78 175 -78q118 0 196 82t103 242 l61 409q8 52 8 96q0 94 -36 147q-52 78 -175 78q-118 0 -195 -81.5t-100 -239.5z" />
<glyph unicode="P" horiz-adv-x="1142" d="M32 0l218 1456h487q211 0 323 -130q89 -103 89 -252q0 -40 -6 -83q-34 -217 -178.5 -340.5t-366.5 -123.5h-205l-79 -527h-282zM426 748h205q91 0 153 69t77 172q5 34 5 63q0 68 -27 116q-39 68 -135 67h-205z" />
<glyph unicode="Q" horiz-adv-x="1261" d="M84 524l61 406q39 266 202.5 406.5t407.5 140.5q232 0 360 -147q99 -113 99 -290q0 -52 -9 -110l-61 -406q-16 -102 -51 -186.5t-86 -148.5l145 -199l-205 -148l-142 191q-61 -27 -130 -40.5t-144 -13.5q-232 0 -359 145q-97 112 -97 287q0 53 9 113zM365 524 q-9 -57 -9 -104q0 -91 33 -142q50 -78 175 -78q118 0 196 82t103 242l61 409q8 52 8 96q0 94 -36 147q-51 78 -175 78q-118 0 -195 -81.5t-100 -239.5z" />
<glyph unicode="R" horiz-adv-x="1130" d="M32 0l218 1455h436q208 -1 320 -115q88 -90 89 -232q0 -38 -7 -81q-18 -119 -82 -200t-173 -129q105 -39 143 -128q26 -61 26 -139q0 -37 -5 -78l-16 -106q-7 -43 -7 -88q0 -20 2 -41q4 -66 35 -97l-3 -21h-292q-29 31 -29 102q0 72 12 147l16 102q5 37 5 67 q0 66 -24 107q-36 59 -124 59h-171l-87 -584h-282zM434 804h153q88 0 144.5 55t72.5 154q5 31 5 59q0 65 -27 105q-38 58 -129 58h-154z" />
<glyph unicode="S" horiz-adv-x="1101" d="M80 422l2 6h273q-4 -28 -4 -53q0 -85 51 -125q66 -52 164 -51q65 0 119 43.5t65 108.5q3 24 3 45q0 66 -33 106q-44 52 -169 112q-219 82 -323 194q-82 89 -82 220q0 35 6 74q26 174 164 274.5t332 100.5q214 0 332 -119q91 -92 92 -236q0 -43 -8 -90l-3 -6h-273 q4 24 4 46q0 72 -38 120q-48 64 -140 64q-65 0 -118 -44.5t-61 -107.5q-4 -22 -4 -42q-1 -64 37 -102q48 -50 201 -115q202 -79 296 -191q72 -87 72 -218q0 -39 -6 -83q-28 -182 -163.5 -278t-334.5 -96q-209 0 -351 108q-111 85 -110 242q0 44 8 93z" />
<glyph unicode="T" horiz-adv-x="1014" d="M135 1235l33 221h958l-33 -221h-342l-185 -1235h-283l185 1235h-333z" />
<glyph unicode="U" horiz-adv-x="1229" d="M98 505l142 951h281l-142 -951q-8 -50 -7 -92q0 -87 33 -138q50 -76 159 -76q105 0 180 79t98 227l142 951h282l-142 -951q-39 -257 -200 -391.5t-393 -134.5q-220 1 -345 141q-96 108 -96 279q0 50 8 106z" />
<glyph unicode="V" horiz-adv-x="1141" d="M146 1456h297l87 -1084l3 -59l6 -1l20 57l415 1087h297l-635 -1456h-293z" />
<glyph unicode="W" horiz-adv-x="1566" d="M156 1456h289l11 -925l6 -1l347 926h222l72 -922l6 -1l287 923h287l-503 -1456h-262l-78 901l-6 1l-347 -902h-262z" />
<glyph unicode="X" horiz-adv-x="1141" d="M-53 0l481 734l-255 722h326l127 -515l6 -1l284 516h327l-470 -722l276 -734h-341l-135 525l-6 1l-292 -526h-328z" />
<glyph unicode="Y" horiz-adv-x="1141" d="M147 1456h308l155 -633l6 -1l346 634h308l-565 -937l-78 -519h-281l81 537z" />
<glyph unicode="Z" horiz-adv-x="1012" d="M0 142l659 1093h-482l33 221h824l-20 -137l-662 -1099h562l-33 -220h-866z" />
<glyph unicode="[" horiz-adv-x="533" d="M-14 -337l284 2030h402l-30 -211h-117l-225 -1609h117l-29 -210h-402z" />
<glyph unicode="\" horiz-adv-x="765" d="M138 1456h278l286 -1581h-280z" />
<glyph unicode="]" horiz-adv-x="533" d="M-103 -337l29 210h118l225 1609h-118l30 211h402l-284 -2030h-402z" />
<glyph unicode="^" horiz-adv-x="793" d="M68 729l366 727h205l147 -727h-218l-73 424l-1 12l-6 1l-4 -13l-198 -424h-218z" />
<glyph unicode="_" horiz-adv-x="802" d="M-106 -214l32 214h787l-32 -214h-787z" />
<glyph unicode="`" horiz-adv-x="633" d="M186 1513l3 5h313l141 -266h-246z" />
<glyph unicode="a" horiz-adv-x="957" d="M12 303q24 164 140.5 248.5t326.5 84.5h123l14 90q4 28 4 52q0 46 -15 74q-23 42 -83 42q-50 0 -83.5 -35.5t-42.5 -99.5l-272 1l-1 6q16 145 140.5 240.5t307.5 95.5q165 0 259 -98q74 -77 73 -206q0 -35 -5 -74l-67 -444q-11 -74 -11 -136v-10q1 -66 14 -134h-280 q-10 37 -14 79q-3 29 -4 59q0 13 1 26q-48 -81 -114.5 -133t-151.5 -52q-142 -1 -211 87q-53 67 -53 171q0 31 5 66zM295 314q-3 -17 -3 -33q0 -35 16 -59q22 -34 67 -34q54 0 104.5 35.5t73.5 84.5l25 168h-123q-68 0 -109 -46.5t-51 -115.5z" />
<glyph unicode="b" d="M14 0l234 1560h281l-86 -574q47 56 104.5 86t125.5 30q173 0 245 -156q48 -102 47 -247q0 -76 -13 -164l-3 -21q-38 -254 -150.5 -394.5t-292.5 -140.5q-76 0 -128.5 37.5t-83.5 109.5l-39 -126h-241zM337 282q15 -41 47 -61.5t83 -20.5q86 0 131.5 81.5t68.5 232.5l3 21 q14 94 14 164q0 55 -8 93q-20 88 -108 88q-48 0 -87.5 -26.5t-68.5 -73.5z" />
<glyph unicode="c" horiz-adv-x="921" d="M52 526l4 29q37 249 172 398t348 149q169 0 260 -114q70 -88 69 -221q0 -41 -6 -86h-263q5 35 5 65q0 50 -14 82q-23 54 -84 53q-84 0 -134 -91t-71 -235l-4 -29q-13 -83 -13 -146q0 -56 10 -96q21 -86 111 -85q58 0 96.5 45t51.5 127h255l2 -6q-23 -176 -146 -281 t-292 -105q-203 1 -298 155q-69 112 -69 267q0 60 10 125z" />
<glyph unicode="d" d="M53 514l3 21q40 265 156.5 416t292.5 151q63 0 111 -32.5t81 -92.5l88 583h282l-234 -1560h-241l-3 122q-53 -70 -116.5 -106.5t-137.5 -36.5q-165 0 -241 148q-52 101 -53 243q0 68 12 144zM333 514q-11 -76 -12 -134q1 -60 13 -100q24 -80 107 -80q45 0 84 23t69 66 l74 493q-17 46 -48.5 72t-75.5 26q-78 0 -131.5 -96.5t-76.5 -248.5z" />
<glyph unicode="e" horiz-adv-x="937" d="M54 508l6 41q38 254 173 403.5t343 149.5q183 0 269 -132q62 -96 63 -239q0 -55 -10 -116l-23 -154h-546q-3 -30 -3 -57q0 -84 28 -136q37 -70 137 -69q81 0 143 20t131 61l47 -176q-66 -53 -170.5 -89t-216.5 -36q-205 -1 -305 149q-75 111 -75 267q0 54 9 113zM359 647 h268l4 25q7 45 7 81q0 45 -11 75q-19 53 -84 53q-68 0 -113.5 -63t-70.5 -171z" />
<glyph unicode="f" horiz-adv-x="638" d="M75 881l30 201h135l19 122q27 188 135 282.5t282 94.5q32 0 65.5 -5.5t73.5 -15.5l-54 -212q-20 5 -38.5 8t-44.5 3q-54 0 -90.5 -41t-46.5 -114l-19 -122h174l-30 -201h-174l-132 -881h-282l132 881h-135z" />
<glyph unicode="g" d="M15 -355l79 214q55 -32 112.5 -48t129.5 -16q91 0 145.5 52.5t71.5 159.5l12 80q-49 -53 -105.5 -80.5t-123.5 -27.5q-165 0 -242 148q-52 101 -52 243q0 68 12 144l3 21q40 265 156.5 416t292.5 151q73 0 124.5 -39t82.5 -111l39 130h245l-161 -1076q-34 -219 -173 -331 t-360 -112q-69 0 -147 22.5t-141 59.5zM336 280q23 -80 107 -80q47 0 85 21t66 62l77 506q-16 43 -47.5 67t-77.5 24q-78 0 -131 -96t-76 -249l-3 -21q-12 -77 -12 -135.5t12 -98.5z" />
<glyph unicode="h" d="M7 0l234 1560h281l-91 -603q53 70 119.5 107.5t139.5 37.5q140 0 209 -115q46 -77 46 -208q0 -64 -11 -142l-96 -637h-282l96 639q10 68 10 115q0 49 -11 75q-21 51 -84 51q-48 0 -88 -21t-71 -58l-120 -801h-281z" />
<glyph unicode="i" horiz-adv-x="497" d="M27 0l162 1082h282l-162 -1082h-282zM229 1345l32 215h282l-32 -215h-282z" />
<glyph unicode="j" horiz-adv-x="489" d="M-220 -419l46 217q21 -6 39 -9.5t40 -3.5q45 0 76.5 45t45.5 133l168 1119h282l-168 -1119q-30 -199 -134.5 -299.5t-268.5 -100.5q-33 0 -62.5 4.5t-63.5 13.5zM229 1347l32 213h283l-32 -213h-283z" />
<glyph unicode="k" horiz-adv-x="973" d="M14 0l234 1560h282l-134 -888h47l257 410h325l-367 -488l249 -594h-323l-169 454h-51l-68 -454h-282z" />
<glyph unicode="l" horiz-adv-x="497" d="M27 0l234 1560h282l-234 -1560h-282z" />
<glyph unicode="m" horiz-adv-x="1530" d="M14 0l162 1082h263l-9 -134q55 74 127 114t159 40q80 0 136 -44.5t77 -133.5q55 85 130 131.5t167 46.5q131 0 195 -116q42 -75 42 -200q0 -66 -12 -147l-96 -639h-282l96 639q10 71 10.5 119t-10.5 72q-21 50 -82 50q-43 0 -80.5 -26.5t-67.5 -72.5q-1 -17 -3 -35.5 t-5 -40.5l-106 -705h-281l96 639q10 70 10 117.5t-10 73.5q-21 50 -83 50q-41 0 -76.5 -21.5t-65.5 -61.5l-119 -797h-282z" />
<glyph unicode="n" d="M9 0l162 1082h263l-10 -145q58 79 131 122t155 43q133 0 198 -108q43 -71 42 -194q0 -64 -11 -143l-99 -657h-282l99 657q8 58 8 99q1 50 -11 76q-22 48 -83 48q-46 0 -87 -23.5t-74 -65.5l-119 -791h-282z" />
<glyph unicode="o" d="M58 528l4 23q37 253 175 402t351 149q202 0 300 -155q73 -114 73 -276q0 -57 -9 -120l-4 -23q-38 -253 -176.5 -401t-349.5 -148q-204 0 -302 154q-72 113 -72 272q0 58 10 123zM339 528q-11 -77 -12 -137q0 -62 13 -106q24 -86 115 -86q83 0 136 90.5t75 238.5l4 23 q11 75 11 134q-1 63 -13 108q-24 88 -113 88q-85 0 -138 -92.5t-74 -237.5z" />
<glyph unicode="p" d="M-48 -416l224 1498h258l-4 -111q49 63 109 97t133 34q167 0 242 -158q51 -104 51 -251q0 -74 -13 -158l-3 -21q-38 -251 -153.5 -393t-289.5 -142q-67 0 -116 29.5t-81 85.5l-76 -510h-281zM337 277q15 -38 46.5 -58t81.5 -20q79 0 129.5 85t72.5 230l3 21q12 81 12 144 t-12 109q-23 92 -104 92q-47 0 -85.5 -25.5t-68.5 -71.5z" />
<glyph unicode="q" d="M53 514l3 21q40 265 156.5 416t292.5 151q72 0 122.5 -38t82.5 -107l42 125h242l-224 -1498h-283l75 501q-47 -52 -104 -79t-123 -27q-165 0 -241 148q-53 101 -53 243q0 68 12 144zM333 514q-11 -76 -11 -134q0 -59 12 -100q23 -81 107 -81q47 0 84 20t66 60l77 514 q-17 42 -47.5 65t-76.5 23q-78 0 -131.5 -96.5t-76.5 -249.5z" />
<glyph unicode="r" horiz-adv-x="637" d="M14 0l162 1082h263l-10 -141l5 -2q38 77 92 120t118 43q19 0 35 -3.5t32 -8.5l-67 -252l-96 3q-46 0 -82 -26.5t-60 -73.5l-111 -741h-281z" />
<glyph unicode="s" horiz-adv-x="899" d="M13 332l2 6h257q-2 -20 -3 -37q-1 -59 27 -89q34 -38 105 -39q58 0 94.5 30t43.5 79q1 9 1 18q0 38 -26 64q-32 32 -131 83q-157 61 -229 139q-58 63 -58 153q0 22 3 45q19 137 136 227.5t293 90.5t274 -98q79 -78 78 -185q0 -27 -5 -57l-2 -6h-273q3 21 3 39 q1 44 -17 72q-24 40 -86 40q-48 0 -87 -32.5t-44 -77.5q-2 -11 -2 -21q1 -35 23 -57q28 -28 133 -81q164 -58 236 -138q58 -64 57 -158q0 -24 -3 -49q-21 -143 -142 -228.5t-304 -85.5q-182 0 -280 109q-79 88 -79 192q0 25 5 52z" />
<glyph unicode="t" horiz-adv-x="635" d="M63 881l30 201h131l41 269h282l-41 -269h147l-30 -201h-147l-82 -551q-5 -30 -5 -53q0 -30 9 -46q16 -28 51 -28q19 0 33.5 2.5t33.5 8.5l-9 -208q-42 -14 -79.5 -20.5t-83.5 -6.5q-132 1 -196 85q-45 59 -45 165q0 45 8 99l83 553h-131z" />
<glyph unicode="u" d="M76 458l93 624h282l-94 -626q-12 -80 -12 -132q-1 -48 9 -72q20 -52 83 -52q48 0 88.5 19.5t72.5 57.5l120 805h283l-162 -1082h-231l-8 149q-54 -83 -126 -126.5t-157 -43.5q-141 0 -209 118q-44 77 -45 206q0 70 13 155z" />
<glyph unicode="v" horiz-adv-x="920" d="M95 1082h297l32 -682l1 -82l6 -1l27 83l234 682h295l-470 -1082h-275z" />
<glyph unicode="w" horiz-adv-x="1301" d="M107 1082h271l7 -605l6 -1l248 606h183l68 -602l6 -1l186 603h272l-390 -1082h-235l-72 570h-6l-242 -570h-236z" />
<glyph unicode="x" horiz-adv-x="920" d="M-64 0l364 547l-194 535h315l65 -346l6 -1l173 347h318l-353 -535l200 -547h-317l-73 356l-6 1l-180 -357h-318z" />
<glyph unicode="y" horiz-adv-x="920" d="M-56 -414l65 207q12 -2 21.5 -4t19.5 -2q59 0 98.5 35t62.5 88l39 83l-163 1089h303l40 -645l6 -1l258 646h303l-559 -1245q-58 -116 -139.5 -195t-223.5 -79q-32 0 -59.5 5.5t-71.5 17.5z" />
<glyph unicode="z" horiz-adv-x="920" d="M-12 0l25 165l545 696h-428l33 221h760l-24 -161l-549 -701h453l-33 -220h-782z" />
<glyph unicode="{" horiz-adv-x="593" d="M40 516l7 50l21 147q70 0 114 55.5t58 155.5l29 208q24 177 111.5 292.5t263.5 167.5l5 -2l31 -146q-70 -32 -107 -111t-54 -201l-29 -208q-16 -110 -68 -189.5t-143 -122.5q76 -47 107 -127.5t18 -180.5l-29 -206q-19 -125 -4.5 -202t76.5 -109l-74 -154 q-162 55 -217.5 175t-30.5 290l29 206q13 104 -13.5 158t-100.5 54z" />
<glyph unicode="|" horiz-adv-x="469" d="M6 -270l258 1726h217l-258 -1726h-217z" />
<glyph unicode="}" horiz-adv-x="593" d="M-65 -213q69 32 106 111t55 200l29 206q14 109 67.5 189t146.5 124q-79 44 -111 124.5t-17 182.5l29 208q17 124 2.5 202t-75.5 110l75 153q161 -55 216 -174.5t31 -290.5l-29 -208q-15 -104 12 -157.5t102 -53.5l-7 -52l-4 -24l-9 -69h-1l-7 -52q-71 0 -115 -56.5 t-57 -155.5l-29 -206q-25 -176 -112.5 -292t-261.5 -168l-5 2z" />
<glyph unicode="~" horiz-adv-x="1139" d="M77 446q23 169 112.5 273t211.5 104q68 0 130 -34t116 -99q31 -46 58 -66.5t63 -20.5q37 0 73.5 54t47.5 130l189 -27q-24 -168 -115 -274t-210 -106q-70 0 -128.5 32.5t-114.5 102.5q-36 46 -62 65.5t-62 19.5q-38 0 -74 -52.5t-46 -127.5z" />
<glyph unicode="&#xa1;" horiz-adv-x="535" d="M-10 -374l143 951h283l-143 -951h-283zM172 825l38 257h279l-38 -257h-279z" />
<glyph unicode="&#xa2;" horiz-adv-x="1042" d="M52 526l4 29q35 232 155 378t309 166l33 219h184l-35 -236q111 -40 165 -145t32 -256h-263q14 93 -9 146.5t-84 53.5q-84 0 -134 -91t-71 -235l-4 -29q-24 -156 -3 -241.5t111 -85.5q58 0 96.5 45t51.5 127h256l2 -5q-19 -140 -103 -237t-207 -132l-36 -242h-184l34 228 q-175 22 -254.5 172.5t-45.5 370.5z" />
<glyph unicode="&#xa3;" horiz-adv-x="1068" d="M65 0l33 220h9q39 12 69.5 95.5t45.5 175.5l11 100h-133l33 221h126l25 214q32 219 155 335t304 116q183 0 275 -113.5t61 -295.5l-3 -5h-274q15 103 -13 148t-81 45q-49 0 -87.5 -60.5t-54.5 -169.5l-24 -214h288l-33 -221h-279l-9 -85q-13 -83 -53 -156.5t-103 -129.5 h612l-33 -220h-867z" />
<glyph unicode="&#xa4;" horiz-adv-x="1278" d="M10 108l150 145q-35 76 -46.5 166.5t3.5 188.5q16 106 55.5 200t98.5 172l-108 149l152 135l102 -140q75 53 159 81.5t171 28.5q82 0 156.5 -31t133.5 -87l153 149l111 -136l-162 -157q36 -79 48.5 -171.5t-1.5 -192.5q-16 -102 -52.5 -192.5t-90.5 -165.5l105 -142 l-152 -135l-94 130q-78 -60 -165.5 -91.5t-177.5 -31.5q-87 0 -163.5 33t-136.5 94l-138 -133zM289 608q-30 -197 56 -324t241 -127q144 0 272 131.5t157 319.5q29 195 -57 321.5t-238 126.5q-147 0 -275 -131t-156 -317z" />
<glyph unicode="&#xa5;" horiz-adv-x="1096" d="M88 286l24 159h279l19 130h-279l24 160h223l-219 721h308l131 -569h6l301 569h307l-434 -721h198l-24 -160h-261l-19 -130h261l-24 -159h-261l-43 -286h-281l43 286h-279z" />
<glyph unicode="&#xa6;" horiz-adv-x="469" d="M-10 -270l119 791h249l-118 -791h-250zM136 698l113 758h249l-113 -758h-249z" />
<glyph unicode="&#xa7;" horiz-adv-x="1129" d="M4 -42l3 6h274q-18 -113 29.5 -157t133.5 -44q79 0 132 42.5t64 111.5q10 71 -32 110t-173 89q-202 64 -289 156t-61 262q14 93 61 161.5t124 110.5q-55 51 -76 121.5t-6 169.5q26 178 164.5 279t349.5 101q205 0 312.5 -112.5t73.5 -310.5l-2 -5h-275q14 93 -22.5 150 t-120.5 57q-85 0 -136 -44.5t-61 -112.5q-12 -79 26 -117t174 -86q204 -63 291 -155.5t62 -261.5q-14 -94 -61.5 -161.5t-122.5 -109.5q55 -51 75.5 -121t6.5 -169q-28 -184 -164 -280t-347 -96q-197 0 -320.5 100t-86.5 316zM370 563q-13 -85 23.5 -125t171.5 -94 q23 -8 46.5 -16t48.5 -17q32 23 53.5 59t29.5 81q11 76 -30.5 120t-170.5 98q-28 8 -51.5 16.5t-44.5 17.5q-31 -23 -50.5 -59.5t-25.5 -80.5z" />
<glyph unicode="&#xa8;" horiz-adv-x="1009" d="M245 1259l28 197h251l-28 -197h-251zM701 1259l28 197h250l-28 -197h-250z" />
<glyph unicode="&#xa9;" horiz-adv-x="1456" d="M111 729q49 327 265 537t486 210q254 0 413.5 -218t112.5 -529q-49 -328 -265.5 -539t-484.5 -211q-256 0 -415 218.5t-112 531.5zM223 729q-42 -277 84 -454.5t349 -177.5q210 0 394.5 184t224.5 448q41 275 -84.5 451.5t-345.5 176.5q-211 0 -397 -183t-225 -445z M412 669l18 119q26 179 126.5 283t246.5 104q138 0 208.5 -80.5t44.5 -228.5l-3 -5h-138q15 101 -17.5 143.5t-113.5 42.5q-79 0 -136 -72t-74 -186l-18 -120q-19 -123 14.5 -191.5t117.5 -68.5q77 0 124.5 44t62.5 143h136l2 -6q-20 -156 -109.5 -232t-234.5 -76 q-138 0 -210.5 107.5t-46.5 279.5z" />
<glyph unicode="&#xaa;" horiz-adv-x="795" d="M157 920q17 113 98 171t224 58h112l8 53q10 67 -8 101t-65 34q-51 0 -85 -28t-41 -79l-149 13l-1 6q10 102 92 165t205 63q112 0 172 -72t40 -204l-47 -314q-8 -52 -9.5 -95.5t4.5 -85.5h-162q-4 21 -5 44.5t1 50.5q-35 -48 -87 -78.5t-117 -30.5q-98 0 -147 62t-33 166z M319 924q-8 -48 11 -72.5t67 -24.5q39 0 90 31.5t70 67.5l17 111h-110q-58 0 -98 -33.5t-47 -79.5z" />
<glyph unicode="&#xab;" horiz-adv-x="912" d="M84 506l1 6l1 7l1 6l295 388h176l-260 -398l141 -397h-176zM419 506l1 6l1 7l1 6l295 388h176l-260 -398l141 -397h-176z" />
<glyph unicode="&#xac;" horiz-adv-x="985" d="M132 639l24 161h720l-11 -75l-13 -86l-40 -264h-183l40 264h-537z" />
<glyph unicode="&#xad;" horiz-adv-x="782" d="M130 514l33 221h506l-33 -221h-506z" />
<glyph unicode="&#xae;" horiz-adv-x="1455" d="M111 729q49 327 265 537t485 210q255 0 414.5 -218t112.5 -529q-49 -328 -266 -539t-485 -211q-255 0 -414 218.5t-112 531.5zM225 729q-42 -277 83.5 -454.5t346.5 -177.5q210 0 395 184t225 448q41 276 -84 452t-347 176q-211 0 -395.5 -183t-223.5 -445zM420 316 l128 850h255q130 0 201 -68.5t53 -192.5q-10 -61 -42.5 -104.5t-89.5 -73.5q48 -30 65 -85t7 -127l-8 -56q-7 -44 -8.5 -75.5t4.5 -51.5l-3 -16h-144q-4 21 0 58.5t11 85.5l8 54q11 76 -13.5 109t-92.5 33h-140l-51 -340h-140zM630 783h116q62 0 112.5 32t59.5 90 q11 77 -18 105.5t-116 28.5h-115z" />
<glyph unicode="&#xaf;" horiz-adv-x="956" d="M252 1300l22 157h662l-22 -157h-662z" />
<glyph unicode="&#xb0;" horiz-adv-x="734" d="M220 1204q17 116 101 194.5t188 78.5q96 0 158 -81t46 -192q-18 -117 -101.5 -193.5t-184.5 -76.5q-99 0 -161.5 79.5t-45.5 190.5zM358 1204q-9 -58 17 -93.5t73 -35.5q43 0 80.5 36.5t46.5 92.5q8 59 -17 96t-70 37q-44 0 -83 -39t-47 -94z" />
<glyph unicode="&#xb1;" horiz-adv-x="1005" d="M16 -40l33 223h718l-33 -223h-718zM113 720l32 229h289l51 364h248l-51 -364h287l-32 -229h-287l-54 -385h-248l54 385h-289z" />
<glyph unicode="&#xb2;" horiz-adv-x="756" d="M122 667l22 149l306 255q56 51 74.5 85.5t25.5 77.5q6 43 -8 69t-52 26q-40 0 -67 -31.5t-33 -80.5h-187l-2 6q11 110 98.5 183t219.5 73q122 0 183.5 -65t44.5 -181q-13 -86 -69.5 -148t-182.5 -163l-100 -100l2 -6h292l-22 -149h-545z" />
<glyph unicode="&#xb3;" horiz-adv-x="749" d="M138 894l2 6h189q-7 -47 13.5 -71.5t68.5 -24.5q40 0 71 25.5t38 71.5q8 54 -15.5 81t-77.5 27h-93l12 75l2 14l5 37h93q48 0 76 26t35 74q6 41 -11 67t-60 26q-39 0 -64 -23.5t-30 -57.5h-187l-2 6q10 106 95.5 165.5t205.5 59.5q128 0 199 -60t55 -169 q-9 -58 -46.5 -103.5t-95.5 -69.5q57 -24 83.5 -71.5t17.5 -114.5q-18 -117 -104 -176t-222 -59q-126 0 -200.5 63t-52.5 176z" />
<glyph unicode="&#xb4;" horiz-adv-x="685" d="M212 1257l213 261h314l2 -6l-289 -260h-237z" />
<glyph unicode="&#xb5;" horiz-adv-x="1124" d="M-20 -416l224 1498h281l-93 -624l-3 -21q-19 -142 7 -188.5t97 -46.5q55 0 98 27.5t74 78.5l116 774h281l-162 -1082h-263l4 51q-41 -36 -89 -54t-101 -18q-38 0 -69 10t-56 29l-65 -434h-281z" />
<glyph unicode="&#xb6;" horiz-adv-x="960" d="M124 988q32 214 161.5 341t331.5 127h350l-218 -1456h-282l78 520h-68q-192 0 -288 131t-65 337z" />
<glyph unicode="&#xb7;" horiz-adv-x="567" d="M147 564l38 258h276l-38 -258h-276z" />
<glyph unicode="&#xb8;" horiz-adv-x="496" d="M-21 -453l17 151q36 0 59.5 21t31.5 65q6 44 -17 60.5t-86 21.5l49 140h211l-19 -59q51 -10 81 -51t18 -121q-17 -112 -105 -172.5t-235 -58.5z" />
<glyph unicode="&#xb9;" horiz-adv-x="516" d="M186 1300l23 154l309 23l-122 -812h-199l95 637z" />
<glyph unicode="&#xba;" horiz-adv-x="821" d="M179 1025l17 117q23 153 118 244t235 91q133 0 203 -94.5t48 -240.5l-17 -117q-24 -155 -118 -244.5t-233 -89.5q-134 0 -204.5 93.5t-48.5 240.5zM340 1025q-14 -92 13.5 -144.5t98.5 -52.5q65 0 110.5 55t59.5 142l17 117q13 89 -14.5 142t-96.5 53q-66 0 -112 -55 t-59 -140z" />
<glyph unicode="&#xbb;" horiz-adv-x="912" d="M18 186l280 365l-171 363h176l191 -326h45l-25 -38l14 -37h-45l-289 -327h-176zM364 186l280 365l-171 363h176l191 -326h45l-25 -38l14 -37h-45l-289 -327h-176z" />
<glyph unicode="&#xbc;" horiz-adv-x="1281" d="M253 191l783 1138l123 -73l-782 -1138zM275 1299l23 154l309 23l-122 -812h-199l96 637zM709 142l5 121l444 536v2h199l-76 -509h78l-23 -150h-78l-21 -142h-199l21 142h-350zM919 292h163l39 261l-5 3l-12 -15z" />
<glyph unicode="&#xbd;" horiz-adv-x="1338" d="M266 191l783 1138l123 -73l-782 -1138zM275 1299l23 154l309 23l-122 -812h-199l96 637zM833 0l22 149l306 255q56 51 74.5 85.5t25.5 77.5q6 43 -8 69t-52 26q-40 0 -67 -31.5t-33 -80.5h-187l-2 6q11 110 98.5 183t219.5 73q122 0 183.5 -65t44.5 -181 q-13 -86 -69.5 -148t-182.5 -163l-100 -100l2 -6h292l-22 -149h-545z" />
<glyph unicode="&#xbe;" horiz-adv-x="1486" d="M154 895l2 6h189q-7 -47 13.5 -71.5t68.5 -24.5q40 0 71 25.5t38 71.5q8 54 -15.5 81t-77.5 27h-93l12 75l2 14l5 37h93q48 0 76 26t35 74q6 41 -11 67t-60 26q-39 0 -64 -23.5t-30 -57.5h-187l-2 6q10 106 95.5 165.5t205.5 59.5q128 0 199 -60t55 -169 q-9 -58 -46.5 -103t-94.5 -70q57 -24 83 -71.5t17 -114.5q-18 -117 -104 -176t-222 -59q-126 0 -200.5 63t-52.5 176zM436 191l783 1138l123 -73l-782 -1138zM898 142l5 121l444 536v2h199l-76 -509h78l-23 -150h-78l-21 -142h-199l21 142h-350zM1108 292h163l39 261l-5 3 l-12 -15z" />
<glyph unicode="&#xbf;" horiz-adv-x="917" d="M-13 29q20 130 98.5 233.5t190.5 179.5q59 45 83.5 93t37.5 133h281q-22 -137 -70 -201.5t-170 -157.5q-68 -58 -112 -125.5t-56 -153.5q-16 -97 14.5 -149t104.5 -52q53 0 101.5 47t62.5 133h274l2 -6q-28 -194 -158.5 -295.5t-314.5 -101.5q-195 0 -296.5 115.5 t-72.5 307.5zM424 838l36 244h280l-36 -244h-280z" />
<glyph unicode="&#xc0;" horiz-adv-x="1141" d="M-62 0l631 1456h292l195 -1456h-295l-35 315h-364l-130 -315h-294zM403 1861l3 5h313l141 -266h-246zM453 537h248l-52 460l-6 1z" />
<glyph unicode="&#xc1;" horiz-adv-x="1141" d="M-62 0l631 1456h292l195 -1456h-295l-35 315h-364l-130 -315h-294zM453 537h248l-52 460l-6 1zM590 1605l213 261h314l2 -6l-289 -260h-237z" />
<glyph unicode="&#xc2;" horiz-adv-x="1141" d="M-62 0l631 1456h292l195 -1456h-295l-35 315h-364l-130 -315h-294zM399 1592l4 25l288 237h159l220 -240l-3 -22h-220l-96 135l-136 -135h-216zM453 537h248l-52 460l-6 1z" />
<glyph unicode="&#xc3;" horiz-adv-x="1141" d="M-62 0l631 1456h292l195 -1456h-295l-35 315h-364l-130 -315h-294zM401 1644q13 95 74 161.5t141 66.5q44 0 124 -44.5t125 -44.5q27 0 52.5 33t32.5 80l140 -44q-14 -98 -74 -162.5t-140 -64.5q-57 0 -130.5 44.5t-118.5 44.5q-28 0 -53 -33t-31 -79zM453 537h248 l-52 460l-6 1z" />
<glyph unicode="&#xc4;" horiz-adv-x="1141" d="M-62 0l631 1456h292l195 -1456h-295l-35 315h-364l-130 -315h-294zM371 1607l28 197h251l-28 -197h-251zM453 537h248l-52 460l-6 1zM827 1607l28 197h250l-28 -197h-250z" />
<glyph unicode="&#xc5;" horiz-adv-x="1141" d="M-62 0l631 1456h292l195 -1456h-295l-35 315h-364l-130 -315h-294zM453 537h248l-52 460l-6 1zM582 1745q11 74 67.5 122t130.5 48q69 0 112 -49.5t33 -120.5q-12 -76 -67 -121t-129 -45q-70 0 -114 47.5t-33 118.5zM690 1745q-5 -33 10 -52.5t43 -19.5q25 0 46 20.5 t26 51.5q5 34 -9 54t-41 20t-48.5 -21t-26.5 -53z" />
<glyph unicode="&#xc6;" horiz-adv-x="1689" d="M-66 0l871 1456h900l-33 -224h-495l-42 -373h411l-34 -223h-402l-47 -413h509l-33 -223h-783l39 341h-341l-192 -341h-328zM584 573h237l58 512l-5 2z" />
<glyph unicode="&#xc7;" horiz-adv-x="1133" d="M82 511l64 432q40 264 192.5 399t382.5 135t345 -117.5t76 -350.5l-2 -5h-275q21 146 -19.5 199t-158.5 53q-102 0 -168.5 -77.5t-89.5 -233.5l-65 -434q-25 -165 20.5 -238.5t161.5 -73.5q102 0 157.5 56t77.5 197h272l2 -6q-32 -243 -171 -355t-371 -112 q-227 0 -348 139.5t-83 392.5zM345 -455l17 151q36 0 59.5 21t31.5 65q6 44 -17 60.5t-86 21.5l49 140h211l-19 -59q51 -10 81 -51t18 -121q-17 -112 -105 -172.5t-235 -58.5z" />
<glyph unicode="&#xc8;" horiz-adv-x="994" d="M32 0l218 1456h813l-33 -221h-531l-56 -372h445l-33 -220h-445l-63 -423h533l-33 -220h-815zM352 1861l3 5h313l141 -266h-246z" />
<glyph unicode="&#xc9;" horiz-adv-x="994" d="M32 0l218 1456h813l-33 -221h-531l-56 -372h445l-33 -220h-445l-63 -423h533l-33 -220h-815zM539 1605l213 261h314l2 -6l-289 -260h-237z" />
<glyph unicode="&#xca;" horiz-adv-x="994" d="M32 0l218 1456h813l-33 -221h-531l-56 -372h445l-33 -220h-445l-63 -423h533l-33 -220h-815zM348 1592l4 25l288 237h159l220 -240l-3 -22h-220l-96 135l-136 -135h-216z" />
<glyph unicode="&#xcb;" horiz-adv-x="994" d="M32 0l218 1456h813l-33 -221h-531l-56 -372h445l-33 -220h-445l-63 -423h533l-33 -220h-815zM320 1607l28 197h251l-28 -197h-251zM776 1607l28 197h250l-28 -197h-250z" />
<glyph unicode="&#xcc;" horiz-adv-x="538" d="M48 0l218 1456h281l-218 -1456h-281zM101 1861l3 5h313l141 -266h-246z" />
<glyph unicode="&#xcd;" horiz-adv-x="538" d="M48 0l218 1456h281l-218 -1456h-281zM287 1605l213 261h314l2 -6l-289 -260h-237z" />
<glyph unicode="&#xce;" horiz-adv-x="538" d="M48 0l218 1456h281l-218 -1456h-281zM97 1592l4 25l288 237h159l220 -240l-3 -22h-220l-96 135l-136 -135h-216z" />
<glyph unicode="&#xcf;" horiz-adv-x="538" d="M48 0l218 1456h281l-218 -1456h-281zM69 1607l28 197h251l-28 -197h-251zM525 1607l28 197h250l-28 -197h-250z" />
<glyph unicode="&#xd0;" horiz-adv-x="1173" d="M17 655l26 172h113l94 629h449q220 0 347 -172t88 -436l-36 -241q-42 -278 -214 -442.5t-403 -164.5h-449l98 655h-113zM347 220h167q105 0 190 109t111 278l37 243q26 176 -24.5 280.5t-161.5 104.5h-167l-61 -408h193l-26 -172h-193z" />
<glyph unicode="&#xd1;" horiz-adv-x="1256" d="M32 0l218 1456h282l323 -930h6l139 930h282l-218 -1456h-282l-323 929h-6l-139 -929h-282zM456 1644q13 95 74 161.5t141 66.5q44 0 124 -44.5t125 -44.5q27 0 52.5 33t32.5 80l140 -44q-14 -98 -74 -162.5t-140 -64.5q-57 0 -130.5 44.5t-118.5 44.5q-28 0 -53 -33 t-31 -79z" />
<glyph unicode="&#xd2;" horiz-adv-x="1230" d="M84 524l61 406q39 266 202.5 406.5t407.5 140.5q232 0 360 -147t90 -400l-61 -406q-41 -267 -205 -406t-408 -139q-232 0 -359 145.5t-88 399.5zM365 524q-26 -168 24 -246t175 -78q118 0 196 82t103 242l61 409q24 165 -27.5 243t-175.5 78q-118 0 -195 -81.5 t-100 -239.5zM450 1882l3 5h313l141 -266h-246z" />
<glyph unicode="&#xd3;" horiz-adv-x="1230" d="M84 524l61 406q39 266 202.5 406.5t407.5 140.5q232 0 360 -147t90 -400l-61 -406q-41 -267 -205 -406t-408 -139q-232 0 -359 145.5t-88 399.5zM365 524q-26 -168 24 -246t175 -78q118 0 196 82t103 242l61 409q24 165 -27.5 243t-175.5 78q-118 0 -195 -81.5 t-100 -239.5zM637 1626l213 261h314l2 -6l-289 -260h-237z" />
<glyph unicode="&#xd4;" horiz-adv-x="1230" d="M84 524l61 406q39 266 202.5 406.5t407.5 140.5q232 0 360 -147t90 -400l-61 -406q-41 -267 -205 -406t-408 -139q-232 0 -359 145.5t-88 399.5zM365 524q-26 -168 24 -246t175 -78q118 0 196 82t103 242l61 409q24 165 -27.5 243t-175.5 78q-118 0 -195 -81.5 t-100 -239.5zM446 1613l4 25l288 237h159l220 -240l-3 -22h-220l-96 135l-136 -135h-216z" />
<glyph unicode="&#xd5;" horiz-adv-x="1230" d="M84 524l61 406q39 266 202.5 406.5t407.5 140.5q232 0 360 -147t90 -400l-61 -406q-41 -267 -205 -406t-408 -139q-232 0 -359 145.5t-88 399.5zM365 524q-26 -168 24 -246t175 -78q118 0 196 82t103 242l61 409q24 165 -27.5 243t-175.5 78q-118 0 -195 -81.5 t-100 -239.5zM448 1665q13 95 74 161.5t141 66.5q44 0 124 -44.5t125 -44.5q27 0 52.5 33t32.5 80l140 -44q-14 -98 -74 -162.5t-140 -64.5q-57 0 -130.5 44.5t-118.5 44.5q-28 0 -53 -33t-31 -79z" />
<glyph unicode="&#xd6;" horiz-adv-x="1230" d="M84 524l61 406q39 266 202.5 406.5t407.5 140.5q232 0 360 -147t90 -400l-61 -406q-41 -267 -205 -406t-408 -139q-232 0 -359 145.5t-88 399.5zM365 524q-26 -168 24 -246t175 -78q118 0 196 82t103 242l61 409q24 165 -27.5 243t-175.5 78q-118 0 -195 -81.5 t-100 -239.5zM418 1628l28 197h251l-28 -197h-251zM874 1628l28 197h250l-28 -197h-250z" />
<glyph unicode="&#xd7;" horiz-adv-x="991" d="M35 367l327 317l-233 318l189 159l222 -304l314 304l141 -159l-328 -318l232 -317l-188 -159l-223 303l-312 -303z" />
<glyph unicode="&#xd8;" horiz-adv-x="1232" d="M81 -93l121 187q-77 70 -108.5 179.5t-9.5 250.5l61 406q39 266 202.5 406.5t407.5 140.5q85 0 158 -21.5t132 -61.5l80 122h128l-128 -198q55 -72 76 -170t4 -218l-61 -406q-41 -267 -205 -406t-408 -139q-69 0 -129 13t-111 40l-81 -125h-129zM355.5 424.5 q-0.5 -43.5 8.5 -70.5l6 -2l530 818q-26 42 -70.5 63t-108.5 21q-118 0 -195 -81.5t-100 -239.5l-61 -409q-9 -56 -9.5 -99.5zM425 239q25 -20 59.5 -29.5t79.5 -9.5q118 0 196 82t103 242l61 409q3 22 5 42.5t2 32.5l-6 2z" />
<glyph unicode="&#xd9;" horiz-adv-x="1229" d="M98 505l142 951h281l-142 -951q-24 -154 26 -230t159 -76q105 0 180 79t98 227l142 951h282l-142 -951q-39 -257 -200 -391.5t-393 -134.5q-220 0 -345 140.5t-88 385.5zM446 1861l3 5h313l141 -266h-246z" />
<glyph unicode="&#xda;" horiz-adv-x="1229" d="M98 505l142 951h281l-142 -951q-24 -154 26 -230t159 -76q105 0 180 79t98 227l142 951h282l-142 -951q-39 -257 -200 -391.5t-393 -134.5q-220 0 -345 140.5t-88 385.5zM633 1605l213 261h314l2 -6l-289 -260h-237z" />
<glyph unicode="&#xdb;" horiz-adv-x="1229" d="M98 505l142 951h281l-142 -951q-24 -154 26 -230t159 -76q105 0 180 79t98 227l142 951h282l-142 -951q-39 -257 -200 -391.5t-393 -134.5q-220 0 -345 140.5t-88 385.5zM442 1592l4 25l288 237h159l220 -240l-3 -22h-220l-96 135l-136 -135h-216z" />
<glyph unicode="&#xdc;" horiz-adv-x="1229" d="M98 505l142 951h281l-142 -951q-24 -154 26 -230t159 -76q105 0 180 79t98 227l142 951h282l-142 -951q-39 -257 -200 -391.5t-393 -134.5q-220 0 -345 140.5t-88 385.5zM414 1607l28 197h251l-28 -197h-251zM870 1607l28 197h250l-28 -197h-250z" />
<glyph unicode="&#xdd;" horiz-adv-x="1141" d="M147 1456h308l155 -633l6 -1l346 634h308l-565 -937l-78 -519h-281l81 537zM595 1603l213 261h314l2 -6l-289 -260h-237z" />
<glyph unicode="&#xde;" horiz-adv-x="1093" d="M31 0l218 1456h282l-41 -271h173q216 0 326.5 -125t81.5 -322q-32 -209 -173.5 -328.5t-368.5 -119.5h-173l-43 -290h-282zM389 510h173q93 0 152.5 65.5t73.5 160.5q15 100 -22.5 164.5t-135.5 64.5h-171l-2 2z" />
<glyph unicode="&#xdf;" horiz-adv-x="1144" d="M40 0l165 1102q35 231 166.5 347.5t336.5 116.5q156 0 251 -96t71 -266q-18 -112 -76 -205.5t-68 -164.5q-9 -60 92.5 -199.5t80.5 -279.5q-30 -197 -142 -286.5t-313 -89.5q-66 0 -130.5 15t-95.5 41l83 218q28 -23 72.5 -38.5t101.5 -15.5q54 0 92.5 39.5t49.5 106.5 q11 77 -91.5 208.5t-80.5 270.5q14 99 73 195.5t71 171.5q10 68 -20 112t-78 44q-55 0 -102 -67.5t-63 -181.5l-165 -1098h-281z" />
<glyph unicode="&#xe0;" horiz-adv-x="957" d="M12 303q24 164 140.5 248.5t326.5 84.5h123l14 90q12 83 -11 125.5t-83 42.5q-50 0 -83.5 -35.5t-42.5 -99.5l-272 1l-1 6q16 145 140.5 240.5t307.5 95.5q164 0 258.5 -98.5t68.5 -279.5l-67 -444q-12 -80 -11 -146t14 -134h-280q-10 37 -14.5 79t-2.5 85 q-48 -81 -114.5 -133t-151.5 -52q-142 0 -211 87.5t-48 236.5zM260 1539l3 5h313l141 -266h-246zM295 314q-9 -59 12.5 -92.5t67.5 -33.5q54 0 104.5 35.5t73.5 84.5l25 168h-123q-68 0 -109 -46.5t-51 -115.5z" />
<glyph unicode="&#xe1;" horiz-adv-x="957" d="M12 303q24 164 140.5 248.5t326.5 84.5h123l14 90q12 83 -11 125.5t-83 42.5q-50 0 -83.5 -35.5t-42.5 -99.5l-272 1l-1 6q16 145 140.5 240.5t307.5 95.5q164 0 258.5 -98.5t68.5 -279.5l-67 -444q-12 -80 -11 -146t14 -134h-280q-10 37 -14.5 79t-2.5 85 q-48 -81 -114.5 -133t-151.5 -52q-142 0 -211 87.5t-48 236.5zM295 314q-9 -59 12.5 -92.5t67.5 -33.5q54 0 104.5 35.5t73.5 84.5l25 168h-123q-68 0 -109 -46.5t-51 -115.5zM447 1283l213 261h314l2 -6l-289 -260h-237z" />
<glyph unicode="&#xe2;" horiz-adv-x="957" d="M12 303q24 164 140.5 248.5t326.5 84.5h123l14 90q12 83 -11 125.5t-83 42.5q-50 0 -83.5 -35.5t-42.5 -99.5l-272 1l-1 6q16 145 140.5 240.5t307.5 95.5q164 0 258.5 -98.5t68.5 -279.5l-67 -444q-12 -80 -11 -146t14 -134h-280q-10 37 -14.5 79t-2.5 85 q-48 -81 -114.5 -133t-151.5 -52q-142 0 -211 87.5t-48 236.5zM256 1270l4 25l288 237h159l220 -240l-3 -22h-220l-96 135l-136 -135h-216zM295 314q-9 -59 12.5 -92.5t67.5 -33.5q54 0 104.5 35.5t73.5 84.5l25 168h-123q-68 0 -109 -46.5t-51 -115.5z" />
<glyph unicode="&#xe3;" horiz-adv-x="957" d="M12 303q24 164 140.5 248.5t326.5 84.5h123l14 90q12 83 -11 125.5t-83 42.5q-50 0 -83.5 -35.5t-42.5 -99.5l-272 1l-1 6q16 145 140.5 240.5t307.5 95.5q164 0 258.5 -98.5t68.5 -279.5l-67 -444q-12 -80 -11 -146t14 -134h-280q-10 37 -14.5 79t-2.5 85 q-48 -81 -114.5 -133t-151.5 -52q-142 0 -211 87.5t-48 236.5zM257 1322q13 95 74 161.5t141 66.5q44 0 124 -44.5t125 -44.5q27 0 52.5 33t32.5 80l140 -44q-14 -98 -74 -162.5t-140 -64.5q-57 0 -130.5 44.5t-118.5 44.5q-28 0 -53 -33t-31 -79zM295 314 q-9 -59 12.5 -92.5t67.5 -33.5q54 0 104.5 35.5t73.5 84.5l25 168h-123q-68 0 -109 -46.5t-51 -115.5z" />
<glyph unicode="&#xe4;" horiz-adv-x="957" d="M12 303q24 164 140.5 248.5t326.5 84.5h123l14 90q12 83 -11 125.5t-83 42.5q-50 0 -83.5 -35.5t-42.5 -99.5l-272 1l-1 6q16 145 140.5 240.5t307.5 95.5q164 0 258.5 -98.5t68.5 -279.5l-67 -444q-12 -80 -11 -146t14 -134h-280q-10 37 -14.5 79t-2.5 85 q-48 -81 -114.5 -133t-151.5 -52q-142 0 -211 87.5t-48 236.5zM229 1285l28 197h251l-28 -197h-251zM295 314q-9 -59 12.5 -92.5t67.5 -33.5q54 0 104.5 35.5t73.5 84.5l25 168h-123q-68 0 -109 -46.5t-51 -115.5zM685 1285l28 197h250l-28 -197h-250z" />
<glyph unicode="&#xe5;" horiz-adv-x="957" d="M12 303q24 164 140.5 248.5t326.5 84.5h123l14 90q12 83 -11 125.5t-83 42.5q-50 0 -83.5 -35.5t-42.5 -99.5l-272 1l-1 6q16 145 140.5 240.5t307.5 95.5q164 0 258.5 -98.5t68.5 -279.5l-67 -444q-12 -80 -11 -146t14 -134h-280q-10 37 -14.5 79t-2.5 85 q-48 -81 -114.5 -133t-151.5 -52q-142 0 -211 87.5t-48 236.5zM295 314q-9 -59 12.5 -92.5t67.5 -33.5q54 0 104.5 35.5t73.5 84.5l25 168h-123q-68 0 -109 -46.5t-51 -115.5zM438 1423q11 74 67.5 122t130.5 48q69 0 112 -49.5t33 -120.5q-12 -76 -67 -121t-129 -45 q-70 0 -114 47.5t-33 118.5zM546 1423q-5 -33 10 -52.5t43 -19.5q25 0 46 20.5t26 51.5q5 34 -9 54t-41 20t-48.5 -21t-26.5 -53z" />
<glyph unicode="&#xe6;" horiz-adv-x="1532" d="M38 316q24 162 148 245t341 83h139l10 62q12 85 -11 130t-80 45q-59 0 -101 -39t-50 -96l-270 17l-2 6q17 150 143 241.5t316 91.5q80 0 147 -24t113 -70q59 46 132.5 70t158.5 24q178 0 267.5 -132.5t56.5 -353.5l-23 -157h-550q-13 -125 24.5 -192.5t140.5 -67.5 q74 0 131.5 20t127.5 60l44 -178q-60 -49 -161 -85.5t-208 -36.5q-106 0 -186 39.5t-129 114.5q-62 -68 -155 -111t-210 -43q-163 0 -245 91t-59 246zM319 312q-10 -65 16.5 -99t92.5 -34q41 0 93.5 27.5t88.5 66.5l29 193h-137q-72 0 -123 -45.5t-60 -108.5zM953 643h270 l5 28q14 100 -7.5 155t-81.5 55q-72 0 -117 -63t-69 -175z" />
<glyph unicode="&#xe7;" horiz-adv-x="921" d="M52 526l4 29q37 249 172 398t348 149q169 0 260 -114.5t63 -306.5h-263q14 93 -9 146.5t-84 53.5q-84 0 -134 -91t-71 -235l-4 -29q-24 -156 -3 -241.5t111 -85.5q58 0 96.5 45t51.5 127h255l2 -6q-23 -176 -146 -281t-292 -105q-203 0 -298 154.5t-59 392.5zM253 -455 l17 151q36 0 59.5 21t31.5 65q6 44 -17 60.5t-86 21.5l49 140h211l-19 -59q51 -10 81 -51t18 -121q-17 -112 -105 -172.5t-235 -58.5z" />
<glyph unicode="&#xe8;" horiz-adv-x="937" d="M54 508l6 41q38 254 173 403.5t343 149.5q183 0 269 -132.5t53 -354.5l-23 -154h-546q-12 -123 25 -192.5t137 -69.5q81 0 143 20t131 61l47 -176q-66 -53 -170.5 -89t-216.5 -36q-205 0 -305.5 149.5t-65.5 379.5zM252 1540l3 5h313l141 -266h-246zM359 647h268l4 25 q15 103 -4 156t-84 53q-68 0 -113.5 -63t-70.5 -171z" />
<glyph unicode="&#xe9;" horiz-adv-x="937" d="M54 508l6 41q38 254 173 403.5t343 149.5q183 0 269 -132.5t53 -354.5l-23 -154h-546q-12 -123 25 -192.5t137 -69.5q81 0 143 20t131 61l47 -176q-66 -53 -170.5 -89t-216.5 -36q-205 0 -305.5 149.5t-65.5 379.5zM359 647h268l4 25q15 103 -4 156t-84 53 q-68 0 -113.5 -63t-70.5 -171zM439 1284l213 261h314l2 -6l-289 -260h-237z" />
<glyph unicode="&#xea;" horiz-adv-x="937" d="M54 508l6 41q38 254 173 403.5t343 149.5q183 0 269 -132.5t53 -354.5l-23 -154h-546q-12 -123 25 -192.5t137 -69.5q81 0 143 20t131 61l47 -176q-66 -53 -170.5 -89t-216.5 -36q-205 0 -305.5 149.5t-65.5 379.5zM248 1271l4 25l288 237h159l220 -240l-3 -22h-220 l-96 135l-136 -135h-216zM359 647h268l4 25q15 103 -4 156t-84 53q-68 0 -113.5 -63t-70.5 -171z" />
<glyph unicode="&#xeb;" horiz-adv-x="937" d="M54 508l6 41q38 254 173 403.5t343 149.5q183 0 269 -132.5t53 -354.5l-23 -154h-546q-12 -123 25 -192.5t137 -69.5q81 0 143 20t131 61l47 -176q-66 -53 -170.5 -89t-216.5 -36q-205 0 -305.5 149.5t-65.5 379.5zM221 1286l28 197h251l-28 -197h-251zM359 647h268l4 25 q15 103 -4 156t-84 53q-68 0 -113.5 -63t-70.5 -171zM677 1286l28 197h250l-28 -197h-250z" />
<glyph unicode="&#xec;" horiz-adv-x="514" d="M34 0l162 1082h283l-162 -1082h-283zM38 1518l3 5h313l141 -266h-246z" />
<glyph unicode="&#xed;" horiz-adv-x="514" d="M34 0l162 1082h283l-162 -1082h-283zM224 1262l213 261h314l2 -6l-289 -260h-237z" />
<glyph unicode="&#xee;" horiz-adv-x="514" d="M34 0l162 1082h283l-162 -1082h-283zM34 1250l4 25l288 237h159l220 -240l-3 -22h-220l-96 135l-136 -135h-216z" />
<glyph unicode="&#xef;" horiz-adv-x="514" d="M6 1264l28 197h251l-28 -197h-251zM34 0l162 1082h283l-162 -1082h-283zM462 1264l28 197h250l-28 -197h-250z" />
<glyph unicode="&#xf0;" horiz-adv-x="1066" d="M29 465q35 236 170 367.5t340 131.5q64 0 119.5 -24t94.5 -66l4 4q1 84 -20.5 152.5t-60.5 121.5l-224 -131l-54 109l187 109q-30 20 -62.5 36.5t-68.5 30.5l121 211q74 -21 138.5 -54.5t117.5 -78.5l184 108l54 -109l-153 -90q78 -105 108.5 -245.5t6.5 -306.5l-29 -194 q-39 -260 -200 -414t-372 -154q-202 0 -316.5 140.5t-84.5 345.5zM310 465q-18 -116 24.5 -191t132.5 -75t160 98t93 250l17 118q-21 40 -67.5 65.5t-113.5 25.5q-93 0 -160 -80.5t-86 -210.5z" />
<glyph unicode="&#xf1;" d="M9 0l162 1082h263l-10 -145q58 79 131 122t155 43q133 0 198 -108.5t31 -336.5l-99 -657h-282l99 657q18 127 -3.5 175t-82.5 48q-46 0 -87 -23.5t-74 -65.5l-119 -791h-282zM283 1322q13 95 74 161.5t141 66.5q44 0 124 -44.5t125 -44.5q27 0 52.5 33t32.5 80l140 -44 q-14 -98 -74 -162.5t-140 -64.5q-57 0 -130.5 44.5t-118.5 44.5q-28 0 -53 -33t-31 -79z" />
<glyph unicode="&#xf2;" d="M58 528l4 23q37 253 175 402t351 149q202 0 300.5 -155t63.5 -396l-4 -23q-38 -253 -176.5 -401t-349.5 -148q-203 0 -301.5 154t-62.5 395zM286 1539l3 5h313l141 -266h-246zM339 528q-23 -157 1 -243t115 -86q83 0 136 90.5t75 238.5l4 23q23 154 -1.5 242t-113.5 88 q-85 0 -138 -92.5t-74 -237.5z" />
<glyph unicode="&#xf3;" d="M58 528l4 23q37 253 175 402t351 149q202 0 300.5 -155t63.5 -396l-4 -23q-38 -253 -176.5 -401t-349.5 -148q-203 0 -301.5 154t-62.5 395zM339 528q-23 -157 1 -243t115 -86q83 0 136 90.5t75 238.5l4 23q23 154 -1.5 242t-113.5 88q-85 0 -138 -92.5t-74 -237.5z M473 1283l213 261h314l2 -6l-289 -260h-237z" />
<glyph unicode="&#xf4;" d="M58 528l4 23q37 253 175 402t351 149q202 0 300.5 -155t63.5 -396l-4 -23q-38 -253 -176.5 -401t-349.5 -148q-203 0 -301.5 154t-62.5 395zM282 1270l4 25l288 237h159l220 -240l-3 -22h-220l-96 135l-136 -135h-216zM339 528q-23 -157 1 -243t115 -86q83 0 136 90.5 t75 238.5l4 23q23 154 -1.5 242t-113.5 88q-85 0 -138 -92.5t-74 -237.5z" />
<glyph unicode="&#xf5;" d="M58 528l4 23q37 253 175 402t351 149q202 0 300.5 -155t63.5 -396l-4 -23q-38 -253 -176.5 -401t-349.5 -148q-203 0 -301.5 154t-62.5 395zM283 1322q13 95 74 161.5t141 66.5q44 0 124 -44.5t125 -44.5q27 0 52.5 33t32.5 80l140 -44q-14 -98 -74 -162.5t-140 -64.5 q-57 0 -130.5 44.5t-118.5 44.5q-28 0 -53 -33t-31 -79zM339 528q-23 -157 1 -243t115 -86q83 0 136 90.5t75 238.5l4 23q23 154 -1.5 242t-113.5 88q-85 0 -138 -92.5t-74 -237.5z" />
<glyph unicode="&#xf6;" d="M58 528l4 23q37 253 175 402t351 149q202 0 300.5 -155t63.5 -396l-4 -23q-38 -253 -176.5 -401t-349.5 -148q-203 0 -301.5 154t-62.5 395zM254 1285l28 197h251l-28 -197h-251zM339 528q-23 -157 1 -243t115 -86q83 0 136 90.5t75 238.5l4 23q23 154 -1.5 242 t-113.5 88q-85 0 -138 -92.5t-74 -237.5zM710 1285l28 197h250l-28 -197h-250z" />
<glyph unicode="&#xf7;" horiz-adv-x="1018" d="M66 580l32 216h891l-32 -216h-891zM310 169l34 227h279l-34 -227h-279zM431 973l34 226h279l-34 -226h-279z" />
<glyph unicode="&#xf8;" horiz-adv-x="1009" d="M46 -143l123 216q-76 72 -104.5 190t-6.5 265l4 23q37 253 175 402t351 149q41 0 78.5 -7.5t71.5 -20.5l82 143h151l-124 -217q71 -74 98 -190.5t7 -258.5l-4 -23q-38 -253 -176.5 -401t-349.5 -148q-40 0 -75.5 6.5t-67.5 18.5l-83 -147h-150zM328.5 435 q-2.5 -42 0.5 -69l6 -1l284 499q-13 8 -29.5 12.5t-34.5 4.5q-85 0 -138 -92.5t-74 -237.5l-4 -23q-8 -51 -10.5 -93zM397 211q12 -7 26 -9.5t32 -2.5q83 0 136 90.5t75 238.5l4 23q6 47 9 84t1 61l-6 1z" />
<glyph unicode="&#xf9;" d="M76 458l93 624h282l-94 -626q-23 -151 -2.5 -203.5t82.5 -52.5q48 0 88.5 19.5t72.5 57.5l120 805h283l-162 -1082h-231l-8 149q-54 -83 -126 -126.5t-157 -43.5q-141 0 -209.5 118t-31.5 361zM281 1518l3 5h313l141 -266h-246z" />
<glyph unicode="&#xfa;" d="M76 458l93 624h282l-94 -626q-23 -151 -2.5 -203.5t82.5 -52.5q48 0 88.5 19.5t72.5 57.5l120 805h283l-162 -1082h-231l-8 149q-54 -83 -126 -126.5t-157 -43.5q-141 0 -209.5 118t-31.5 361zM468 1262l213 261h314l2 -6l-289 -260h-237z" />
<glyph unicode="&#xfb;" d="M76 458l93 624h282l-94 -626q-23 -151 -2.5 -203.5t82.5 -52.5q48 0 88.5 19.5t72.5 57.5l120 805h283l-162 -1082h-231l-8 149q-54 -83 -126 -126.5t-157 -43.5q-141 0 -209.5 118t-31.5 361zM277 1250l4 25l288 237h159l220 -240l-3 -22h-220l-96 135l-136 -135h-216z " />
<glyph unicode="&#xfc;" d="M76 458l93 624h282l-94 -626q-23 -151 -2.5 -203.5t82.5 -52.5q48 0 88.5 19.5t72.5 57.5l120 805h283l-162 -1082h-231l-8 149q-54 -83 -126 -126.5t-157 -43.5q-141 0 -209.5 118t-31.5 361zM249 1264l28 197h251l-28 -197h-251zM705 1264l28 197h250l-28 -197h-250z " />
<glyph unicode="&#xfd;" horiz-adv-x="920" d="M-56 -414l65 207q12 -2 21.5 -4t19.5 -2q59 0 98.5 35t62.5 88l39 83l-163 1089h303l40 -645l6 -1l258 646h303l-559 -1245q-58 -116 -139.5 -195t-223.5 -79q-32 0 -59.5 5.5t-71.5 17.5zM425 1262l213 261h314l2 -6l-289 -260h-237z" />
<glyph unicode="&#xfe;" horiz-adv-x="1012" d="M-38 -416l62 416h-3l234 1560h282l-87 -576q48 57 106 87.5t126 30.5q167 0 242.5 -157.5t37.5 -409.5l-3 -21q-38 -251 -153.5 -393t-289.5 -142q-67 0 -116 29.5t-81 85.5l-76 -510h-281zM347 277q15 -38 46.5 -58t81.5 -20q79 0 129.5 85t72.5 230l3 21 q24 160 0.5 252.5t-104.5 92.5q-47 0 -85.5 -25.5t-68.5 -71.5z" />
<glyph unicode="&#xff;" horiz-adv-x="920" d="M-56 -414l65 207q12 -2 21.5 -4t19.5 -2q59 0 98.5 35t62.5 88l39 83l-163 1089h303l40 -645l6 -1l258 646h303l-559 -1245q-58 -116 -139.5 -195t-223.5 -79q-32 0 -59.5 5.5t-71.5 17.5zM207 1264l28 197h251l-28 -197h-251zM663 1264l28 197h250l-28 -197h-250z" />
<glyph unicode="&#x100;" horiz-adv-x="1141" d="M-62 0l631 1456h292l195 -1456h-295l-35 315h-364l-130 -315h-294zM396 1621l22 157h662l-22 -157h-662zM453 537h248l-52 460l-6 1z" />
<glyph unicode="&#x101;" horiz-adv-x="957" d="M12 303q24 164 140.5 248.5t326.5 84.5h123l14 90q12 83 -11 125.5t-83 42.5q-50 0 -83.5 -35.5t-42.5 -99.5l-272 1l-1 6q16 145 140.5 240.5t307.5 95.5q164 0 258.5 -98.5t68.5 -279.5l-67 -444q-12 -80 -11 -146t14 -134h-280q-10 37 -14.5 79t-2.5 85 q-48 -81 -114.5 -133t-151.5 -52q-142 0 -211 87.5t-48 236.5zM253 1300l22 157h662l-22 -157h-662zM295 314q-9 -59 12.5 -92.5t67.5 -33.5q54 0 104.5 35.5t73.5 84.5l25 168h-123q-68 0 -109 -46.5t-51 -115.5z" />
<glyph unicode="&#x102;" horiz-adv-x="1141" d="M-62 0l631 1456h292l195 -1456h-295l-35 315h-364l-130 -315h-294zM452 1889l3 6h205q-9 -56 12.5 -89.5t78.5 -33.5q51 0 82.5 35t39.5 88h207l2 -6q-15 -133 -111.5 -210.5t-243.5 -77.5q-142 0 -220 81t-55 207zM453 537h248l-52 460l-6 1z" />
<glyph unicode="&#x103;" horiz-adv-x="957" d="M12 303q24 164 140.5 248.5t326.5 84.5h123l14 90q12 83 -11 125.5t-83 42.5q-50 0 -83.5 -35.5t-42.5 -99.5l-272 1l-1 6q16 145 140.5 240.5t307.5 95.5q164 0 258.5 -98.5t68.5 -279.5l-67 -444q-12 -80 -11 -146t14 -134h-280q-10 37 -14.5 79t-2.5 85 q-48 -81 -114.5 -133t-151.5 -52q-142 0 -211 87.5t-48 236.5zM295 314q-9 -59 12.5 -92.5t67.5 -33.5q54 0 104.5 35.5t73.5 84.5l25 168h-123q-68 0 -109 -46.5t-51 -115.5zM309 1567l3 6h205q-9 -56 12.5 -89.5t78.5 -33.5q51 0 82.5 35t39.5 88h207l2 -6 q-15 -133 -111.5 -210.5t-243.5 -77.5q-142 0 -220 81t-55 207z" />
<glyph unicode="&#x104;" horiz-adv-x="1141" d="M-62 0l631 1456h292l195 -1456h-295l-35 315h-364l-130 -315h-294zM453 537h248l-52 460l-6 1zM652 -209q12 79 59.5 145.5t138.5 119.5l119 -56q-49 -53 -73.5 -90t-31.5 -86q-4 -25 6.5 -46.5t55.5 -21.5q22 0 41.5 6t40.5 15l9 -148q-34 -18 -75.5 -31t-94.5 -13 q-95 0 -152.5 55t-42.5 151z" />
<glyph unicode="&#x105;" horiz-adv-x="957" d="M12 303q24 164 140.5 248.5t326.5 84.5h123l14 90q12 83 -11 125.5t-83 42.5q-50 0 -83.5 -35.5t-42.5 -99.5l-272 1l-1 6q16 145 140.5 240.5t307.5 95.5q164 0 258.5 -98.5t68.5 -279.5l-67 -444q-12 -80 -11 -146t14 -134h-280q-10 37 -14.5 79t-2.5 85 q-48 -81 -114.5 -133t-151.5 -52q-142 0 -211 87.5t-48 236.5zM295 314q-9 -59 12.5 -92.5t67.5 -33.5q54 0 104.5 35.5t73.5 84.5l25 168h-123q-68 0 -109 -46.5t-51 -115.5zM429 -209q12 79 59.5 145.5t138.5 119.5l119 -56q-49 -53 -73.5 -90t-31.5 -86q-4 -25 6.5 -46.5 t55.5 -21.5q22 0 41.5 6t40.5 15l9 -148q-34 -18 -75.5 -31t-94.5 -13q-95 0 -152.5 55t-42.5 151z" />
<glyph unicode="&#x106;" horiz-adv-x="1133" d="M82 511l64 432q40 264 192.5 399t382.5 135t345 -117.5t76 -350.5l-2 -5h-275q21 146 -19.5 199t-158.5 53q-102 0 -168.5 -77.5t-89.5 -233.5l-65 -434q-25 -165 20.5 -238.5t161.5 -73.5q102 0 157.5 56t77.5 197h272l2 -6q-32 -243 -171 -355t-371 -112 q-227 0 -348 139.5t-83 392.5zM612 1626l213 261h314l2 -6l-289 -260h-237z" />
<glyph unicode="&#x107;" horiz-adv-x="921" d="M52 526l4 29q37 249 172 398t348 149q169 0 260 -114.5t63 -306.5h-263q14 93 -9 146.5t-84 53.5q-84 0 -134 -91t-71 -235l-4 -29q-24 -156 -3 -241.5t111 -85.5q58 0 96.5 45t51.5 127h255l2 -6q-23 -176 -146 -281t-292 -105q-203 0 -298 154.5t-59 392.5zM434 1283 l213 261h314l2 -6l-289 -260h-237z" />
<glyph unicode="&#x108;" horiz-adv-x="1133" d="M82 511l64 432q40 264 192.5 399t382.5 135t345 -117.5t76 -350.5l-2 -5h-275q21 146 -19.5 199t-158.5 53q-102 0 -168.5 -77.5t-89.5 -233.5l-65 -434q-25 -165 20.5 -238.5t161.5 -73.5q102 0 157.5 56t77.5 197h272l2 -6q-32 -243 -171 -355t-371 -112 q-227 0 -348 139.5t-83 392.5zM421 1613l4 25l288 237h159l220 -240l-3 -22h-220l-96 135l-136 -135h-216z" />
<glyph unicode="&#x109;" horiz-adv-x="921" d="M52 526l4 29q37 249 172 398t348 149q169 0 260 -114.5t63 -306.5h-263q14 93 -9 146.5t-84 53.5q-84 0 -134 -91t-71 -235l-4 -29q-24 -156 -3 -241.5t111 -85.5q58 0 96.5 45t51.5 127h255l2 -6q-23 -176 -146 -281t-292 -105q-203 0 -298 154.5t-59 392.5zM243 1270 l4 25l288 237h159l220 -240l-3 -22h-220l-96 135l-136 -135h-216z" />
<glyph unicode="&#x10a;" horiz-adv-x="1133" d="M82 511l64 432q40 264 192.5 399t382.5 135t345 -117.5t76 -350.5l-2 -5h-275q21 146 -19.5 199t-158.5 53q-102 0 -168.5 -77.5t-89.5 -233.5l-65 -434q-25 -165 20.5 -238.5t161.5 -73.5q102 0 157.5 56t77.5 197h272l2 -6q-32 -243 -171 -355t-371 -112 q-227 0 -348 139.5t-83 392.5zM599 1628l35 238h314l-35 -238h-314z" />
<glyph unicode="&#x10b;" horiz-adv-x="921" d="M52 526l4 29q37 249 172 398t348 149q169 0 260 -114.5t63 -306.5h-263q14 93 -9 146.5t-84 53.5q-84 0 -134 -91t-71 -235l-4 -29q-24 -156 -3 -241.5t111 -85.5q58 0 96.5 45t51.5 127h255l2 -6q-23 -176 -146 -281t-292 -105q-203 0 -298 154.5t-59 392.5zM420 1285 l35 238h314l-35 -238h-314z" />
<glyph unicode="&#x10c;" horiz-adv-x="1133" d="M82 511l64 432q40 264 192.5 399t382.5 135t345 -117.5t76 -350.5l-2 -5h-275q21 146 -19.5 199t-158.5 53q-102 0 -168.5 -77.5t-89.5 -233.5l-65 -434q-25 -165 20.5 -238.5t161.5 -73.5q102 0 157.5 56t77.5 197h272l2 -6q-32 -243 -171 -355t-371 -112 q-227 0 -348 139.5t-83 392.5zM446 1876l2 16h255l73 -129l110 129h254l-2 -17l-288 -252h-191z" />
<glyph unicode="&#x10d;" horiz-adv-x="921" d="M52 526l4 29q37 249 172 398t348 149q169 0 260 -114.5t63 -306.5h-263q14 93 -9 146.5t-84 53.5q-84 0 -134 -91t-71 -235l-4 -29q-24 -156 -3 -241.5t111 -85.5q58 0 96.5 45t51.5 127h255l2 -6q-23 -176 -146 -281t-292 -105q-203 0 -298 154.5t-59 392.5zM267 1533 l2 16h255l73 -129l110 129h254l-2 -17l-288 -252h-191z" />
<glyph unicode="&#x10e;" horiz-adv-x="1173" d="M32 0l218 1456h449q220 0 347 -172t88 -436l-36 -241q-42 -278 -214 -442.5t-403 -164.5h-449zM347 220h167q105 0 190 109t111 278l37 243q26 176 -24.5 280.5t-161.5 104.5h-167zM362 1855l2 16h255l73 -129l110 129h254l-2 -17l-288 -252h-191z" />
<glyph unicode="&#x10f;" d="M53 514l3 21q40 265 156.5 416t292.5 151q63 0 111 -32.5t81 -92.5l88 583h282l-234 -1560h-241l-3 122q-53 -70 -116.5 -106.5t-137.5 -36.5q-165 0 -241.5 148t-40.5 387zM333 514q-23 -153 0.5 -233.5t107.5 -80.5q45 0 84 23t69 66l74 493q-17 46 -48.5 72t-75.5 26 q-78 0 -131.5 -96.5t-76.5 -248.5zM1067 1170l90 238l22 151h179l-24 -159l-153 -230h-114z" />
<glyph unicode="&#x110;" horiz-adv-x="1173" d="M17 655l26 172h113l94 629h449q220 0 347 -172t88 -436l-36 -241q-42 -278 -214 -442.5t-403 -164.5h-449l98 655h-113zM347 220h167q105 0 190 109t111 278l37 243q26 176 -24.5 280.5t-161.5 104.5h-167l-61 -408h193l-26 -172h-193z" />
<glyph unicode="&#x111;" d="M53 514l3 21q40 265 156.5 416t292.5 151q63 0 111 -32.5t81 -92.5l37 246h-190l26 172h190l25 165h282l-25 -165h116l-26 -172h-116l-183 -1223h-241l-3 122q-53 -70 -116.5 -106.5t-137.5 -36.5q-165 0 -241.5 148t-40.5 387zM333 514q-23 -153 0.5 -233.5t107.5 -80.5 q45 0 84 23t69 66l74 493q-17 46 -48.5 72t-75.5 26q-78 0 -131.5 -96.5t-76.5 -248.5z" />
<glyph unicode="&#x112;" horiz-adv-x="994" d="M32 0l218 1456h813l-33 -221h-531l-56 -372h445l-33 -220h-445l-63 -423h533l-33 -220h-815zM345 1621l22 157h662l-22 -157h-662z" />
<glyph unicode="&#x113;" horiz-adv-x="937" d="M54 508l6 41q38 254 173 403.5t343 149.5q183 0 269 -132.5t53 -354.5l-23 -154h-546q-12 -123 25 -192.5t137 -69.5q81 0 143 20t131 61l47 -176q-66 -53 -170.5 -89t-216.5 -36q-205 0 -305.5 149.5t-65.5 379.5zM246 1300l22 157h662l-22 -157h-662zM359 647h268l4 25 q15 103 -4 156t-84 53q-68 0 -113.5 -63t-70.5 -171z" />
<glyph unicode="&#x114;" horiz-adv-x="994" d="M32 0l218 1456h813l-33 -221h-531l-56 -372h445l-33 -220h-445l-63 -423h533l-33 -220h-815zM401 1889l3 6h205q-9 -56 12.5 -89.5t78.5 -33.5q51 0 82.5 35t39.5 88h207l2 -6q-15 -133 -111.5 -210.5t-243.5 -77.5q-142 0 -220 81t-55 207z" />
<glyph unicode="&#x115;" horiz-adv-x="937" d="M54 508l6 41q38 254 173 403.5t343 149.5q183 0 269 -132.5t53 -354.5l-23 -154h-546q-12 -123 25 -192.5t137 -69.5q81 0 143 20t131 61l47 -176q-66 -53 -170.5 -89t-216.5 -36q-205 0 -305.5 149.5t-65.5 379.5zM301 1568l3 6h205q-9 -56 12.5 -89.5t78.5 -33.5 q51 0 82.5 35t39.5 88h207l2 -6q-15 -133 -111.5 -210.5t-243.5 -77.5q-142 0 -220 81t-55 207zM359 647h268l4 25q15 103 -4 156t-84 53q-68 0 -113.5 -63t-70.5 -171z" />
<glyph unicode="&#x116;" horiz-adv-x="994" d="M32 0l218 1456h813l-33 -221h-531l-56 -372h445l-33 -220h-445l-63 -423h533l-33 -220h-815zM525 1607l35 238h314l-35 -238h-314z" />
<glyph unicode="&#x117;" horiz-adv-x="937" d="M54 508l6 41q38 254 173 403.5t343 149.5q183 0 269 -132.5t53 -354.5l-23 -154h-546q-12 -123 25 -192.5t137 -69.5q81 0 143 20t131 61l47 -176q-66 -53 -170.5 -89t-216.5 -36q-205 0 -305.5 149.5t-65.5 379.5zM359 647h268l4 25q15 103 -4 156t-84 53 q-68 0 -113.5 -63t-70.5 -171zM425 1286l35 238h314l-35 -238h-314z" />
<glyph unicode="&#x118;" horiz-adv-x="994" d="M32 0l218 1456h813l-33 -221h-531l-56 -372h445l-33 -220h-445l-63 -423h533l-33 -220h-815zM191 -209q12 79 59.5 145.5t138.5 119.5l119 -56q-49 -53 -73.5 -90t-31.5 -86q-4 -25 6.5 -46.5t55.5 -21.5q22 0 41.5 6t40.5 15l9 -148q-34 -18 -75.5 -31t-94.5 -13 q-95 0 -152.5 55t-42.5 151z" />
<glyph unicode="&#x119;" horiz-adv-x="937" d="M54 508l6 41q38 254 173 403.5t343 149.5q183 0 269 -132.5t53 -354.5l-23 -154h-546q-12 -123 25 -192.5t137 -69.5q81 0 143 20t131 61l47 -176q-66 -53 -170.5 -89t-216.5 -36q-205 0 -305.5 149.5t-65.5 379.5zM359 647h268l4 25q15 103 -4 156t-84 53 q-68 0 -113.5 -63t-70.5 -171zM371 -168q12 79 59.5 145.5t138.5 119.5l119 -56q-49 -53 -73.5 -90t-31.5 -86q-4 -25 6.5 -46.5t55.5 -21.5q22 0 41.5 6t40.5 15l9 -148q-34 -18 -75.5 -31t-94.5 -13q-95 0 -152.5 55t-42.5 151z" />
<glyph unicode="&#x11a;" horiz-adv-x="994" d="M32 0l218 1456h813l-33 -221h-531l-56 -372h445l-33 -220h-445l-63 -423h533l-33 -220h-815zM373 1855l2 16h255l73 -129l110 129h254l-2 -17l-288 -252h-191z" />
<glyph unicode="&#x11b;" horiz-adv-x="937" d="M54 508l6 41q38 254 173 403.5t343 149.5q183 0 269 -132.5t53 -354.5l-23 -154h-546q-12 -123 25 -192.5t137 -69.5q81 0 143 20t131 61l47 -176q-66 -53 -170.5 -89t-216.5 -36q-205 0 -305.5 149.5t-65.5 379.5zM272 1534l2 16h255l73 -129l110 129h254l-2 -17 l-288 -252h-191zM359 647h268l4 25q15 103 -4 156t-84 53q-68 0 -113.5 -63t-70.5 -171z" />
<glyph unicode="&#x11c;" horiz-adv-x="1178" d="M79 507l66 442q39 262 196.5 395t388.5 133q229 0 337.5 -114t73.5 -319l-3 -6h-265q17 119 -24.5 168.5t-144.5 49.5q-105 0 -179.5 -77t-96.5 -228l-67 -444q-25 -163 25.5 -235.5t167.5 -72.5q79 0 130.5 19.5t81.5 51.5l44 294h-222l29 195h504l-85 -567 q-75 -87 -202 -150t-313 -63q-228 0 -354 138.5t-88 389.5zM418 1613l4 25l288 237h159l220 -240l-3 -22h-220l-96 135l-136 -135h-216z" />
<glyph unicode="&#x11d;" d="M15 -355l79 214q55 -32 112.5 -48t129.5 -16q91 0 145.5 52.5t71.5 159.5l12 80q-49 -53 -105.5 -80.5t-123.5 -27.5q-165 0 -241.5 148t-40.5 387l3 21q40 265 156.5 416t292.5 151q73 0 124.5 -39t82.5 -111l39 130h245l-161 -1076q-34 -219 -173 -331t-360 -112 q-69 0 -147 22.5t-141 59.5zM263 1270l4 25l288 237h159l220 -240l-3 -22h-220l-96 135l-136 -135h-216zM336 280q23 -80 107 -80q47 0 85 21t66 62l77 506q-16 43 -47.5 67t-77.5 24q-78 0 -131 -96t-76 -249l-3 -21q-23 -154 0 -234z" />
<glyph unicode="&#x11e;" horiz-adv-x="1178" d="M79 507l66 442q39 262 196.5 395t388.5 133q229 0 337.5 -114t73.5 -319l-3 -6h-265q17 119 -24.5 168.5t-144.5 49.5q-105 0 -179.5 -77t-96.5 -228l-67 -444q-25 -163 25.5 -235.5t167.5 -72.5q79 0 130.5 19.5t81.5 51.5l44 294h-222l29 195h504l-85 -567 q-75 -87 -202 -150t-313 -63q-228 0 -354 138.5t-88 389.5zM471 1910l3 6h205q-9 -56 12.5 -89.5t78.5 -33.5q51 0 82.5 35t39.5 88h207l2 -6q-15 -133 -111.5 -210.5t-243.5 -77.5q-142 0 -220 81t-55 207z" />
<glyph unicode="&#x11f;" d="M15 -355l79 214q55 -32 112.5 -48t129.5 -16q91 0 145.5 52.5t71.5 159.5l12 80q-49 -53 -105.5 -80.5t-123.5 -27.5q-165 0 -241.5 148t-40.5 387l3 21q40 265 156.5 416t292.5 151q73 0 124.5 -39t82.5 -111l39 130h245l-161 -1076q-34 -219 -173 -331t-360 -112 q-69 0 -147 22.5t-141 59.5zM316 1567l3 6h205q-9 -56 12.5 -89.5t78.5 -33.5q51 0 82.5 35t39.5 88h207l2 -6q-15 -133 -111.5 -210.5t-243.5 -77.5q-142 0 -220 81t-55 207zM336 280q23 -80 107 -80q47 0 85 21t66 62l77 506q-16 43 -47.5 67t-77.5 24q-78 0 -131 -96 t-76 -249l-3 -21q-23 -154 0 -234z" />
<glyph unicode="&#x120;" horiz-adv-x="1178" d="M79 507l66 442q39 262 196.5 395t388.5 133q229 0 337.5 -114t73.5 -319l-3 -6h-265q17 119 -24.5 168.5t-144.5 49.5q-105 0 -179.5 -77t-96.5 -228l-67 -444q-25 -163 25.5 -235.5t167.5 -72.5q79 0 130.5 19.5t81.5 51.5l44 294h-222l29 195h504l-85 -567 q-75 -87 -202 -150t-313 -63q-228 0 -354 138.5t-88 389.5zM596 1628l35 238h314l-35 -238h-314z" />
<glyph unicode="&#x121;" d="M15 -355l79 214q55 -32 112.5 -48t129.5 -16q91 0 145.5 52.5t71.5 159.5l12 80q-49 -53 -105.5 -80.5t-123.5 -27.5q-165 0 -241.5 148t-40.5 387l3 21q40 265 156.5 416t292.5 151q73 0 124.5 -39t82.5 -111l39 130h245l-161 -1076q-34 -219 -173 -331t-360 -112 q-69 0 -147 22.5t-141 59.5zM336 280q23 -80 107 -80q47 0 85 21t66 62l77 506q-16 43 -47.5 67t-77.5 24q-78 0 -131 -96t-76 -249l-3 -21q-23 -154 0 -234zM440 1285l35 238h314l-35 -238h-314z" />
<glyph unicode="&#x122;" horiz-adv-x="1178" d="M79 507l66 442q39 262 196.5 395t388.5 133q229 0 337.5 -114t73.5 -319l-3 -6h-265q17 119 -24.5 168.5t-144.5 49.5q-105 0 -179.5 -77t-96.5 -228l-67 -444q-25 -163 25.5 -235.5t167.5 -72.5q79 0 130.5 19.5t81.5 51.5l44 294h-222l29 195h504l-85 -567 q-75 -87 -202 -150t-313 -63q-228 0 -354 138.5t-88 389.5zM294 -497l90 238l22 151h179l-24 -159l-153 -230h-114z" />
<glyph unicode="&#x123;" d="M15 -355l79 214q55 -32 112.5 -48t129.5 -16q91 0 145.5 52.5t71.5 159.5l12 80q-49 -53 -105.5 -80.5t-123.5 -27.5q-165 0 -241.5 148t-40.5 387l3 21q40 265 156.5 416t292.5 151q73 0 124.5 -39t82.5 -111l39 130h245l-161 -1076q-34 -219 -173 -331t-360 -112 q-69 0 -147 22.5t-141 59.5zM336 280q23 -80 107 -80q47 0 85 21t66 62l77 506q-16 43 -47.5 67t-77.5 24q-78 0 -131 -96t-76 -249l-3 -21q-23 -154 0 -234zM475 1261l26 175l142 256h154l-72 -264l-25 -167h-225z" />
<glyph unicode="&#x124;" horiz-adv-x="1257" d="M32 0l218 1456h282l-94 -629h469l94 629h281l-218 -1456h-281l91 607h-469l-91 -607h-282zM455 1592l4 25l288 237h159l220 -240l-3 -22h-220l-96 135l-136 -135h-216z" />
<glyph unicode="&#x125;" d="M7 0l234 1560h281l-91 -603q53 70 119.5 107.5t139.5 37.5q140 0 209 -115t35 -350l-96 -637h-282l96 639q20 139 -1 190t-84 51q-48 0 -88 -21t-71 -58l-120 -801h-281zM284 1593l4 25l288 237h159l220 -240l-3 -22h-220l-96 135l-136 -135h-216z" />
<glyph unicode="&#x126;" horiz-adv-x="1261" d="M40 0l154 1029h-101l25 164h100l40 263h282l-40 -263h469l40 263h281l-40 -263h101l-25 -164h-100l-154 -1029h-281l91 607h-469l-91 -607h-282zM446 827h469l30 202h-469z" />
<glyph unicode="&#x127;" d="M7 0l183 1220h-96l26 172h96l25 168h281l-25 -168h211l-26 -172h-211l-40 -263q53 70 119.5 107.5t139.5 37.5q140 0 209 -115t35 -350l-96 -637h-282l96 639q20 139 -1 190t-84 51q-48 0 -88 -21t-71 -58l-120 -801h-281z" />
<glyph unicode="&#x128;" horiz-adv-x="538" d="M48 0l218 1456h281l-218 -1456h-281zM99 1644q13 95 74 161.5t141 66.5q44 0 124 -44.5t125 -44.5q27 0 52.5 33t32.5 80l140 -44q-14 -98 -74 -162.5t-140 -64.5q-57 0 -130.5 44.5t-118.5 44.5q-28 0 -53 -33t-31 -79z" />
<glyph unicode="&#x129;" horiz-adv-x="514" d="M34 0l162 1082h283l-162 -1082h-283zM35 1301q13 95 74 161.5t141 66.5q44 0 124 -44.5t125 -44.5q27 0 52.5 33t32.5 80l140 -44q-14 -98 -74 -162.5t-140 -64.5q-57 0 -130.5 44.5t-118.5 44.5q-28 0 -53 -33t-31 -79z" />
<glyph unicode="&#x12a;" horiz-adv-x="538" d="M48 0l218 1456h281l-218 -1456h-281zM94 1621l22 157h662l-22 -157h-662z" />
<glyph unicode="&#x12b;" horiz-adv-x="514" d="M31 1279l22 157h662l-22 -157h-662zM34 0l162 1082h283l-162 -1082h-283z" />
<glyph unicode="&#x12c;" horiz-adv-x="538" d="M48 0l218 1456h281l-218 -1456h-281zM150 1889l3 6h205q-9 -56 12.5 -89.5t78.5 -33.5q51 0 82.5 35t39.5 88h207l2 -6q-15 -133 -111.5 -210.5t-243.5 -77.5q-142 0 -220 81t-55 207z" />
<glyph unicode="&#x12d;" horiz-adv-x="514" d="M34 0l162 1082h283l-162 -1082h-283zM86 1546l3 6h205q-9 -56 12.5 -89.5t78.5 -33.5q51 0 82.5 35t39.5 88h207l2 -6q-15 -133 -111.5 -210.5t-243.5 -77.5q-142 0 -220 81t-55 207z" />
<glyph unicode="&#x12e;" horiz-adv-x="538" d="M-75 -209q12 79 59.5 145.5t138.5 119.5l119 -56q-49 -53 -73.5 -90t-31.5 -86q-4 -25 6.5 -46.5t55.5 -21.5q22 0 41.5 6t40.5 15l9 -148q-34 -18 -75.5 -31t-94.5 -13q-95 0 -152.5 55t-42.5 151zM48 0l218 1456h281l-218 -1456h-281z" />
<glyph unicode="&#x12f;" horiz-adv-x="497" d="M-95 -209q12 79 59.5 145.5t138.5 119.5l119 -56q-49 -53 -73.5 -90t-31.5 -86q-4 -25 6.5 -46.5t55.5 -21.5q22 0 41.5 6t40.5 15l9 -148q-34 -18 -75.5 -31t-94.5 -13q-95 0 -152.5 55t-42.5 151zM27 0l162 1082h282l-162 -1082h-282zM229 1345l32 215h282l-32 -215 h-282z" />
<glyph unicode="&#x130;" horiz-adv-x="538" d="M48 0l218 1456h281l-218 -1456h-281zM273 1607l35 238h314l-35 -238h-314z" />
<glyph unicode="&#x131;" horiz-adv-x="514" d="M34 0l162 1082h283l-162 -1082h-283z" />
<glyph unicode="&#x132;" horiz-adv-x="1532" d="M48 0l218 1456h281l-218 -1456h-281zM551 427l2 5h274q-19 -124 17.5 -178.5t111.5 -54.5q56 0 105 68.5t67 185.5l150 1003h282l-150 -1003q-34 -225 -168 -349.5t-319 -124.5q-199 0 -303.5 115.5t-68.5 332.5z" />
<glyph unicode="&#x133;" horiz-adv-x="986" d="M27 0l162 1082h282l-162 -1082h-282zM229 1345l32 215h282l-32 -215h-282zM277 -419l46 217q21 -6 39 -9.5t40 -3.5q45 0 76.5 45t45.5 133l168 1119h282l-168 -1119q-30 -199 -134.5 -299.5t-268.5 -100.5q-33 0 -62.5 4.5t-63.5 13.5zM726 1347l32 213h283l-32 -213 h-283z" />
<glyph unicode="&#x134;" horiz-adv-x="994" d="M13 427l2 5h274q-19 -124 17.5 -178.5t111.5 -54.5q56 0 105 68.5t67 185.5l150 1003h282l-150 -1003q-34 -225 -168 -349.5t-319 -124.5q-199 0 -303.5 115.5t-68.5 332.5zM552 1586l4 25l288 237h159l220 -240l-3 -22h-220l-96 135l-136 -135h-216z" />
<glyph unicode="&#x135;" horiz-adv-x="529" d="M-204 -419l46 216q21 -6 39.5 -9.5t41.5 -3.5q44 0 76 47t45 132l168 1119h281l-168 -1119q-30 -199 -134.5 -299.5t-268.5 -100.5q-33 0 -62.5 4.5t-63.5 13.5zM23 1243l4 25l288 237h159l220 -240l-3 -22h-220l-96 135l-136 -135h-216z" />
<glyph unicode="&#x136;" horiz-adv-x="1142" d="M30 0l218 1456h283l-90 -598h77l330 598h368l-491 -722l288 -734h-324l-211 606h-75l-90 -606h-283zM261 -487l90 238l22 151h179l-24 -159l-153 -230h-114z" />
<glyph unicode="&#x137;" horiz-adv-x="973" d="M14 0l234 1560h282l-134 -888h47l257 410h325l-367 -488l249 -594h-323l-169 454h-51l-68 -454h-282zM196 -486l90 238l22 151h179l-24 -159l-153 -230h-114z" />
<glyph unicode="&#x138;" horiz-adv-x="1073" d="M32 0l162 1082h281l-62 -413h68l271 413h351l3 -5l-388 -487l238 -590h-361l-131 407h-90l-61 -407h-281z" />
<glyph unicode="&#x139;" horiz-adv-x="994" d="M32 0l218 1456h282l-185 -1236h543l-33 -220h-825zM270 1586l213 261h314l2 -6l-289 -260h-237z" />
<glyph unicode="&#x13a;" horiz-adv-x="497" d="M27 0l234 1560h282l-234 -1560h-282zM271 1634l213 261h314l2 -6l-289 -260h-237z" />
<glyph unicode="&#x13b;" horiz-adv-x="994" d="M32 0l218 1456h282l-185 -1236h543l-33 -220h-825zM220 -486l90 238l22 151h179l-24 -159l-153 -230h-114z" />
<glyph unicode="&#x13c;" horiz-adv-x="497" d="M-55 -486l90 238l22 151h179l-24 -159l-153 -230h-114zM27 0l234 1560h282l-234 -1560h-282z" />
<glyph unicode="&#x13d;" horiz-adv-x="994" d="M32 0l218 1456h282l-185 -1236h543l-33 -220h-825zM622 1069l90 238l22 151h179l-24 -159l-153 -230h-114z" />
<glyph unicode="&#x13e;" horiz-adv-x="497" d="M27 0l234 1560h282l-234 -1560h-282zM557 1170l90 238l22 151h179l-24 -159l-153 -230h-114z" />
<glyph unicode="&#x13f;" horiz-adv-x="994" d="M32 0l218 1456h282l-185 -1236h543l-33 -220h-825zM542 679l35 238h314l-35 -238h-314z" />
<glyph unicode="&#x140;" horiz-adv-x="497" d="M27 0l234 1560h282l-234 -1560h-282zM362 630l35 238h314l-35 -238h-314z" />
<glyph unicode="&#x141;" horiz-adv-x="902" d="M20 580l28 186l96 30l99 660h282l-85 -568l208 65l-28 -186l-208 -65l-72 -482h543l-33 -220h-825l91 610z" />
<glyph unicode="&#x142;" horiz-adv-x="536" d="M24 582l28 187l116 41l113 750h282l-97 -646l118 42l-28 -187l-118 -42l-109 -727h-282l93 623z" />
<glyph unicode="&#x143;" horiz-adv-x="1256" d="M32 0l218 1456h282l323 -930h6l139 930h282l-218 -1456h-282l-323 929h-6l-139 -929h-282zM645 1605l213 261h314l2 -6l-289 -260h-237z" />
<glyph unicode="&#x144;" d="M9 0l162 1082h263l-10 -145q58 79 131 122t155 43q133 0 198 -108.5t31 -336.5l-99 -657h-282l99 657q18 127 -3.5 175t-82.5 48q-46 0 -87 -23.5t-74 -65.5l-119 -791h-282zM473 1283l213 261h314l2 -6l-289 -260h-237z" />
<glyph unicode="&#x145;" horiz-adv-x="1256" d="M32 0l218 1456h282l323 -930h6l139 930h282l-218 -1456h-282l-323 929h-6l-139 -929h-282zM323 -486l90 238l22 151h179l-24 -159l-153 -230h-114z" />
<glyph unicode="&#x146;" d="M9 0l162 1082h263l-10 -145q58 79 131 122t155 43q133 0 198 -108.5t31 -336.5l-99 -657h-282l99 657q18 127 -3.5 175t-82.5 48q-46 0 -87 -23.5t-74 -65.5l-119 -791h-282zM199 -486l90 238l22 151h179l-24 -159l-153 -230h-114z" />
<glyph unicode="&#x147;" horiz-adv-x="1256" d="M32 0l218 1456h282l323 -930h6l139 930h282l-218 -1456h-282l-323 929h-6l-139 -929h-282zM479 1855l2 16h255l73 -129l110 129h254l-2 -17l-288 -252h-191z" />
<glyph unicode="&#x148;" d="M9 0l162 1082h263l-10 -145q58 79 131 122t155 43q133 0 198 -108.5t31 -336.5l-99 -657h-282l99 657q18 127 -3.5 175t-82.5 48q-46 0 -87 -23.5t-74 -65.5l-119 -791h-282zM306 1533l2 16h255l73 -129l110 129h254l-2 -17l-288 -252h-191z" />
<glyph unicode="&#x149;" d="M9 0l162 1082h263l-10 -145q58 79 131 122t155 43q133 0 198 -108.5t31 -336.5l-99 -657h-282l99 657q18 127 -3.5 175t-82.5 48q-46 0 -87 -23.5t-74 -65.5l-119 -791h-282zM76 1169l90 238l22 151h179l-24 -159l-153 -230h-114z" />
<glyph unicode="&#x14a;" horiz-adv-x="1253" d="M30 0l218 1456h282l323 -931h6l140 931h282l-224 -1493q-30 -198 -135.5 -299t-268.5 -101q-35 0 -65 4.5t-63 13.5l45 216q22 -6 41 -9.5t43 -3.5q44 0 76 47t45 132l5 38l-323 930h-6l-139 -931h-282z" />
<glyph unicode="&#x14b;" d="M9 0l162 1082h263l-10 -143q57 78 130 120.5t155 42.5q133 0 198 -108.5t31 -336.5l-105 -694q-30 -199 -134.5 -299.5t-268.5 -100.5q-34 0 -64 4.5t-62 13.5l45 218q21 -6 39.5 -9.5t42.5 -3.5q43 0 75 46t45 131l105 694q18 128 -3.5 175.5t-83.5 47.5 q-45 0 -85 -22.5t-74 -63.5l-119 -794h-282z" />
<glyph unicode="&#x14c;" horiz-adv-x="1230" d="M84 524l61 406q39 266 202.5 406.5t407.5 140.5q232 0 360 -147t90 -400l-61 -406q-41 -267 -205 -406t-408 -139q-232 0 -359 145.5t-88 399.5zM365 524q-26 -168 24 -246t175 -78q118 0 196 82t103 242l61 409q24 165 -27.5 243t-175.5 78q-118 0 -195 -81.5 t-100 -239.5zM443 1642l22 157h662l-22 -157h-662z" />
<glyph unicode="&#x14d;" d="M58 528l4 23q37 253 175 402t351 149q202 0 300.5 -155t63.5 -396l-4 -23q-38 -253 -176.5 -401t-349.5 -148q-203 0 -301.5 154t-62.5 395zM279 1300l22 157h662l-22 -157h-662zM339 528q-23 -157 1 -243t115 -86q83 0 136 90.5t75 238.5l4 23q23 154 -1.5 242 t-113.5 88q-85 0 -138 -92.5t-74 -237.5z" />
<glyph unicode="&#x14e;" horiz-adv-x="1230" d="M84 524l61 406q39 266 202.5 406.5t407.5 140.5q232 0 360 -147t90 -400l-61 -406q-41 -267 -205 -406t-408 -139q-232 0 -359 145.5t-88 399.5zM365 524q-26 -168 24 -246t175 -78q118 0 196 82t103 242l61 409q24 165 -27.5 243t-175.5 78q-118 0 -195 -81.5 t-100 -239.5zM499 1910l3 6h205q-9 -56 12.5 -89.5t78.5 -33.5q51 0 82.5 35t39.5 88h207l2 -6q-15 -133 -111.5 -210.5t-243.5 -77.5q-142 0 -220 81t-55 207z" />
<glyph unicode="&#x14f;" d="M58 528l4 23q37 253 175 402t351 149q202 0 300.5 -155t63.5 -396l-4 -23q-38 -253 -176.5 -401t-349.5 -148q-203 0 -301.5 154t-62.5 395zM335 1567l3 6h205q-9 -56 12.5 -89.5t78.5 -33.5q51 0 82.5 35t39.5 88h207l2 -6q-15 -133 -111.5 -210.5t-243.5 -77.5 q-142 0 -220 81t-55 207zM339 528q-23 -157 1 -243t115 -86q83 0 136 90.5t75 238.5l4 23q23 154 -1.5 242t-113.5 88q-85 0 -138 -92.5t-74 -237.5z" />
<glyph unicode="&#x150;" horiz-adv-x="1230" d="M84 524l61 406q39 266 202.5 406.5t407.5 140.5q232 0 360 -147t90 -400l-61 -406q-41 -267 -205 -406t-408 -139q-232 0 -359 145.5t-88 399.5zM365 524q-26 -168 24 -246t175 -78q118 0 196 82t103 242l61 409q24 165 -27.5 243t-175.5 78q-118 0 -195 -81.5 t-100 -239.5zM494 1622l209 266h258l3 -6l-245 -260h-225zM811 1628l243 260h261l2 -6l-283 -260h-220z" />
<glyph unicode="&#x151;" d="M58 528l4 23q37 253 175 402t351 149q202 0 300.5 -155t63.5 -396l-4 -23q-38 -253 -176.5 -401t-349.5 -148q-203 0 -301.5 154t-62.5 395zM329 1279l209 266h258l3 -6l-245 -260h-225zM339 528q-23 -157 1 -243t115 -86q83 0 136 90.5t75 238.5l4 23q23 154 -1.5 242 t-113.5 88q-85 0 -138 -92.5t-74 -237.5zM646 1285l243 260h261l2 -6l-283 -260h-220z" />
<glyph unicode="&#x152;" horiz-adv-x="1731" d="M94 576l46 304q41 275 211.5 436t411.5 161q55 0 116.5 -6t125.5 -15h793l-33 -221h-531l-56 -372h445l-33 -220h-445l-63 -423h533l-33 -220h-795q-79 -10 -135 -15.5t-112 -5.5q-230 0 -358 167.5t-88 429.5zM375 576q-28 -189 24.5 -283t173.5 -94q54 0 113 6t114 17 l151 1011q-54 11 -109.5 17.5t-111.5 6.5q-114 0 -198 -98t-111 -277z" />
<glyph unicode="&#x153;" horiz-adv-x="1596" d="M58 528l4 23q37 253 175 402t351 149q131 0 220.5 -68.5t127.5 -188.5q68 123 175 190t245 67q183 0 269 -132.5t53 -354.5l-23 -154h-546q-12 -123 25 -192.5t137 -69.5q81 0 143 20t131 61l47 -176q-66 -53 -170.5 -89t-216.5 -36q-135 0 -226.5 67.5t-128.5 185.5 q-72 -122 -180.5 -187.5t-247.5 -65.5q-203 0 -301.5 154t-62.5 395zM339 528q-23 -157 1 -243t115 -86q83 0 136 90.5t75 238.5l4 23q23 154 -1.5 242t-113.5 88q-85 0 -138 -92.5t-74 -237.5zM1139 647h268l4 25q15 103 -4 156t-84 53q-68 0 -113.5 -63t-70.5 -171z" />
<glyph unicode="&#x154;" horiz-adv-x="1130" d="M32 0l218 1455h436q209 0 320.5 -114.5t81.5 -313.5q-18 -119 -82 -200t-173 -129q105 -39 143.5 -128t20.5 -217l-16 -106q-10 -63 -5.5 -129t35.5 -97l-3 -21h-292q-29 32 -28.5 104.5t11.5 144.5l16 102q17 115 -19.5 174t-123.5 59h-171l-87 -584h-282zM434 804h153 q88 0 144.5 55t72.5 154q16 106 -22 164t-129 58h-154zM569 1605l213 261h314l2 -6l-289 -260h-237z" />
<glyph unicode="&#x155;" horiz-adv-x="637" d="M14 0l162 1082h263l-10 -141l5 -2q38 77 92 120t118 43q19 0 35 -3.5t32 -8.5l-67 -252l-96 3q-46 0 -82 -26.5t-60 -73.5l-111 -741h-281zM331 1283l213 261h314l2 -6l-289 -260h-237z" />
<glyph unicode="&#x156;" horiz-adv-x="1130" d="M32 0l218 1455h436q209 0 320.5 -114.5t81.5 -313.5q-18 -119 -82 -200t-173 -129q105 -39 143.5 -128t20.5 -217l-16 -106q-10 -63 -5.5 -129t35.5 -97l-3 -21h-292q-29 32 -28.5 104.5t11.5 144.5l16 102q17 115 -19.5 174t-123.5 59h-171l-87 -584h-282zM247 -486 l90 238l22 151h179l-24 -159l-153 -230h-114zM434 804h153q88 0 144.5 55t72.5 154q16 106 -22 164t-129 58h-154z" />
<glyph unicode="&#x157;" horiz-adv-x="637" d="M-55 -486l90 238l22 151h179l-24 -159l-153 -230h-114zM14 0l162 1082h263l-10 -141l5 -2q38 77 92 120t118 43q19 0 35 -3.5t32 -8.5l-67 -252l-96 3q-46 0 -82 -26.5t-60 -73.5l-111 -741h-281z" />
<glyph unicode="&#x158;" horiz-adv-x="1130" d="M32 0l218 1455h436q209 0 320.5 -114.5t81.5 -313.5q-18 -119 -82 -200t-173 -129q105 -39 143.5 -128t20.5 -217l-16 -106q-10 -63 -5.5 -129t35.5 -97l-3 -21h-292q-29 32 -28.5 104.5t11.5 144.5l16 102q17 115 -19.5 174t-123.5 59h-171l-87 -584h-282zM403 1855 l2 16h255l73 -129l110 129h254l-2 -17l-288 -252h-191zM434 804h153q88 0 144.5 55t72.5 154q16 106 -22 164t-129 58h-154z" />
<glyph unicode="&#x159;" horiz-adv-x="637" d="M14 0l162 1082h263l-10 -141l5 -2q38 77 92 120t118 43q19 0 35 -3.5t32 -8.5l-67 -252l-96 3q-46 0 -82 -26.5t-60 -73.5l-111 -741h-281zM165 1533l2 16h255l73 -129l110 129h254l-2 -17l-288 -252h-191z" />
<glyph unicode="&#x15a;" horiz-adv-x="1107" d="M80 422l2 6h273q-19 -126 47 -177.5t164 -51.5q65 0 119 43.5t65 108.5q14 98 -30 150.5t-169 112.5q-219 81 -323 193.5t-76 294.5q26 174 164 274.5t332 100.5q214 0 332.5 -119t83.5 -326l-3 -6h-273q15 103 -33.5 166.5t-140.5 63.5q-65 0 -118 -44.5t-61 -107.5 q-15 -94 33.5 -143.5t200.5 -115.5q202 -78 296 -190.5t66 -301.5q-28 -182 -163.5 -278t-334.5 -96q-209 0 -350.5 108t-102.5 335zM573 1626l213 261h314l2 -6l-289 -260h-237z" />
<glyph unicode="&#x15b;" horiz-adv-x="899" d="M13 332l2 6h257q-10 -88 24.5 -126.5t104.5 -38.5q58 0 94.5 30t43.5 79q7 50 -24.5 82.5t-131.5 82.5q-157 61 -229 138.5t-55 198.5q19 137 136 227.5t293 90.5q175 0 273.5 -97.5t73.5 -242.5l-2 -6h-273q10 71 -14.5 111t-85.5 40q-48 0 -87 -32.5t-44 -77.5 q-8 -50 20.5 -78t133.5 -81q164 -59 236 -138.5t54 -206.5q-21 -143 -142 -228.5t-304 -85.5q-182 0 -280 109t-74 244zM423 1283l213 261h314l2 -6l-289 -260h-237z" />
<glyph unicode="&#x15c;" horiz-adv-x="1107" d="M80 422l2 6h273q-19 -126 47 -177.5t164 -51.5q65 0 119 43.5t65 108.5q14 98 -30 150.5t-169 112.5q-219 81 -323 193.5t-76 294.5q26 174 164 274.5t332 100.5q214 0 332.5 -119t83.5 -326l-3 -6h-273q15 103 -33.5 166.5t-140.5 63.5q-65 0 -118 -44.5t-61 -107.5 q-15 -94 33.5 -143.5t200.5 -115.5q202 -78 296 -190.5t66 -301.5q-28 -182 -163.5 -278t-334.5 -96q-209 0 -350.5 108t-102.5 335zM382 1613l4 25l288 237h159l220 -240l-3 -22h-220l-96 135l-136 -135h-216z" />
<glyph unicode="&#x15d;" horiz-adv-x="899" d="M13 332l2 6h257q-10 -88 24.5 -126.5t104.5 -38.5q58 0 94.5 30t43.5 79q7 50 -24.5 82.5t-131.5 82.5q-157 61 -229 138.5t-55 198.5q19 137 136 227.5t293 90.5q175 0 273.5 -97.5t73.5 -242.5l-2 -6h-273q10 71 -14.5 111t-85.5 40q-48 0 -87 -32.5t-44 -77.5 q-8 -50 20.5 -78t133.5 -81q164 -59 236 -138.5t54 -206.5q-21 -143 -142 -228.5t-304 -85.5q-182 0 -280 109t-74 244zM232 1270l4 25l288 237h159l220 -240l-3 -22h-220l-96 135l-136 -135h-216z" />
<glyph unicode="&#x15e;" horiz-adv-x="1107" d="M80 422l2 6h273q-19 -126 47 -177.5t164 -51.5q65 0 119 43.5t65 108.5q14 98 -30 150.5t-169 112.5q-219 81 -323 193.5t-76 294.5q26 174 164 274.5t332 100.5q214 0 332.5 -119t83.5 -326l-3 -6h-273q15 103 -33.5 166.5t-140.5 63.5q-65 0 -118 -44.5t-61 -107.5 q-15 -94 33.5 -143.5t200.5 -115.5q202 -78 296 -190.5t66 -301.5q-28 -182 -163.5 -278t-334.5 -96q-209 0 -350.5 108t-102.5 335zM318 -462l17 151q36 0 59.5 21t31.5 65q6 44 -17 60.5t-86 21.5l49 140h211l-19 -59q51 -10 81 -51t18 -121q-17 -112 -105 -172.5 t-235 -58.5z" />
<glyph unicode="&#x15f;" horiz-adv-x="899" d="M13 332l2 6h257q-10 -88 24.5 -126.5t104.5 -38.5q58 0 94.5 30t43.5 79q7 50 -24.5 82.5t-131.5 82.5q-157 61 -229 138.5t-55 198.5q19 137 136 227.5t293 90.5q175 0 273.5 -97.5t73.5 -242.5l-2 -6h-273q10 71 -14.5 111t-85.5 40q-48 0 -87 -32.5t-44 -77.5 q-8 -50 20.5 -78t133.5 -81q164 -59 236 -138.5t54 -206.5q-21 -143 -142 -228.5t-304 -85.5q-182 0 -280 109t-74 244zM219 -461l17 151q36 0 59.5 21t31.5 65q6 44 -17 60.5t-86 21.5l49 140h211l-19 -59q51 -10 81 -51t18 -121q-17 -112 -105 -172.5t-235 -58.5z" />
<glyph unicode="&#x160;" horiz-adv-x="1107" d="M80 422l2 6h273q-19 -126 47 -177.5t164 -51.5q65 0 119 43.5t65 108.5q14 98 -30 150.5t-169 112.5q-219 81 -323 193.5t-76 294.5q26 174 164 274.5t332 100.5q214 0 332.5 -119t83.5 -326l-3 -6h-273q15 103 -33.5 166.5t-140.5 63.5q-65 0 -118 -44.5t-61 -107.5 q-15 -94 33.5 -143.5t200.5 -115.5q202 -78 296 -190.5t66 -301.5q-28 -182 -163.5 -278t-334.5 -96q-209 0 -350.5 108t-102.5 335zM407 1876l2 16h255l73 -129l110 129h254l-2 -17l-288 -252h-191z" />
<glyph unicode="&#x161;" horiz-adv-x="899" d="M13 332l2 6h257q-10 -88 24.5 -126.5t104.5 -38.5q58 0 94.5 30t43.5 79q7 50 -24.5 82.5t-131.5 82.5q-157 61 -229 138.5t-55 198.5q19 137 136 227.5t293 90.5q175 0 273.5 -97.5t73.5 -242.5l-2 -6h-273q10 71 -14.5 111t-85.5 40q-48 0 -87 -32.5t-44 -77.5 q-8 -50 20.5 -78t133.5 -81q164 -59 236 -138.5t54 -206.5q-21 -143 -142 -228.5t-304 -85.5q-182 0 -280 109t-74 244zM256 1533l2 16h255l73 -129l110 129h254l-2 -17l-288 -252h-191z" />
<glyph unicode="&#x162;" horiz-adv-x="1014" d="M135 1235l33 221h958l-33 -221h-342l-185 -1235h-283l185 1235h-333zM204 -486l90 238l22 151h179l-24 -159l-153 -230h-114z" />
<glyph unicode="&#x163;" horiz-adv-x="635" d="M63 881l30 201h131l41 269h282l-41 -269h147l-30 -201h-147l-82 -551q-12 -71 4 -99t51 -28q19 0 33.5 2.5t33.5 8.5l-9 -208q-42 -14 -79.5 -20.5t-83.5 -6.5q-133 0 -196.5 84.5t-36.5 264.5l83 553h-131zM71 -496l90 238l22 151h179l-24 -159l-153 -230h-114z" />
<glyph unicode="&#x164;" horiz-adv-x="1014" d="M135 1235l33 221h958l-33 -221h-342l-185 -1235h-283l185 1235h-333zM359 1854l2 16h255l73 -129l110 129h254l-2 -17l-288 -252h-191z" />
<glyph unicode="&#x165;" horiz-adv-x="635" d="M63 881l30 201h131l41 269h282l-41 -269h147l-30 -201h-147l-82 -551q-12 -71 4 -99t51 -28q19 0 33.5 2.5t33.5 8.5l-9 -208q-42 -14 -79.5 -20.5t-83.5 -6.5q-133 0 -196.5 84.5t-36.5 264.5l83 553h-131zM625 1195l90 238l22 151h179l-24 -159l-153 -230h-114z" />
<glyph unicode="&#x166;" horiz-adv-x="1014" d="M135 1235l33 221h958l-33 -221h-342l-47 -310h163l-26 -172h-163l-112 -753h-283l112 753h-142l26 172h142l47 310h-333z" />
<glyph unicode="&#x167;" horiz-adv-x="635" d="M-8 536l26 172h150l26 173h-131l30 201h131l41 269h282l-41 -269h147l-30 -201h-147l-26 -173h156l-26 -172h-155l-31 -206q-12 -71 4 -99t51 -28q19 0 33.5 2.5t33.5 8.5l-9 -208q-42 -14 -79.5 -20.5t-83.5 -6.5q-133 0 -196.5 84.5t-36.5 264.5l31 208h-150z" />
<glyph unicode="&#x168;" horiz-adv-x="1229" d="M98 505l142 951h281l-142 -951q-24 -154 26 -230t159 -76q105 0 180 79t98 227l142 951h282l-142 -951q-39 -257 -200 -391.5t-393 -134.5q-220 0 -345 140.5t-88 385.5zM444 1644q13 95 74 161.5t141 66.5q44 0 124 -44.5t125 -44.5q27 0 52.5 33t32.5 80l140 -44 q-14 -98 -74 -162.5t-140 -64.5q-57 0 -130.5 44.5t-118.5 44.5q-28 0 -53 -33t-31 -79z" />
<glyph unicode="&#x169;" d="M76 458l93 624h282l-94 -626q-23 -151 -2.5 -203.5t82.5 -52.5q48 0 88.5 19.5t72.5 57.5l120 805h283l-162 -1082h-231l-8 149q-54 -83 -126 -126.5t-157 -43.5q-141 0 -209.5 118t-31.5 361zM278 1301q13 95 74 161.5t141 66.5q44 0 124 -44.5t125 -44.5q27 0 52.5 33 t32.5 80l140 -44q-14 -98 -74 -162.5t-140 -64.5q-57 0 -130.5 44.5t-118.5 44.5q-28 0 -53 -33t-31 -79z" />
<glyph unicode="&#x16a;" horiz-adv-x="1229" d="M98 505l142 951h281l-142 -951q-24 -154 26 -230t159 -76q105 0 180 79t98 227l142 951h282l-142 -951q-39 -257 -200 -391.5t-393 -134.5q-220 0 -345 140.5t-88 385.5zM439 1621l22 157h662l-22 -157h-662z" />
<glyph unicode="&#x16b;" d="M76 458l93 624h282l-94 -626q-23 -151 -2.5 -203.5t82.5 -52.5q48 0 88.5 19.5t72.5 57.5l120 805h283l-162 -1082h-231l-8 149q-54 -83 -126 -126.5t-157 -43.5q-141 0 -209.5 118t-31.5 361zM274 1279l22 157h662l-22 -157h-662z" />
<glyph unicode="&#x16c;" horiz-adv-x="1229" d="M98 505l142 951h281l-142 -951q-24 -154 26 -230t159 -76q105 0 180 79t98 227l142 951h282l-142 -951q-39 -257 -200 -391.5t-393 -134.5q-220 0 -345 140.5t-88 385.5zM495 1889l3 6h205q-9 -56 12.5 -89.5t78.5 -33.5q51 0 82.5 35t39.5 88h207l2 -6 q-15 -133 -111.5 -210.5t-243.5 -77.5q-142 0 -220 81t-55 207z" />
<glyph unicode="&#x16d;" d="M76 458l93 624h282l-94 -626q-23 -151 -2.5 -203.5t82.5 -52.5q48 0 88.5 19.5t72.5 57.5l120 805h283l-162 -1082h-231l-8 149q-54 -83 -126 -126.5t-157 -43.5q-141 0 -209.5 118t-31.5 361zM329 1546l3 6h205q-9 -56 12.5 -89.5t78.5 -33.5q51 0 82.5 35t39.5 88h207 l2 -6q-15 -133 -111.5 -210.5t-243.5 -77.5q-142 0 -220 81t-55 207z" />
<glyph unicode="&#x16e;" horiz-adv-x="1229" d="M98 505l142 951h281l-142 -951q-24 -154 26 -230t159 -76q105 0 180 79t98 227l142 951h282l-142 -951q-39 -257 -200 -391.5t-393 -134.5q-220 0 -345 140.5t-88 385.5zM625 1745q11 74 67.5 122t130.5 48q69 0 112 -49.5t33 -120.5q-12 -76 -67 -121t-129 -45 q-70 0 -114 47.5t-33 118.5zM733 1745q-5 -33 10 -52.5t43 -19.5q25 0 46 20.5t26 51.5q5 34 -9 54t-41 20t-48.5 -21t-26.5 -53z" />
<glyph unicode="&#x16f;" d="M76 458l93 624h282l-94 -626q-23 -151 -2.5 -203.5t82.5 -52.5q48 0 88.5 19.5t72.5 57.5l120 805h283l-162 -1082h-231l-8 149q-54 -83 -126 -126.5t-157 -43.5q-141 0 -209.5 118t-31.5 361zM459 1402q11 74 67.5 122t130.5 48q69 0 112 -49.5t33 -120.5 q-12 -76 -67 -121t-129 -45q-70 0 -114 47.5t-33 118.5zM567 1402q-5 -33 10 -52.5t43 -19.5q25 0 46 20.5t26 51.5q5 34 -9 54t-41 20t-48.5 -21t-26.5 -53z" />
<glyph unicode="&#x170;" horiz-adv-x="1229" d="M98 505l142 951h281l-142 -951q-24 -154 26 -230t159 -76q105 0 180 79t98 227l142 951h282l-142 -951q-39 -257 -200 -391.5t-393 -134.5q-220 0 -345 140.5t-88 385.5zM489 1601l209 266h258l3 -6l-245 -260h-225zM806 1607l243 260h261l2 -6l-283 -260h-220z" />
<glyph unicode="&#x171;" d="M76 458l93 624h282l-94 -626q-23 -151 -2.5 -203.5t82.5 -52.5q48 0 88.5 19.5t72.5 57.5l120 805h283l-162 -1082h-231l-8 149q-54 -83 -126 -126.5t-157 -43.5q-141 0 -209.5 118t-31.5 361zM324 1258l209 266h258l3 -6l-245 -260h-225zM641 1264l243 260h261l2 -6 l-283 -260h-220z" />
<glyph unicode="&#x172;" horiz-adv-x="1229" d="M98 505l142 951h281l-142 -951q-24 -154 26 -230t159 -76q105 0 180 79t98 227l142 951h282l-142 -951q-39 -257 -200 -391.5t-393 -134.5q-220 0 -345 140.5t-88 385.5zM308 -209q12 79 59.5 145.5t138.5 119.5l119 -56q-49 -53 -73.5 -90t-31.5 -86q-4 -25 6.5 -46.5 t55.5 -21.5q22 0 41.5 6t40.5 15l9 -148q-34 -18 -75.5 -31t-94.5 -13q-95 0 -152.5 55t-42.5 151z" />
<glyph unicode="&#x173;" d="M76 458l93 624h282l-94 -626q-23 -151 -2.5 -203.5t82.5 -52.5q48 0 88.5 19.5t72.5 57.5l120 805h283l-162 -1082h-231l-8 149q-54 -83 -126 -126.5t-157 -43.5q-141 0 -209.5 118t-31.5 361zM432 -209q12 79 59.5 145.5t138.5 119.5l119 -56q-49 -53 -73.5 -90 t-31.5 -86q-4 -25 6.5 -46.5t55.5 -21.5q22 0 41.5 6t40.5 15l9 -148q-34 -18 -75.5 -31t-94.5 -13q-95 0 -152.5 55t-42.5 151z" />
<glyph unicode="&#x174;" horiz-adv-x="1566" d="M156 1456h289l11 -925l6 -1l347 926h222l72 -922l6 -1l287 923h287l-503 -1456h-262l-78 901l-6 1l-347 -902h-262zM610 1592l4 25l288 237h159l220 -240l-3 -22h-220l-96 135l-136 -135h-216z" />
<glyph unicode="&#x175;" horiz-adv-x="1301" d="M107 1082h271l7 -605l6 -1l248 606h183l68 -602l6 -1l186 603h272l-390 -1082h-235l-72 570h-6l-242 -570h-236zM425 1250l4 25l288 237h159l220 -240l-3 -22h-220l-96 135l-136 -135h-216z" />
<glyph unicode="&#x176;" horiz-adv-x="1141" d="M147 1456h308l155 -633l6 -1l346 634h308l-565 -937l-78 -519h-281l81 537zM404 1590l4 25l288 237h159l220 -240l-3 -22h-220l-96 135l-136 -135h-216z" />
<glyph unicode="&#x177;" horiz-adv-x="920" d="M-56 -414l65 207q12 -2 21.5 -4t19.5 -2q59 0 98.5 35t62.5 88l39 83l-163 1089h303l40 -645l6 -1l258 646h303l-559 -1245q-58 -116 -139.5 -195t-223.5 -79q-32 0 -59.5 5.5t-71.5 17.5zM234 1250l4 25l288 237h159l220 -240l-3 -22h-220l-96 135l-136 -135h-216z" />
<glyph unicode="&#x178;" horiz-adv-x="1141" d="M147 1456h308l155 -633l6 -1l346 634h308l-565 -937l-78 -519h-281l81 537zM376 1605l28 197h251l-28 -197h-251zM832 1605l28 197h250l-28 -197h-250z" />
<glyph unicode="&#x179;" horiz-adv-x="966" d="M0 142l659 1093h-482l33 221h824l-20 -137l-662 -1099h562l-33 -220h-866zM524 1607l213 261h314l2 -6l-289 -260h-237z" />
<glyph unicode="&#x17a;" horiz-adv-x="920" d="M-12 0l25 165l545 696h-428l33 221h760l-24 -161l-549 -701h453l-33 -220h-782zM425 1262l213 261h314l2 -6l-289 -260h-237z" />
<glyph unicode="&#x17b;" horiz-adv-x="966" d="M0 142l659 1093h-482l33 221h824l-20 -137l-662 -1099h562l-33 -220h-866zM510 1609l35 238h314l-35 -238h-314z" />
<glyph unicode="&#x17c;" horiz-adv-x="920" d="M-12 0l25 165l545 696h-428l33 221h760l-24 -161l-549 -701h453l-33 -220h-782zM411 1264l35 238h314l-35 -238h-314z" />
<glyph unicode="&#x17d;" horiz-adv-x="966" d="M0 142l659 1093h-482l33 221h824l-20 -137l-662 -1099h562l-33 -220h-866zM357 1857l2 16h255l73 -129l110 129h254l-2 -17l-288 -252h-191z" />
<glyph unicode="&#x17e;" horiz-adv-x="920" d="M-12 0l25 165l545 696h-428l33 221h760l-24 -161l-549 -701h453l-33 -220h-782zM258 1512l2 16h255l73 -129l110 129h254l-2 -17l-288 -252h-191z" />
<glyph unicode="&#x17f;" horiz-adv-x="481" d="M16 0l181 1204q28 188 135 282.5t281 94.5q32 0 65.5 -5.5t73.5 -15.5l-54 -211q-20 5 -37.5 8t-42.5 3q-55 0 -92.5 -41.5t-47.5 -114.5l-181 -1204h-281z" />
<glyph unicode="&#x192;" horiz-adv-x="661" d="M-170 -419l44 216q18 -6 38 -9.5t43 -3.5q44 0 75.5 47t43.5 132l128 918h-135l28 201h135l18 122q25 188 132 282.5t282 94.5q32 0 66 -6t72 -15l-51 -212q-20 5 -39 8t-44 3q-54 0 -90 -41t-45 -114l-18 -122h173l-28 -201h-173l-129 -918q-28 -199 -132 -299.5 t-267 -100.5q-34 0 -64.5 4.5t-62.5 13.5z" />
<glyph unicode="&#x1a0;" horiz-adv-x="1250" d="M79 524l61 406q39 266 202.5 406.5t407.5 140.5q123 0 220.5 -44t157.5 -126q74 37 123 114t66 188h200q-29 -187 -109 -308.5t-207 -175.5q6 -45 6 -94t-7 -101l-61 -406q-41 -267 -205 -406t-408 -139q-232 0 -359 145.5t-88 399.5zM360 524q-26 -168 24 -246t175 -78 q118 0 196 82t103 242l61 409q24 165 -27.5 243t-175.5 78q-118 0 -195 -81.5t-100 -239.5z" />
<glyph unicode="&#x1a1;" horiz-adv-x="1045" d="M58 528l4 23q37 253 175 402t351 149q91 0 163 -34.5t121 -96.5q49 38 82.5 105.5t47.5 158.5h198q-23 -150 -89.5 -250.5t-171.5 -148.5q18 -62 21 -134.5t-8 -150.5l-4 -23q-38 -253 -176.5 -401t-349.5 -148q-203 0 -301.5 154t-62.5 395zM339 528q-23 -157 1 -243 t115 -86q83 0 136 90.5t75 238.5l4 23q23 154 -1.5 242t-113.5 88q-85 0 -138 -92.5t-74 -237.5z" />
<glyph unicode="&#x1af;" horiz-adv-x="1281" d="M98 505l142 951h281l-142 -951q-24 -154 26 -230t159 -76q105 0 180 79t98 227l142 951h282l-25 -171l5 -2q65 20 104 102.5t61 225.5h200q-37 -240 -132 -367.5t-268 -154.5l-87 -584q-39 -257 -200 -391.5t-393 -134.5q-220 0 -345 140.5t-88 385.5z" />
<glyph unicode="&#x1b0;" horiz-adv-x="1015" d="M76 458l93 624h282l-94 -626q-23 -151 -2.5 -203.5t82.5 -52.5q48 0 88.5 19.5t72.5 57.5l120 805h283l-18 -119l6 -2q64 13 101 72t53 165h174l2 -5q-25 -180 -112 -276t-249 -118l-119 -799h-231l-8 149q-54 -83 -126 -126.5t-157 -43.5q-141 0 -209.5 118t-31.5 361z " />
<glyph unicode="&#x1f0;" horiz-adv-x="529" d="M-204 -419l46 216q21 -6 39.5 -9.5t41.5 -3.5q44 0 76 47t45 132l168 1119h281l-168 -1119q-30 -199 -134.5 -299.5t-268.5 -100.5q-33 0 -62.5 4.5t-63.5 13.5zM48 1505l2 16h255l73 -129l110 129h254l-2 -17l-288 -252h-191z" />
<glyph unicode="&#x1fa;" horiz-adv-x="1141" d="M-62 0l631 1456h292l195 -1456h-295l-35 315h-364l-130 -315h-294zM453 537h248l-52 460l-6 1zM562 1694q11 80 71.5 131.5t138.5 51.5q73 0 118.5 -53.5t34.5 -129.5q-13 -82 -71.5 -131t-135.5 -49q-75 0 -121.5 51t-34.5 129zM667 1694q-6 -41 12.5 -65t52.5 -24 q31 0 56.5 25t31.5 64q5 42 -11.5 66.5t-49.5 24.5t-60 -26t-32 -65zM699 1932l197 211h240l2 -6l-269 -211h-167z" />
<glyph unicode="&#x1fb;" horiz-adv-x="957" d="M12 303q24 164 140.5 248.5t326.5 84.5h123l14 90q12 83 -11 125.5t-83 42.5q-50 0 -83.5 -35.5t-42.5 -99.5l-272 1l-1 6q16 145 140.5 240.5t307.5 95.5q164 0 258.5 -98.5t68.5 -279.5l-67 -444q-12 -80 -11 -146t14 -134h-280q-10 37 -14.5 79t-2.5 85 q-48 -81 -114.5 -133t-151.5 -52q-142 0 -211 87.5t-48 236.5zM295 314q-9 -59 12.5 -92.5t67.5 -33.5q54 0 104.5 35.5t73.5 84.5l25 168h-123q-68 0 -109 -46.5t-51 -115.5zM419 1372q11 80 71.5 131.5t138.5 51.5q73 0 118.5 -53.5t34.5 -129.5q-13 -82 -71.5 -131 t-135.5 -49q-75 0 -121.5 51t-34.5 129zM524 1372q-6 -41 12.5 -65t52.5 -24q31 0 56.5 25t31.5 64q5 42 -11.5 66.5t-49.5 24.5t-60 -26t-32 -65zM556 1610l197 211h240l2 -6l-269 -211h-167z" />
<glyph unicode="&#x1fc;" horiz-adv-x="1689" d="M-66 0l871 1456h900l-33 -224h-495l-42 -373h411l-34 -223h-402l-47 -413h509l-33 -223h-783l39 341h-341l-192 -341h-328zM584 573h237l58 512l-5 2zM830 1605l213 261h314l2 -6l-289 -260h-237z" />
<glyph unicode="&#x1fd;" horiz-adv-x="1532" d="M38 316q24 162 148 245t341 83h139l10 62q12 85 -11 130t-80 45q-59 0 -101 -39t-50 -96l-270 17l-2 6q17 150 143 241.5t316 91.5q80 0 147 -24t113 -70q59 46 132.5 70t158.5 24q178 0 267.5 -132.5t56.5 -353.5l-23 -157h-550q-13 -125 24.5 -192.5t140.5 -67.5 q74 0 131.5 20t127.5 60l44 -178q-60 -49 -161 -85.5t-208 -36.5q-106 0 -186 39.5t-129 114.5q-62 -68 -155 -111t-210 -43q-163 0 -245 91t-59 246zM319 312q-10 -65 16.5 -99t92.5 -34q41 0 93.5 27.5t88.5 66.5l29 193h-137q-72 0 -123 -45.5t-60 -108.5zM750 1284 l213 261h314l2 -6l-289 -260h-237zM953 643h270l5 28q14 100 -7.5 155t-81.5 55q-72 0 -117 -63t-69 -175z" />
<glyph unicode="&#x1fe;" horiz-adv-x="1232" d="M81 -93l121 187q-77 70 -108.5 179.5t-9.5 250.5l61 406q39 266 202.5 406.5t407.5 140.5q85 0 158 -21.5t132 -61.5l80 122h128l-128 -198q55 -72 76 -170t4 -218l-61 -406q-41 -267 -205 -406t-408 -139q-69 0 -129 13t-111 40l-81 -125h-129zM355.5 424.5 q-0.5 -43.5 8.5 -70.5l6 -2l530 818q-26 42 -70.5 63t-108.5 21q-118 0 -195 -81.5t-100 -239.5l-61 -409q-9 -56 -9.5 -99.5zM425 239q25 -20 59.5 -29.5t79.5 -9.5q118 0 196 82t103 242l61 409q3 22 5 42.5t2 32.5l-6 2zM651 1667l213 261h314l2 -6l-289 -260h-237z" />
<glyph unicode="&#x1ff;" horiz-adv-x="1009" d="M46 -143l123 216q-76 72 -104.5 190t-6.5 265l4 23q37 253 175 402t351 149q41 0 78.5 -7.5t71.5 -20.5l82 143h151l-124 -217q71 -74 98 -190.5t7 -258.5l-4 -23q-38 -253 -176.5 -401t-349.5 -148q-40 0 -75.5 6.5t-67.5 18.5l-83 -147h-150zM328.5 435 q-2.5 -42 0.5 -69l6 -1l284 499q-13 8 -29.5 12.5t-34.5 4.5q-85 0 -138 -92.5t-74 -237.5l-4 -23q-8 -51 -10.5 -93zM397 211q12 -7 26 -9.5t32 -2.5q83 0 136 90.5t75 238.5l4 23q6 47 9 84t1 61l-6 1zM443 1279l213 261h314l2 -6l-289 -260h-237z" />
<glyph unicode="&#x218;" horiz-adv-x="1107" d="M80 422l2 6h273q-19 -126 47 -177.5t164 -51.5q65 0 119 43.5t65 108.5q14 98 -30 150.5t-169 112.5q-219 81 -323 193.5t-76 294.5q26 174 164 274.5t332 100.5q214 0 332.5 -119t83.5 -326l-3 -6h-273q15 103 -33.5 166.5t-140.5 63.5q-65 0 -118 -44.5t-61 -107.5 q-15 -94 33.5 -143.5t200.5 -115.5q202 -78 296 -190.5t66 -301.5q-28 -182 -163.5 -278t-334.5 -96q-209 0 -350.5 108t-102.5 335zM245 -506l90 238l22 151h179l-24 -159l-153 -230h-114z" />
<glyph unicode="&#x219;" horiz-adv-x="899" d="M13 332l2 6h257q-10 -88 24.5 -126.5t104.5 -38.5q58 0 94.5 30t43.5 79q7 50 -24.5 82.5t-131.5 82.5q-157 61 -229 138.5t-55 198.5q19 137 136 227.5t293 90.5q175 0 273.5 -97.5t73.5 -242.5l-2 -6h-273q10 71 -14.5 111t-85.5 40q-48 0 -87 -32.5t-44 -77.5 q-8 -50 20.5 -78t133.5 -81q164 -59 236 -138.5t54 -206.5q-21 -143 -142 -228.5t-304 -85.5q-182 0 -280 109t-74 244zM146 -505l90 238l22 151h179l-24 -159l-153 -230h-114z" />
<glyph unicode="&#x237;" horiz-adv-x="529" d="M-204 -419l46 216q21 -6 39.5 -9.5t41.5 -3.5q44 0 76 47t45 132l168 1119h281l-168 -1119q-30 -199 -134.5 -299.5t-268.5 -100.5q-33 0 -62.5 4.5t-63.5 13.5z" />
<glyph unicode="&#x2bc;" horiz-adv-x="508" d="M202 921l37 273l39 262h232l-39 -262l-132 -273h-137z" />
<glyph unicode="&#x2c6;" horiz-adv-x="909" d="M227 1252l4 25l288 237h159l220 -240l-3 -22h-220l-96 135l-136 -135h-216z" />
<glyph unicode="&#x2c7;" horiz-adv-x="864" d="M229 1505l2 16h255l73 -129l110 129h254l-2 -17l-288 -252h-191z" />
<glyph unicode="&#x2d8;" horiz-adv-x="838" d="M231 1450l3 6h205q-9 -56 12.5 -89.5t78.5 -33.5q51 0 82.5 35t39.5 88h207l2 -6q-15 -133 -111.5 -210.5t-243.5 -77.5q-142 0 -220 81t-55 207z" />
<glyph unicode="&#x2d9;" horiz-adv-x="579" d="M226 1231l35 238h314l-35 -238h-314z" />
<glyph unicode="&#x2da;" horiz-adv-x="624" d="M258 1307q11 74 67.5 122t130.5 48q69 0 112 -49.5t33 -120.5q-12 -76 -67 -121t-129 -45q-70 0 -114 47.5t-33 118.5zM366 1307q-5 -33 10 -52.5t43 -19.5q25 0 46 20.5t26 51.5q5 34 -9 54t-41 20t-48.5 -21t-26.5 -53z" />
<glyph unicode="&#x2db;" horiz-adv-x="563" d="M-34 -209q12 79 59.5 145.5t138.5 119.5l119 -56q-49 -53 -73.5 -90t-31.5 -86q-4 -25 6.5 -46.5t55.5 -21.5q22 0 41.5 6t40.5 15l9 -148q-34 -18 -75.5 -31t-94.5 -13q-95 0 -152.5 55t-42.5 151z" />
<glyph unicode="&#x2dc;" horiz-adv-x="875" d="M213 1273q13 95 74 161.5t141 66.5q44 0 124 -44.5t125 -44.5q27 0 52.5 33t32.5 80l140 -44q-14 -98 -74 -162.5t-140 -64.5q-57 0 -130.5 44.5t-118.5 44.5q-28 0 -53 -33t-31 -79z" />
<glyph unicode="&#x2dd;" horiz-adv-x="788" d="M240 1252l209 266h258l3 -6l-245 -260h-225zM557 1258l243 260h261l2 -6l-283 -260h-220z" />
<glyph unicode="&#x2f3;" horiz-adv-x="584" d="M24 -226q11 73 64.5 118.5t124.5 45.5q66 0 107 -47.5t31 -116.5q-12 -72 -64.5 -116t-122.5 -44q-67 0 -109 46t-31 114zM128 -226q-5 -30 9 -49t41 -19q24 0 43 19.5t24 48.5q5 32 -8 51t-38 19q-26 0 -46.5 -19.5t-24.5 -50.5z" />
<glyph unicode="&#x300;" horiz-adv-x="14" d="M-504 1484l2 6h218l98 -351h-171z" />
<glyph unicode="&#x301;" horiz-adv-x="14" d="M-392 1143l145 345h214l2 -8l-197 -344h-162z" />
<glyph unicode="&#x303;" horiz-adv-x="14" d="M-806 1273q13 95 74 161.5t141 66.5q44 0 124 -44.5t125 -44.5q27 0 52.5 33t32.5 80l140 -44q-14 -98 -74 -162.5t-140 -64.5q-57 0 -130.5 44.5t-118.5 44.5q-28 0 -53 -33t-31 -79z" />
<glyph unicode="&#x309;" horiz-adv-x="13" d="M-519 1264l3 130q63 3 92 19t33 50q7 39 -20.5 55.5t-81.5 16.5l26 129q171 0 251 -49t65 -143q-9 -64 -51 -100.5t-96 -44.5l-9 -63h-212z" />
<glyph unicode="&#x30f;" horiz-adv-x="13" d="M-753 1518h269l167 -266h-228zM-399 1518h266l129 -266h-226z" />
<glyph unicode="&#x323;" horiz-adv-x="13" d="M-799 -351l36 237h314l-36 -237h-314z" />
<glyph unicode="&#x384;" horiz-adv-x="646" d="M330 1276l101 275h254l3 -5l-220 -270h-138z" />
<glyph unicode="&#x385;" horiz-adv-x="1006" d="M245 1260l29 196h235l-29 -196h-235zM566 1479l78 272h261l-202 -272h-137zM727 1260l29 196h235l-29 -196h-235z" />
<glyph unicode="&#x386;" horiz-adv-x="1141" d="M-62 0l631 1456h292l195 -1456h-295l-35 315h-364l-130 -315h-294zM170 1276l101 275h254l3 -5l-220 -270h-138zM453 537h248l-52 460l-6 1z" />
<glyph unicode="&#x387;" horiz-adv-x="568" d="M147 564l38 258h276l-38 -258h-276z" />
<glyph unicode="&#x388;" horiz-adv-x="994" d="M-119 1278l101 275h254l3 -5l-220 -270h-138zM32 0l218 1456h813l-33 -221h-531l-56 -372h445l-33 -220h-445l-63 -423h533l-33 -220h-815z" />
<glyph unicode="&#x389;" horiz-adv-x="1257" d="M-85 1274l101 275h254l3 -5l-220 -270h-138zM32 0l218 1456h282l-94 -629h469l94 629h281l-218 -1456h-281l91 607h-469l-91 -607h-282z" />
<glyph unicode="&#x38a;" horiz-adv-x="538" d="M-75 1277l101 275h254l3 -5l-220 -270h-138zM48 0l218 1456h281l-218 -1456h-281z" />
<glyph unicode="&#x38c;" horiz-adv-x="1230" d="M67 1276l101 275h254l3 -5l-220 -270h-138zM84 524l61 406q39 266 202.5 406.5t407.5 140.5q232 0 360 -147t90 -400l-61 -406q-41 -267 -205 -406t-408 -139q-232 0 -359 145.5t-88 399.5zM365 524q-26 -168 24 -246t175 -78q118 0 196 82t103 242l61 409 q24 165 -27.5 243t-175.5 78q-118 0 -195 -81.5t-100 -239.5z" />
<glyph unicode="&#x38e;" horiz-adv-x="1141" d="M-152 1276l101 275h254l3 -5l-220 -270h-138zM147 1456h308l155 -633l6 -1l346 634h308l-565 -937l-78 -519h-281l81 537z" />
<glyph unicode="&#x38f;" horiz-adv-x="1201" d="M37 0l33 223h225q-99 88 -146.5 232t-21.5 314l14 90q42 283 205 450.5t389 167.5q214 0 331.5 -174.5t77.5 -443.5l-14 -90q-27 -176 -115.5 -317.5t-210.5 -228.5h226l-33 -223h-441l33 223l1 5q76 38 132.5 168t93.5 373l14 92q29 196 -5 293t-122 92l-6 1 q-81 4 -147.5 -98t-93.5 -288l-14 -92q-39 -254 -20 -379t88 -162l-15 -103h-1l-18 -125h-439zM53 1276l101 275h254l3 -5l-220 -270h-138z" />
<glyph unicode="&#x390;" horiz-adv-x="609" d="M-1 1196l29 196h235l-29 -196h-235zM83 328l113 753h282l-113 -755q-11 -73 1 -99t50 -26q24 0 36.5 2.5t49.5 12.5l-5 -208q-45 -16 -83.5 -22.5t-87.5 -6.5q-137 0 -203.5 87.5t-39.5 261.5zM320 1415l78 272h261l-202 -272h-137zM481 1196l29 196h235l-29 -196h-235z " />
<glyph unicode="&#x391;" horiz-adv-x="1141" d="M-62 0l631 1456h292l195 -1456h-295l-35 315h-364l-130 -315h-294zM453 537h248l-52 460l-6 1z" />
<glyph unicode="&#x392;" horiz-adv-x="1142" d="M32 0l218 1456h417q220 0 336 -100.5t87 -296.5q-17 -107 -74.5 -186.5t-154.5 -117.5q114 -27 161 -119t30 -212q-34 -217 -169 -320.5t-363 -103.5h-488zM347 220h206q89 0 145.5 52t71.5 152q16 111 -20.5 166t-133.5 55h-206zM439 840h140q92 0 151 49.5t74 143.5 q16 108 -26.5 155t-143.5 47h-135z" />
<glyph unicode="&#x393;" horiz-adv-x="994" d="M30 0l218 1456h831l-33 -221h-548l-185 -1235h-283z" />
<glyph unicode="&#x394;" horiz-adv-x="1310" d="M-59 0l713 1456h293l271 -1456h-1277zM341 220h544l-141 841l-6 1z" />
<glyph unicode="&#x395;" horiz-adv-x="994" d="M32 0l218 1456h813l-33 -221h-531l-56 -372h445l-33 -220h-445l-63 -423h533l-33 -220h-815z" />
<glyph unicode="&#x396;" horiz-adv-x="966" d="M0 142l659 1093h-482l33 221h824l-20 -137l-662 -1099h562l-33 -220h-866z" />
<glyph unicode="&#x397;" horiz-adv-x="1257" d="M32 0l218 1456h282l-94 -629h469l94 629h281l-218 -1456h-281l91 607h-469l-91 -607h-282z" />
<glyph unicode="&#x398;" horiz-adv-x="1232" d="M84 524l61 406q39 266 202.5 406.5t407.5 140.5q232 0 360 -147t90 -400l-61 -406q-41 -267 -205 -406t-408 -139q-232 0 -359 145.5t-88 399.5zM365 524q-26 -168 24 -246t175 -78q118 0 196 82t103 242l61 409q24 165 -27.5 243t-175.5 78q-118 0 -195 -81.5 t-100 -239.5zM486 612l33 220h294l-33 -220h-294z" />
<glyph unicode="&#x399;" horiz-adv-x="538" d="M48 0l218 1456h281l-218 -1456h-281z" />
<glyph unicode="&#x39a;" horiz-adv-x="1142" d="M30 0l218 1456h283l-90 -598h77l330 598h368l-491 -722l288 -734h-324l-211 606h-75l-90 -606h-283z" />
<glyph unicode="&#x39b;" horiz-adv-x="1153" d="M-66 0l634 1456h293l198 -1456h-296l-93 1134v3l-6 1l-1 -3l-434 -1135h-295z" />
<glyph unicode="&#x39c;" horiz-adv-x="1499" d="M26 0l218 1456h367l110 -1080h6l434 1080h369l-218 -1456h-280l137 916l-6 2l-400 -918h-189l-125 911h-6l-136 -911h-281z" />
<glyph unicode="&#x39d;" horiz-adv-x="1256" d="M32 0l218 1456h282l323 -930h6l139 930h282l-218 -1456h-282l-323 929h-6l-139 -929h-282z" />
<glyph unicode="&#x39e;" horiz-adv-x="1015" d="M7 0l33 220h854l-33 -220h-854zM201 629l32 212h655l-32 -212h-655zM213 1235l33 221h794l-33 -221h-794z" />
<glyph unicode="&#x39f;" horiz-adv-x="1230" d="M84 524l61 406q39 266 202.5 406.5t407.5 140.5q232 0 360 -147t90 -400l-61 -406q-41 -267 -205 -406t-408 -139q-232 0 -359 145.5t-88 399.5zM365 524q-26 -168 24 -246t175 -78q118 0 196 82t103 242l61 409q24 165 -27.5 243t-175.5 78q-118 0 -195 -81.5 t-100 -239.5z" />
<glyph unicode="&#x3a0;" horiz-adv-x="1256" d="M31 0l218 1456h1033l-218 -1456h-281l185 1235h-470l-185 -1235h-282z" />
<glyph unicode="&#x3a1;" horiz-adv-x="1142" d="M32 0l218 1456h487q211 0 323.5 -130t82.5 -335q-34 -217 -178.5 -340.5t-366.5 -123.5h-205l-79 -527h-282zM426 748h205q91 0 153 69t77 172q17 111 -22 178.5t-135 67.5h-205z" />
<glyph unicode="&#x3a3;" horiz-adv-x="1015" d="M-10 0l21 142l458 597l-282 576l21 141h875l-33 -221h-515l233 -486l-2 -19l-388 -510h537l-33 -220h-892z" />
<glyph unicode="&#x3a4;" horiz-adv-x="1014" d="M135 1235l33 221h958l-33 -221h-342l-185 -1235h-283l185 1235h-333z" />
<glyph unicode="&#x3a5;" horiz-adv-x="1141" d="M147 1456h308l155 -633l6 -1l346 634h308l-565 -937l-78 -519h-281l81 537z" />
<glyph unicode="&#x3a6;" horiz-adv-x="1324" d="M76 717q35 238 188.5 381t374.5 159l30 199h282l-30 -200q204 -19 317.5 -166t80.5 -371q-35 -232 -187 -370.5t-370 -154.5l-29 -194h-282l29 194q-207 16 -322.5 159.5t-81.5 363.5zM352 717q-20 -128 23 -199t135 -79l6 1l85 568l-5 2q-90 -11 -158 -89t-86 -204z M799 443l5 -3q89 10 154.5 84t84.5 195q19 133 -22.5 207.5t-131.5 83.5l-5 -1z" />
<glyph unicode="&#x3a7;" horiz-adv-x="1141" d="M-53 0l481 734l-255 722h326l127 -515l6 -1l284 516h327l-470 -722l276 -734h-341l-135 525l-6 1l-292 -526h-328z" />
<glyph unicode="&#x3a8;" horiz-adv-x="1301" d="M105 945l76 511h281l-76 -511q-25 -162 9 -251t121 -106l6 1l130 867h281l-130 -865l6 -2q85 16 143.5 107t82.5 249l76 511h282l-76 -511q-42 -268 -186.5 -418.5t-363.5 -174.5l-52 -352h-281l52 351q-209 23 -315 179t-66 415z" />
<glyph unicode="&#x3a9;" horiz-adv-x="1201" d="M37 0l33 223h225q-99 88 -146.5 232t-21.5 314l14 90q42 283 205 450.5t389 167.5q214 0 331.5 -174.5t77.5 -443.5l-14 -90q-27 -176 -115.5 -317.5t-210.5 -228.5h226l-33 -223h-441l33 223l1 5q76 38 132.5 168t93.5 373l14 92q29 196 -5 293t-122 92l-6 1 q-81 4 -147.5 -98t-93.5 -288l-14 -92q-39 -254 -20 -379t88 -162l-15 -103h-1l-18 -125h-439z" />
<glyph unicode="&#x3aa;" horiz-adv-x="538" d="M48 0l218 1456h281l-218 -1456h-281zM69 1607l28 197h251l-28 -197h-251zM525 1607l28 197h250l-28 -197h-250z" />
<glyph unicode="&#x3ab;" horiz-adv-x="1141" d="M147 1456h308l155 -633l6 -1l346 634h308l-565 -937l-78 -519h-281l81 537zM376 1605l28 197h251l-28 -197h-251zM832 1605l28 197h250l-28 -197h-250z" />
<glyph unicode="&#x3ac;" horiz-adv-x="1006" d="M59 514l3 21q40 265 157 416t293 151q70 0 119 -39t79 -110l58 128h215l-113 -757q-11 -69 -1.5 -94.5t39.5 -25.5q11 0 18.5 1.5t15.5 5.5l-8 -207q-35 -14 -65 -19.5t-68 -5.5q-80 0 -134 36.5t-74 111.5q-51 -72 -113 -110t-138 -38q-166 0 -242.5 148t-40.5 387z M340 280q23 -81 108 -81q41 0 74 19.5t60 56.5q0 11 1.5 23.5t4.5 25.5l71 478q-15 37 -42 58t-66 21q-78 0 -131.5 -96.5t-76.5 -249.5l-3 -21q-23 -153 0 -234zM530 1216l101 275h254l3 -5l-220 -270h-138z" />
<glyph unicode="&#x3ad;" horiz-adv-x="1000" d="M51 304q14 95 70 159t150 95q-71 36 -106.5 97t-24.5 132q23 155 151 234t325 79q162 0 265.5 -89t77.5 -232l-2 -6h-273q8 58 -24 89.5t-91 31.5q-63 0 -103 -38t-48 -91q-9 -59 21 -90t95 -31h160l-19 -127h-1l-8 -55h-160q-69 0 -114.5 -33.5t-55.5 -103.5 q-10 -61 22 -100t104 -39q69 0 114.5 37.5t54.5 94.5h271l2 -6q-21 -167 -153 -249t-303 -82q-187 0 -303.5 87.5t-93.5 235.5zM508 1215l101 275h254l3 -5l-220 -270h-138z" />
<glyph unicode="&#x3ae;" d="M9 0l162 1082h263l-10 -143q57 78 130 120.5t155 42.5q133 0 198 -107.5t31 -337.5l-161 -1072h-282l161 1072q18 128 -3.5 176t-83.5 48q-45 0 -85.5 -23t-73.5 -64l-119 -794h-282zM494 1216l101 275h254l3 -5l-220 -270h-138z" />
<glyph unicode="&#x3af;" horiz-adv-x="609" d="M83 328l113 753h282l-113 -755q-11 -73 1 -99t50 -26q24 0 36.5 2.5t49.5 12.5l-5 -208q-45 -16 -83.5 -22.5t-87.5 -6.5q-137 0 -203.5 87.5t-39.5 261.5zM259 1194l101 275h254l3 -5l-220 -270h-138z" />
<glyph unicode="&#x3b0;" d="M86 473l91 609h282l-91 -611q-23 -150 5 -210.5t90 -54.5l6 -1q73 -5 125.5 100t75.5 254q17 132 15 263t-20 260h265q29 -105 36.5 -235t-15.5 -287q-42 -277 -162.5 -429t-348.5 -152q-195 0 -293.5 123t-60.5 371zM252 1197l29 196h235l-29 -196h-235zM573 1416 l78 272h261l-202 -272h-137zM734 1197l29 196h235l-29 -196h-235z" />
<glyph unicode="&#x3b1;" horiz-adv-x="1006" d="M59 514l3 21q40 265 157 416t293 151q70 0 119 -39t79 -110l58 128h215l-113 -757q-11 -69 -1.5 -94.5t39.5 -25.5q11 0 18.5 1.5t15.5 5.5l-8 -207q-35 -14 -65 -19.5t-68 -5.5q-80 0 -134 36.5t-74 111.5q-51 -72 -113 -110t-138 -38q-166 0 -242.5 148t-40.5 387z M340 280q23 -81 108 -81q41 0 74 19.5t60 56.5q0 11 1.5 23.5t4.5 25.5l71 478q-15 37 -42 58t-66 21q-78 0 -131.5 -96.5t-76.5 -249.5l-3 -21q-23 -153 0 -234z" />
<glyph unicode="&#x3b2;" horiz-adv-x="1077" d="M-19 -407l216 1440q30 204 171.5 324t325.5 120q183 0 282 -105.5t72 -288.5q-16 -105 -73.5 -188t-144.5 -129q97 -44 142 -137t27 -219q-33 -214 -149 -322.5t-298 -108.5q-59 0 -116.5 16.5t-104.5 51.5l-68 -454h-282zM361 246q27 -23 66.5 -35t89.5 -12 q74 0 130.5 60.5t70.5 153.5q17 118 -16 178.5t-113 60.5h-73l9 62l9 61l4 25l8 52h50q68 0 110.5 54.5t57.5 156.5q12 83 -14.5 138t-89.5 55q-64 0 -115.5 -61.5t-65.5 -161.5z" />
<glyph unicode="&#x3b3;" horiz-adv-x="921" d="M95 1082h297l32 -682l1 -82l6 -1l27 83l234 682h295l-466 -1073l-64 -426h-281l64 429z" />
<glyph unicode="&#x3b4;" d="M54 500l3 23q31 210 142 345t257 163h5.5t4.5 1l-207 248l26 176h709l-33 -220h-328l146 -196q93 -89 144.5 -211.5t28.5 -277.5l-4 -23q-38 -253 -176.5 -401t-349.5 -148q-204 0 -303.5 146t-64.5 375zM339 528q-23 -157 1 -243t115 -86q83 0 136 90.5t75 238.5l4 23 q23 154 -1.5 242t-113.5 88q-85 0 -138 -92.5t-74 -237.5z" />
<glyph unicode="&#x3b5;" horiz-adv-x="1000" d="M51 304q14 95 70 159t150 95q-71 36 -106.5 97t-24.5 132q23 155 151 234t325 79q162 0 265.5 -89t77.5 -232l-2 -6h-273q8 58 -24 89.5t-91 31.5q-63 0 -103 -38t-48 -91q-9 -59 21 -90t95 -31h160l-19 -127h-1l-8 -55h-160q-69 0 -114.5 -33.5t-55.5 -103.5 q-10 -61 22 -100t104 -39q69 0 114.5 37.5t54.5 94.5h271l2 -6q-21 -167 -153 -249t-303 -82q-187 0 -303.5 87.5t-93.5 235.5z" />
<glyph unicode="&#x3b6;" horiz-adv-x="901" d="M70 377q23 159 97.5 287.5t225.5 308.5l220 259l-2 5h-437l32 219h777l-23 -153l-371 -445q-110 -134 -162.5 -227t-70.5 -211q-16 -105 15 -155t113 -50h44q124 0 191 -72.5t48 -199.5q-20 -126 -114 -226t-240 -139l-64 190q58 26 95.5 62t46.5 88q5 41 -16.5 61.5 t-81.5 20.5h-38q-160 0 -234.5 111t-50.5 266z" />
<glyph unicode="&#x3b7;" d="M9 0l162 1082h263l-10 -143q57 78 130 120.5t155 42.5q133 0 198 -107.5t31 -337.5l-161 -1072h-282l161 1072q18 128 -3.5 176t-83.5 48q-45 0 -85.5 -23t-73.5 -64l-119 -794h-282z" />
<glyph unicode="&#x3b8;" horiz-adv-x="1061" d="M93 528l60 399q40 265 183 407.5t349 142.5q195 0 299.5 -148.5t66.5 -401.5l-60 -399q-40 -267 -182.5 -408t-346.5 -141q-197 0 -302.5 147.5t-66.5 401.5zM373 505q-23 -153 9 -229.5t113 -76.5q74 0 130.5 80t79.5 226l18 121h-332zM422 837h332l18 115 q22 150 -10.5 227t-110.5 77q-76 0 -133 -80.5t-78 -223.5z" />
<glyph unicode="&#x3b9;" horiz-adv-x="609" d="M83 328l113 753h282l-113 -755q-11 -73 1 -99t50 -26q24 0 36.5 2.5t49.5 12.5l-5 -208q-45 -16 -83.5 -22.5t-87.5 -6.5q-137 0 -203.5 87.5t-39.5 261.5z" />
<glyph unicode="&#x3ba;" horiz-adv-x="1073" d="M32 0l162 1082h281l-62 -413h68l271 413h351l3 -5l-388 -487l238 -590h-361l-131 407h-90l-61 -407h-281z" />
<glyph unicode="&#x3bb;" horiz-adv-x="951" d="M-71 0l477 1064l-31 110q-10 54 -39 88t-72 34q-12 0 -30 -2t-27 -4l25 205q45 12 73 17.5t64 5.5q137 0 199.5 -81t84.5 -192l178 -899q6 -54 24.5 -90t50.5 -43q9 -3 19.5 -3t24.5 1l-53 -213q-33 -6 -65 -8.5t-63 0.5q-112 10 -164 104t-72 221l-53 354l-6 1l-10 -30 l-233 -640h-302z" />
<glyph unicode="&#x3bc;" horiz-adv-x="1124" d="M-20 -416l224 1498h281l-93 -624l-3 -21q-19 -142 7 -188.5t97 -46.5q55 0 98 27.5t74 78.5l116 774h281l-162 -1082h-263l4 51q-41 -36 -89 -54t-101 -18q-38 0 -69 10t-56 29l-65 -434h-281z" />
<glyph unicode="&#x3bd;" horiz-adv-x="920" d="M95 1082h297l32 -682l1 -82l6 -1l27 83l234 682h295l-470 -1082h-275z" />
<glyph unicode="&#x3be;" horiz-adv-x="968" d="M76 423q21 140 101 232t214 136q-81 34 -120 92.5t-26 138.5q11 72 49.5 123t103.5 83h-177l34 228h747l-34 -228h-244q-81 -3 -131 -46t-60 -113q-12 -80 22 -122.5t121 -42.5h133l-24 -158h-1l-10 -70h-125q-123 0 -198.5 -65.5t-93.5 -191.5q-16 -99 21.5 -155 t119.5 -56h118q127 0 195.5 -70.5t48.5 -201.5q-22 -142 -111 -237t-243 -140l-51 167q50 25 91.5 62.5t50.5 94.5q7 48 -14 73.5t-74 25.5h-62q-195 0 -298.5 117t-72.5 324z" />
<glyph unicode="&#x3bf;" d="M58 528l4 23q37 253 175 402t351 149q202 0 300.5 -155t63.5 -396l-4 -23q-38 -253 -176.5 -401t-349.5 -148q-203 0 -301.5 154t-62.5 395zM339 528q-23 -157 1 -243t115 -86q83 0 136 90.5t75 238.5l4 23q23 154 -1.5 242t-113.5 88q-85 0 -138 -92.5t-74 -237.5z" />
<glyph unicode="&#x3c0;" horiz-adv-x="1215" d="M125 874l31 208h1007l-31 -208h-84l-82 -548q-11 -73 1 -99t50 -26q24 0 36.5 2.5t49.5 12.5l-5 -208q-45 -16 -83.5 -22.5t-87.5 -6.5q-137 0 -203.5 87.5t-39.5 261.5l82 546h-223l-131 -874h-281l131 874h-137z" />
<glyph unicode="&#x3c1;" d="M-48 -416l149 997h1l-1 1q36 242 172.5 381t343.5 139q192 0 282 -157.5t52 -409.5l-3 -21q-38 -251 -153 -393t-289 -142q-67 0 -116 28.5t-81 83.5l-76 -507h-281zM337 278q15 -39 46.5 -59t81.5 -20q79 0 129 85t72 230l3 21q24 162 2 252.5t-101 86.5h-6 q-65 5 -115 -87t-71 -231l-1 -1h1z" />
<glyph unicode="&#x3c2;" horiz-adv-x="909" d="M50 526l4 29q37 249 172 398t346 149q171 0 263 -112.5t63 -308.5h-263q14 94 -8.5 147t-87.5 53q-83 0 -133.5 -91.5t-71.5 -234.5l-4 -29q-23 -148 17 -220t154 -93q163 -29 231 -93.5t49 -195.5q-22 -125 -116 -224t-238 -138l-63 190q57 27 94.5 62t45.5 87 q6 43 -21 65t-90 35q-210 34 -294 166t-49 359z" />
<glyph unicode="&#x3c3;" horiz-adv-x="1026" d="M56 528l4 23q36 244 173 387.5t350 143.5q-583 -1082 -291.5 -541.5t292.5 540.5v1h496l-33 -221h-224q60 -66 89.5 -157t15.5 -190l-3 -23q-36 -233 -169 -372.5t-336 -139.5t-301.5 154t-62.5 395zM337 528q-23 -157 1 -242t113 -80l6 -1q72 -5 120 85t71 238l4 23 q21 145 0 227.5t-101 82.5q-84 0 -137 -87t-73 -223z" />
<glyph unicode="&#x3c4;" horiz-adv-x="942" d="M93 863l33 219h860l-33 -219h-290l-129 -863h-282l129 863h-288z" />
<glyph unicode="&#x3c5;" d="M86 473l91 609h282l-91 -611q-23 -150 5 -210.5t90 -54.5l6 -1q73 -5 125.5 100t75.5 254q17 132 15 263t-20 260h265q29 -105 36.5 -235t-15.5 -287q-42 -277 -162.5 -429t-348.5 -152q-195 0 -293.5 123t-60.5 371z" />
<glyph unicode="&#x3c6;" horiz-adv-x="1351" d="M50 592q22 153 69.5 271t114.5 219h257q-59 -130 -100 -251t-60 -239q-23 -148 9.5 -241t134.5 -120h6l127 851h282q228 0 332.5 -165.5t73.5 -378.5q-35 -227 -171.5 -374t-399.5 -177l-69 -465h-282l70 469q-239 40 -334 205t-60 396zM762 228l5 -3q107 25 167.5 107.5 t79.5 205.5q19 142 -19 231t-134 83l-6 -1z" />
<glyph unicode="&#x3c7;" horiz-adv-x="951" d="M-91 -415l432 768l-85 403q-9 56 -44.5 88t-84.5 32q-11 0 -28.5 -2t-26.5 -4l25 205q41 11 70.5 16.5t65.5 5.5q138 0 201 -80.5t83 -189.5l23 -109l6 -1l205 365h286l-418 -734l90 -420q6 -52 24.5 -88t49.5 -45q9 -2 20.5 -2h23.5l-52 -214q-30 -7 -63 -9t-65 1 q-99 10 -145 104t-65 223l-18 87l-6 1l-228 -401h-276z" />
<glyph unicode="&#x3c8;" horiz-adv-x="1349" d="M64 589l74 493h282l-74 -496q-25 -160 11 -246t117 -108h6l127 849h282l-127 -846l6 -2q104 31 167.5 128t84.5 235q16 117 11 237t-25 249h257q36 -98 48.5 -219t-9.5 -267q-38 -251 -176.5 -413.5t-400.5 -195.5l-69 -459h-282l69 463q-213 36 -316 184.5t-63 413.5z " />
<glyph unicode="&#x3c9;" horiz-adv-x="1528" d="M70 560q24 162 78.5 287.5t133.5 234.5h265q-73 -131 -123 -261.5t-73 -261.5q-25 -162 -10 -260t86 -92l6 -1q54 -6 103 64.5t72 221.5l52 349h298l-52 -349q-24 -159 3 -225.5t88 -59.5l6 -1q64 -5 110.5 96.5t70.5 256.5q16 134 5.5 265t-45.5 258h265 q45 -104 62 -234.5t-6 -287.5q-42 -278 -157 -429.5t-333 -151.5q-95 0 -162.5 52.5t-98.5 152.5q-60 -103 -143 -154t-184 -51q-209 0 -283 158.5t-34 422.5z" />
<glyph unicode="&#x3ca;" horiz-adv-x="609" d="M19 1263l28 197h251l-28 -197h-251zM83 328l113 753h282l-113 -755q-11 -73 1 -99t50 -26q24 0 36.5 2.5t49.5 12.5l-5 -208q-45 -16 -83.5 -22.5t-87.5 -6.5q-137 0 -203.5 87.5t-39.5 261.5zM475 1263l28 197h250l-28 -197h-250z" />
<glyph unicode="&#x3cb;" d="M86 473l91 609h282l-91 -611q-23 -150 5 -210.5t90 -54.5l6 -1q73 -5 125.5 100t75.5 254q17 132 15 263t-20 260h265q29 -105 36.5 -235t-15.5 -287q-42 -277 -162.5 -429t-348.5 -152q-195 0 -293.5 123t-60.5 371zM272 1264l28 197h251l-28 -197h-251zM728 1264 l28 197h250l-28 -197h-250z" />
<glyph unicode="&#x3cc;" d="M58 528l4 23q37 253 175 402t351 149q202 0 300.5 -155t63.5 -396l-4 -23q-38 -253 -176.5 -401t-349.5 -148q-203 0 -301.5 154t-62.5 395zM339 528q-23 -157 1 -243t115 -86q83 0 136 90.5t75 238.5l4 23q23 154 -1.5 242t-113.5 88q-85 0 -138 -92.5t-74 -237.5z M494 1216l101 275h254l3 -5l-220 -270h-138z" />
<glyph unicode="&#x3cd;" d="M86 473l91 609h282l-91 -611q-23 -150 5 -210.5t90 -54.5l6 -1q73 -5 125.5 100t75.5 254q17 132 15 263t-20 260h265q29 -105 36.5 -235t-15.5 -287q-42 -277 -162.5 -429t-348.5 -152q-195 0 -293.5 123t-60.5 371zM512 1195l101 275h254l3 -5l-220 -270h-138z" />
<glyph unicode="&#x3ce;" horiz-adv-x="1528" d="M70 560q24 162 78.5 287.5t133.5 234.5h265q-73 -131 -123 -261.5t-73 -261.5q-25 -162 -10 -260t86 -92l6 -1q54 -6 103 64.5t72 221.5l52 349h298l-52 -349q-24 -159 3 -225.5t88 -59.5l6 -1q64 -5 110.5 96.5t70.5 256.5q16 134 5.5 265t-45.5 258h265 q45 -104 62 -234.5t-6 -287.5q-42 -278 -157 -429.5t-333 -151.5q-95 0 -162.5 52.5t-98.5 152.5q-60 -103 -143 -154t-184 -51q-209 0 -283 158.5t-34 422.5zM754 1195l101 275h254l3 -5l-220 -270h-138z" />
<glyph unicode="&#x3d1;" horiz-adv-x="1242" d="M113 545l106 707l298 2l-106 -709q-23 -148 27.5 -242.5t154.5 -94.5q101 0 170.5 85t95.5 249q-161 15 -252.5 130t-64.5 291l16 106q27 183 144 295.5t266 112.5q154 0 225.5 -105t41.5 -303l-78 -524q-39 -255 -207 -410.5t-391 -155.5q-240 0 -362.5 155.5 t-83.5 410.5zM808 961q-13 -79 9 -135.5t69 -66.5l6 1l51 338q9 66 1.5 99.5t-28.5 27.5l-6 1q-27 5 -49 -27t-32 -101z" />
<glyph unicode="&#x3d2;" horiz-adv-x="1068" d="M126 1246l13 216q17 9 39.5 13.5t50.5 4.5q117 0 178 -60.5t91 -212.5l63 -387l2 -68l6 -1l23 69l177 380q78 155 155 217.5t198 62.5q25 0 47 -4.5t39 -13.5l-54 -216q-3 1 -17.5 3t-23.5 2q-31 0 -58.5 -29.5t-46.5 -79.5l-347 -668l-71 -474h-281l73 490l-141 652 q-4 51 -22 80t-49 29q-9 0 -25.5 -2t-18.5 -3z" />
<glyph unicode="&#x3d6;" horiz-adv-x="1489" d="M69 908l26 174h1470l-26 -174h-119q14 -78 15 -165t-13 -183q-42 -278 -151.5 -429.5t-314.5 -151.5q-94 0 -161.5 52t-98.5 153q-60 -103 -143 -154t-184 -51q-196 0 -264.5 159t-28.5 422q14 99 41 185t64 163h-112zM341.5 299q9.5 -98 68.5 -91l6 -2q53 -6 102 64.5 t72 221.5l31 207h298l-31 -207q-24 -158 2.5 -225t85.5 -60h6q54 -6 94.5 95t64.5 257q11 87 10 174.5t-12 174.5h-675q-38 -87 -65 -174.5t-42 -174.5q-25 -162 -15.5 -260z" />
<glyph unicode="&#x400;" horiz-adv-x="994" d="M32 0l218 1456h813l-33 -221h-531l-56 -372h445l-33 -220h-445l-63 -423h533l-33 -220h-815zM352 1861l3 5h313l141 -266h-246z" />
<glyph unicode="&#x401;" horiz-adv-x="994" d="M32 0l218 1456h813l-33 -221h-531l-56 -372h445l-33 -220h-445l-63 -423h533l-33 -220h-815zM320 1607l28 197h251l-28 -197h-251zM776 1607l28 197h250l-28 -197h-250z" />
<glyph unicode="&#x402;" horiz-adv-x="1360" d="M155 1235l33 221h958l-33 -221h-342l-48 -319h247q228 0 353.5 -124.5t90.5 -360.5q-17 -131 -120.5 -265t-266.5 -194l-95 180q81 47 133 116t67 163q19 131 -31.5 196.5t-163.5 65.5h-247l-104 -693h-283l185 1235h-333z" />
<glyph unicode="&#x403;" horiz-adv-x="994" d="M30 0l218 1456h831l-33 -221h-548l-185 -1235h-283zM546 1605l213 261h314l2 -6l-289 -260h-237z" />
<glyph unicode="&#x404;" horiz-adv-x="1108" d="M99 512l65 432q39 264 191.5 399t382.5 135t345 -117.5t76 -350.5l-2 -5h-275q21 146 -19.5 199t-157.5 53q-102 0 -169 -77.5t-90 -233.5l-16 -104h341l-33 -222h-341l-16 -108q-25 -165 20.5 -238.5t161.5 -73.5q102 0 157.5 56t77.5 197h272l2 -6q-32 -243 -171 -355 t-371 -112q-227 0 -348 139.5t-83 392.5z" />
<glyph unicode="&#x405;" horiz-adv-x="1107" d="M63 447l2 5h276q-22 -142 24 -199.5t156 -57.5q88 0 142.5 50.5t67.5 132.5q13 90 -23 138.5t-146 97.5q-212 79 -310 179t-71 280q27 186 171.5 295t347.5 109q204 0 318.5 -121t80.5 -322l-2 -5h-275q17 117 -24 173.5t-136 56.5q-77 0 -132.5 -54t-66.5 -133 q-12 -77 31 -123t161 -104q201 -70 292.5 -177t65.5 -288q-30 -195 -170.5 -298t-353.5 -103q-201 0 -333.5 116.5t-92.5 351.5z" />
<glyph unicode="&#x406;" horiz-adv-x="538" d="M48 0l218 1456h281l-218 -1456h-281z" />
<glyph unicode="&#x407;" horiz-adv-x="538" d="M48 0l218 1456h281l-218 -1456h-281zM69 1607l28 197h251l-28 -197h-251zM525 1607l28 197h250l-28 -197h-250z" />
<glyph unicode="&#x408;" horiz-adv-x="994" d="M13 427l2 5h274q-19 -124 17.5 -178.5t111.5 -54.5q56 0 105 68.5t67 185.5l150 1003h282l-150 -1003q-34 -225 -168 -349.5t-319 -124.5q-199 0 -303.5 115.5t-68.5 332.5z" />
<glyph unicode="&#x409;" horiz-adv-x="1871" d="M-39 0l33 220h34q121 0 184.5 125t111.5 455l95 656h864l-77 -512h193q210 0 325.5 -134t85.5 -338q-33 -216 -182.5 -344t-370.5 -128h-474l185 1235h-299l-62 -435q-63 -426 -214.5 -613t-395.5 -187h-36zM1098 220h192q91 0 157.5 74.5t82.5 179.5q15 106 -27 177.5 t-138 71.5h-192z" />
<glyph unicode="&#x40a;" horiz-adv-x="1871" d="M31 0l218 1456h283l-93 -623h468l93 623h282l-79 -523h193q210 0 326.5 -132t86.5 -334q-32 -213 -182 -340t-371 -127h-474l92 613h-468l-92 -613h-283zM1097 222h192q91 0 157.5 72.5t81.5 174.5q15 105 -27 174.5t-138 69.5h-193z" />
<glyph unicode="&#x40b;" horiz-adv-x="1417" d="M171 1235l33 221h958l-33 -221h-342l-39 -260h145q224 0 335 -120t75 -364l-74 -491h-282l74 491q22 154 -14 209t-147 55h-145l-113 -755h-283l185 1235h-333z" />
<glyph unicode="&#x40c;" horiz-adv-x="1142" d="M30 0l218 1456h283l-90 -598h77l330 598h368l-491 -722l288 -734h-324l-211 606h-75l-90 -606h-283zM527 1517l213 261h314l2 -6l-289 -260h-237z" />
<glyph unicode="&#x40d;" horiz-adv-x="1241" d="M21 0l218 1456h281l-138 -918l6 -2l600 920h283l-218 -1456h-283l137 916l-6 2l-599 -918h-281zM447 1861l3 5h313l141 -266h-246z" />
<glyph unicode="&#x40e;" horiz-adv-x="1139" d="M57 22l62 204q36 -14 62 -20.5t56 -6.5q67 0 108 37t71 110l24 53l-283 1057h303l142 -667l4 -35l6 -1l351 703h296l-626 -1176q-79 -143 -168.5 -222t-228.5 -79q-51 0 -88.5 10.5t-90.5 32.5zM451 1889l3 6h205q-9 -56 12.5 -89.5t78.5 -33.5q51 0 82.5 35t39.5 88h207 l2 -6q-15 -133 -111.5 -210.5t-243.5 -77.5q-142 0 -220 81t-55 207z" />
<glyph unicode="&#x40f;" horiz-adv-x="1242" d="M17 0l218 1456h282l-185 -1236h469l185 1236h282l-218 -1456h-363l-54 -358h-282l54 358h-388z" />
<glyph unicode="&#x410;" horiz-adv-x="1141" d="M-62 0l631 1456h292l195 -1456h-295l-35 315h-364l-130 -315h-294zM453 537h248l-52 460l-6 1z" />
<glyph unicode="&#x411;" horiz-adv-x="1116" d="M30 0l218 1456h831l-33 -221h-548l-44 -293h192q211 0 327.5 -133t86.5 -337q-33 -216 -183 -344t-372 -128h-475zM346 220h192q91 0 157.5 74.5t82.5 179.5q15 106 -27 176.5t-138 70.5h-192l-16 -105z" />
<glyph unicode="&#x412;" horiz-adv-x="1142" d="M32 0l218 1456h417q220 0 336 -100.5t87 -296.5q-17 -107 -74.5 -186.5t-154.5 -117.5q114 -27 161 -119t30 -212q-34 -217 -169 -320.5t-363 -103.5h-488zM347 220h206q89 0 145.5 52t71.5 152q16 111 -20.5 166t-133.5 55h-206zM439 840h140q92 0 151 49.5t74 143.5 q16 108 -26.5 155t-143.5 47h-135z" />
<glyph unicode="&#x413;" horiz-adv-x="994" d="M30 0l218 1456h831l-33 -221h-548l-185 -1235h-283z" />
<glyph unicode="&#x414;" horiz-adv-x="1262" d="M-124 -357l87 577h74q90 0 152.5 154t124.5 498l114 584h838l-185 -1236h149l-87 -577h-282l54 357h-704l-54 -357h-281zM367 220h432l152 1015h-284l-71 -363q-42 -219 -99 -381.5t-130 -270.5z" />
<glyph unicode="&#x415;" horiz-adv-x="994" d="M32 0l218 1456h813l-33 -221h-531l-56 -372h445l-33 -220h-445l-63 -423h533l-33 -220h-815z" />
<glyph unicode="&#x416;" horiz-adv-x="1665" d="M-73 0l507 796l-272 660h351l172 -598h60l90 598h282l-90 -598h59l341 598h350l-461 -657l261 -799h-351l-158 609h-78l-91 -609h-282l91 609h-82l-347 -609h-352z" />
<glyph unicode="&#x417;" horiz-adv-x="1167" d="M60 398l2 6h273q-15 -91 35.5 -148t142.5 -57q106 0 181 59t89 151q18 123 -29 174.5t-160 51.5h-173l22 148h1l10 67h173q100 0 160 55.5t75 153.5q13 88 -35 142.5t-156 54.5q-80 0 -143.5 -53.5t-75.5 -138.5h-273l-2 6q23 189 174.5 298t353.5 109q223 0 345 -109 t93 -306q-16 -105 -85 -188.5t-176 -129.5q104 -43 152.5 -130t30.5 -209q-32 -208 -190.5 -317t-394.5 -109q-193 0 -324.5 108t-95.5 311z" />
<glyph unicode="&#x418;" horiz-adv-x="1241" d="M21 0l218 1456h281l-138 -918l6 -2l600 920h283l-218 -1456h-283l137 916l-6 2l-599 -918h-281z" />
<glyph unicode="&#x419;" horiz-adv-x="1241" d="M21 0l218 1456h281l-138 -918l6 -2l600 920h283l-218 -1456h-283l137 916l-6 2l-599 -918h-281zM496 1889l3 6h205q-9 -56 12.5 -89.5t78.5 -33.5q51 0 82.5 35t39.5 88h207l2 -6q-15 -133 -111.5 -210.5t-243.5 -77.5q-142 0 -220 81t-55 207z" />
<glyph unicode="&#x41a;" horiz-adv-x="1142" d="M30 0l218 1456h283l-90 -598h77l330 598h368l-491 -722l288 -734h-324l-211 606h-75l-90 -606h-283z" />
<glyph unicode="&#x41b;" horiz-adv-x="1257" d="M-38 0l33 220h34q113 0 170 123t106 457l95 656h883l-218 -1456h-282l185 1235h-318l-62 -435q-62 -427 -207.5 -613.5t-382.5 -186.5h-36z" />
<glyph unicode="&#x41c;" horiz-adv-x="1499" d="M26 0l218 1456h367l110 -1080h6l434 1080h369l-218 -1456h-280l137 916l-6 2l-400 -918h-189l-125 911h-6l-136 -911h-281z" />
<glyph unicode="&#x41d;" horiz-adv-x="1257" d="M32 0l218 1456h282l-94 -629h469l94 629h281l-218 -1456h-281l91 607h-469l-91 -607h-282z" />
<glyph unicode="&#x41e;" horiz-adv-x="1230" d="M84 524l61 406q39 266 202.5 406.5t407.5 140.5q232 0 360 -147t90 -400l-61 -406q-41 -267 -205 -406t-408 -139q-232 0 -359 145.5t-88 399.5zM365 524q-26 -168 24 -246t175 -78q118 0 196 82t103 242l61 409q24 165 -27.5 243t-175.5 78q-118 0 -195 -81.5 t-100 -239.5z" />
<glyph unicode="&#x41f;" horiz-adv-x="1256" d="M31 0l218 1456h1033l-218 -1456h-281l185 1235h-470l-185 -1235h-282z" />
<glyph unicode="&#x420;" horiz-adv-x="1142" d="M32 0l218 1456h487q211 0 323.5 -130t82.5 -335q-34 -217 -178.5 -340.5t-366.5 -123.5h-205l-79 -527h-282zM426 748h205q91 0 153 69t77 172q17 111 -22 178.5t-135 67.5h-205z" />
<glyph unicode="&#x421;" horiz-adv-x="1133" d="M82 511l64 432q40 264 192.5 399t382.5 135t345 -117.5t76 -350.5l-2 -5h-275q21 146 -19.5 199t-158.5 53q-102 0 -168.5 -77.5t-89.5 -233.5l-65 -434q-25 -165 20.5 -238.5t161.5 -73.5q102 0 157.5 56t77.5 197h272l2 -6q-32 -243 -171 -355t-371 -112 q-227 0 -348 139.5t-83 392.5z" />
<glyph unicode="&#x422;" horiz-adv-x="1014" d="M135 1235l33 221h958l-33 -221h-342l-185 -1235h-283l185 1235h-333z" />
<glyph unicode="&#x423;" horiz-adv-x="1139" d="M57 22l62 204q36 -14 62 -20.5t56 -6.5q67 0 108 37t71 110l24 53l-283 1057h303l142 -667l4 -35l6 -1l351 703h296l-626 -1176q-79 -143 -168.5 -222t-228.5 -79q-51 0 -88.5 10.5t-90.5 32.5z" />
<glyph unicode="&#x424;" horiz-adv-x="1324" d="M76 717q35 238 188.5 381t374.5 159l30 199h282l-30 -200q204 -19 317.5 -166t80.5 -371q-35 -232 -187 -370.5t-370 -154.5l-29 -194h-282l29 194q-207 16 -322.5 159.5t-81.5 363.5zM352 717q-20 -128 23 -199t135 -79l6 1l85 568l-5 2q-90 -11 -158 -89t-86 -204z M799 443l5 -3q89 10 154.5 84t84.5 195q19 133 -22.5 207.5t-131.5 83.5l-5 -1z" />
<glyph unicode="&#x425;" horiz-adv-x="1141" d="M-53 0l481 734l-255 722h326l127 -515l6 -1l284 516h327l-470 -722l276 -734h-341l-135 525l-6 1l-292 -526h-328z" />
<glyph unicode="&#x426;" horiz-adv-x="1367" d="M208 0l218 1456h281l-185 -1235h462l1 2h7l185 1233h282l-218 -1456h-9l-53 -358h-281l53 358h-743z" />
<glyph unicode="&#x427;" horiz-adv-x="1245" d="M192 1015l66 441h282l-66 -441q-23 -151 20 -204.5t159 -53.5q43 0 112.5 8t124.5 22l100 669h281l-218 -1456h-281l85 567q-56 -14 -124.5 -22t-112.5 -8q-228 0 -346 118.5t-82 359.5z" />
<glyph unicode="&#x428;" horiz-adv-x="1847" d="M28 0l218 1456h282l-185 -1236h397l185 1236h281l-185 -1236h392l185 1236h282l-218 -1456h-1634z" />
<glyph unicode="&#x429;" horiz-adv-x="2005" d="M28 0l218 1456h282l-185 -1236h397l185 1236h281l-185 -1236h392l185 1236h282l-188 -1251h217l-83 -552h-281l52 347h-1569z" />
<glyph unicode="&#x42a;" horiz-adv-x="1275" d="M120 1236l33 220h541l-77 -514h192q211 0 327.5 -133t86.5 -337q-33 -216 -183 -344t-372 -128h-475l185 1236h-258zM509 220h192q91 0 157.5 74.5t82.5 179.5q15 106 -27 176.5t-138 70.5h-192z" />
<glyph unicode="&#x42b;" horiz-adv-x="1555" d="M30 0l218 1456h283l-77 -514h192q211 0 327.5 -133t86.5 -337q-33 -216 -183 -344t-372 -128h-475zM346 220h192q91 0 157.5 74.5t82.5 179.5q15 106 -27 176.5t-138 70.5h-192zM1246 0l218 1456h281l-218 -1456h-281z" />
<glyph unicode="&#x42c;" horiz-adv-x="1120" d="M30 0l218 1456h283l-77 -514h192q211 0 327.5 -133t86.5 -337q-33 -216 -183 -344t-372 -128h-475zM346 220h192q91 0 157.5 74.5t82.5 179.5q15 106 -27 176.5t-138 70.5h-192z" />
<glyph unicode="&#x42d;" horiz-adv-x="1105" d="M54 480h282q-23 -153 9.5 -216.5t137.5 -63.5q97 0 166.5 105.5t95.5 277.5l6 43h-357l33 221h358l4 25q27 181 -9 283t-138 102q-99 0 -154.5 -68.5t-76.5 -214.5h-274l-2 6q33 247 172 372.5t368 125.5q211 0 322.5 -170t72.5 -436l-43 -287q-42 -280 -198.5 -442.5 t-378.5 -162.5q-219 0 -326 129t-70 371z" />
<glyph unicode="&#x42e;" horiz-adv-x="1695" d="M48 0l218 1456h281l-94 -627h157l15 101q39 266 202.5 406.5t407.5 140.5q232 0 360 -147t90 -400l-61 -406q-41 -267 -205 -406t-408 -139q-232 0 -359 145.5t-88 399.5l12 84h-156l-91 -608h-281zM845 524q-26 -168 24 -246t175 -78q118 0 196 82t103 242l61 409 q24 165 -27.5 243t-175.5 78q-118 0 -195 -81.5t-100 -239.5z" />
<glyph unicode="&#x42f;" horiz-adv-x="1047" d="M-120 0l366 658q-86 57 -120 147t-14 216q30 205 175.5 320t357.5 115h445l-218 -1456h-283l84 562h-176l-312 -562h-305zM392 1008q-16 -106 24.5 -172.5t130.5 -66.5h157l70 466h-162q-93 0 -148 -57.5t-72 -169.5z" />
<glyph unicode="&#x430;" horiz-adv-x="957" d="M12 303q24 164 140.5 248.5t326.5 84.5h123l14 90q12 83 -11 125.5t-83 42.5q-50 0 -83.5 -35.5t-42.5 -99.5l-272 1l-1 6q16 145 140.5 240.5t307.5 95.5q164 0 258.5 -98.5t68.5 -279.5l-67 -444q-12 -80 -11 -146t14 -134h-280q-10 37 -14.5 79t-2.5 85 q-48 -81 -114.5 -133t-151.5 -52q-142 0 -211 87.5t-48 236.5zM295 314q-9 -59 12.5 -92.5t67.5 -33.5q54 0 104.5 35.5t73.5 84.5l25 168h-123q-68 0 -109 -46.5t-51 -115.5z" />
<glyph unicode="&#x431;" horiz-adv-x="1004" d="M55 528l2 12l40 269q51 333 175 478t350 152q110 2 165 29t65 89h217l2 -6q-25 -196 -133.5 -265t-326.5 -73q-124 -3 -193 -61t-76 -157l3 -5q50 49 119.5 80.5t143.5 31.5q192 0 284 -155t57 -396l-4 -23q-38 -253 -176 -401t-350 -148q-203 0 -301.5 154t-62.5 395z M337 528q-23 -156 1 -242.5t114 -86.5q84 0 137 90.5t75 238.5l4 23q23 154 -1.5 242t-114.5 88q-84 0 -137 -92.5t-74 -237.5z" />
<glyph unicode="&#x432;" d="M29 0l162 1082h398q182 0 278.5 -76.5t74.5 -223.5q-13 -80 -67 -139.5t-144 -88.5q110 -24 157.5 -90t34.5 -157q-24 -158 -133.5 -232.5t-301.5 -74.5h-459zM343 218h178q54 0 84.5 29.5t39.5 87.5q9 59 -10 89t-79 30h-177zM406 637h124q55 0 86 27t40 81 q9 64 -15.5 91t-84.5 27h-116z" />
<glyph unicode="&#x433;" horiz-adv-x="749" d="M9 0l162 1082h649l-33 -221h-367l-129 -861h-282z" />
<glyph unicode="&#x434;" horiz-adv-x="1215" d="M-63 -357l87 577h59l28 1q65 0 107 96t84 322l85 443h716l-129 -862h134l-87 -577h-281l54 357h-520l-54 -357h-283zM449 220h244l96 637h-164l-41 -218q-27 -136 -60 -240t-75 -179z" />
<glyph unicode="&#x435;" horiz-adv-x="937" d="M54 508l6 41q38 254 173 403.5t343 149.5q183 0 269 -132.5t53 -354.5l-23 -154h-546q-12 -123 25 -192.5t137 -69.5q81 0 143 20t131 61l47 -176q-66 -53 -170.5 -89t-216.5 -36q-205 0 -305.5 149.5t-65.5 379.5zM359 647h268l4 25q15 103 -4 156t-84 53 q-68 0 -113.5 -63t-70.5 -171z" />
<glyph unicode="&#x436;" horiz-adv-x="1478" d="M-62 0l375 591l5 -3l5 3l-213 491h357l106 -411h44l62 411h280l-62 -411h49l229 411h356l-360 -490l3 -4l7 3l196 -591h-360l-94 409h-65l-61 -409h-280l61 409h-61l-218 -409h-361z" />
<glyph unicode="&#x437;" horiz-adv-x="1000" d="M47 312l2 6h273q-10 -60 21 -96t104 -36q67 0 111 40t53 99q10 74 -22.5 107t-102.5 33h-148l18 121l8 55h148q59 0 98.5 33.5t48.5 90.5q8 56 -17 92.5t-90 36.5q-57 0 -98.5 -32.5t-49.5 -88.5h-271l-2 6q17 150 141 235.5t295 85.5q186 0 292 -82.5t84 -230.5 q-12 -76 -63.5 -137t-131.5 -95q79 -33 116 -97.5t24 -153.5q-24 -156 -158.5 -239.5t-330.5 -83.5q-162 0 -271.5 85.5t-80.5 245.5z" />
<glyph unicode="&#x438;" d="M9 0l162 1082h282l-91 -605l6 -2l353 607h282l-162 -1082h-282l91 604l-6 2l-353 -606h-282z" />
<glyph unicode="&#x439;" d="M9 0l162 1082h282l-91 -605l6 -2l353 607h282l-162 -1082h-282l91 604l-6 2l-353 -606h-282zM334 1546l3 6h205q-9 -56 12.5 -89.5t78.5 -33.5q51 0 82.5 35t39.5 88h207l2 -6q-15 -133 -111.5 -210.5t-243.5 -77.5q-142 0 -220 81t-55 207z" />
<glyph unicode="&#x43a;" horiz-adv-x="1033" d="M32 0l162 1082h281l-62 -413h68l240 413h358l-367 -487l4 -5l2 1l224 -591h-377l-104 407h-87l-61 -407h-281z" />
<glyph unicode="&#x43b;" horiz-adv-x="1006" d="M-61 0l29 224h26q81 0 117 81t71 313l69 464h752l-162 -1082h-282l129 861h-188l-36 -243q-50 -332 -159 -475t-326 -143h-40z" />
<glyph unicode="&#x43c;" horiz-adv-x="1362" d="M30 0l162 1082h348l98 -749l5 -1l325 750h354l-162 -1082h-282l87 583l-6 1l-274 -584h-188l-95 561h-6l-84 -561h-282z" />
<glyph unicode="&#x43d;" d="M9 0l162 1082h282l-66 -439h264l66 439h283l-162 -1082h-283l63 424h-264l-63 -424h-282z" />
<glyph unicode="&#x43e;" d="M58 528l4 23q37 253 175 402t351 149q202 0 300.5 -155t63.5 -396l-4 -23q-38 -253 -176.5 -401t-349.5 -148q-203 0 -301.5 154t-62.5 395zM339 528q-23 -157 1 -243t115 -86q83 0 136 90.5t75 238.5l4 23q23 154 -1.5 242t-113.5 88q-85 0 -138 -92.5t-74 -237.5z" />
<glyph unicode="&#x43f;" d="M9 0l162 1082h832l-162 -1082h-283l129 861h-267l-129 -861h-282z" />
<glyph unicode="&#x440;" d="M-48 -416l224 1498h258l-4 -111q49 63 109 97t133 34q167 0 242.5 -157.5t37.5 -409.5l-3 -21q-38 -251 -153.5 -393t-289.5 -142q-67 0 -116 29.5t-81 85.5l-76 -510h-281zM337 277q15 -38 46.5 -58t81.5 -20q79 0 129.5 85t72.5 230l3 21q24 160 0.5 252.5t-104.5 92.5 q-47 0 -85.5 -25.5t-68.5 -71.5z" />
<glyph unicode="&#x441;" horiz-adv-x="921" d="M52 526l4 29q37 249 172 398t348 149q169 0 260 -114.5t63 -306.5h-263q14 93 -9 146.5t-84 53.5q-84 0 -134 -91t-71 -235l-4 -29q-24 -156 -3 -241.5t111 -85.5q58 0 96.5 45t51.5 127h255l2 -6q-23 -176 -146 -281t-292 -105q-203 0 -298 154.5t-59 392.5z" />
<glyph unicode="&#x442;" horiz-adv-x="939" d="M92 863l33 219h860l-33 -219h-291l-129 -863h-282l129 863h-287z" />
<glyph unicode="&#x443;" horiz-adv-x="920" d="M-56 -414l65 207q12 -2 21.5 -4t19.5 -2q59 0 98.5 35t62.5 88l39 83l-163 1089h303l40 -645l6 -1l258 646h303l-559 -1245q-58 -116 -139.5 -195t-223.5 -79q-32 0 -59.5 5.5t-71.5 17.5z" />
<glyph unicode="&#x444;" horiz-adv-x="1544" d="M48 514l3 21q40 265 156.5 416t292.5 151q64 0 111.5 -30t80.5 -85l86 573h282l-85 -568q48 53 104 81.5t123 28.5q168 0 243.5 -157.5t37.5 -409.5l-3 -21q-38 -251 -153.5 -393t-290.5 -142q-66 0 -115 28.5t-81 82.5l-76 -506h-282l74 499q-47 -51 -103.5 -77.5 t-122.5 -26.5q-165 0 -241.5 148t-40.5 387zM328 514q-23 -153 0.5 -234t107.5 -81q47 0 84 20t66 60l77 515q-17 42 -47.5 64.5t-76.5 22.5q-78 0 -131.5 -96.5t-76.5 -249.5zM868 275q16 -38 47.5 -57t80.5 -19q78 0 129 85.5t73 229.5l3 21q24 161 0.5 253.5t-105.5 92.5 q-46 0 -84 -25t-68 -70z" />
<glyph unicode="&#x445;" horiz-adv-x="920" d="M-64 0l364 547l-194 535h315l65 -346l6 -1l173 347h318l-353 -535l200 -547h-317l-73 356l-6 1l-180 -357h-318z" />
<glyph unicode="&#x446;" horiz-adv-x="1100" d="M9 0l162 1082h282l-129 -862h267l129 862h283l-129 -862h144l-87 -577h-281l54 357h-695z" />
<glyph unicode="&#x447;" horiz-adv-x="1004" d="M119 749l50 333h281l-50 -333q-18 -118 12.5 -156.5t122.5 -38.5q25 0 50 3.5t53 10.5l77 514h283l-162 -1082h-283l52 346q-28 -6 -54.5 -9t-48.5 -3q-207 0 -311 101.5t-72 313.5z" />
<glyph unicode="&#x448;" horiz-adv-x="1481" d="M9 0l162 1082h282l-129 -862h220l129 862h283l-129 -862h221l129 862h281l-162 -1082h-1287z" />
<glyph unicode="&#x449;" horiz-adv-x="1645" d="M9 0l162 1082h282l-129 -862h220l129 862h283l-129 -862h221l129 862h281l-134 -896h217l-76 -507h-291l48 321h-1213z" />
<glyph unicode="&#x44a;" horiz-adv-x="1136" d="M64 861l33 221h576l-52 -349h155q185 0 285.5 -102.5t76.5 -263.5q-26 -171 -151.5 -269t-320.5 -98h-438l129 861h-293zM544 218h155q65 0 106.5 42t51.5 107q9 65 -18 105.5t-96 40.5h-155z" />
<glyph unicode="&#x44b;" horiz-adv-x="1505" d="M50 0l162 1082h283l-52 -349h155q185 0 285.5 -102.5t76.5 -263.5q-26 -171 -151.5 -269t-320.5 -98h-438zM366 218h155q65 0 106.5 42t51.5 107q9 65 -18 105.5t-96 40.5h-155zM1116 0l162 1082h283l-162 -1082h-283z" />
<glyph unicode="&#x44c;" horiz-adv-x="1005" d="M30 0l162 1082h283l-52 -349h155q185 0 285.5 -102.5t76.5 -263.5q-26 -171 -151.5 -269t-320.5 -98h-438zM346 218h155q65 0 106.5 42t51.5 107q9 65 -18 105.5t-96 40.5h-155z" />
<glyph unicode="&#x44d;" horiz-adv-x="921" d="M31 400h263q-14 -95 9 -148t86 -53q72 0 119 71t73 191h-213l25 166h213q11 120 -14.5 187t-102.5 67q-58 0 -97 -45.5t-51 -125.5h-255l-2 6q22 174 145.5 280t292.5 106q201 0 296.5 -155.5t60.5 -391.5l-4 -29q-38 -250 -173.5 -398.5t-345.5 -148.5q-170 0 -262 114 t-63 307z" />
<glyph unicode="&#x44e;" horiz-adv-x="1442" d="M34 0l162 1082h283l-63 -422h174q54 206 185 324t319 118q202 0 300.5 -155t63.5 -396l-4 -23q-38 -253 -176.5 -401t-349.5 -148q-183 0 -282 126.5t-91 332.5h-173l-65 -438h-283zM845 528q-23 -157 1 -243t115 -86q83 0 136 90.5t75 238.5l4 23q23 154 -1.5 242 t-113.5 88q-85 0 -138 -92.5t-74 -237.5z" />
<glyph unicode="&#x44f;" horiz-adv-x="1010" d="M-40 0l273 432q-79 44 -116.5 120t-22.5 170q24 164 150 262t316 98h419l-162 -1082h-280l56 379h-110l-240 -379h-283zM374 713q-9 -60 19 -102t91 -42h138l44 294h-139q-60 0 -102.5 -46t-50.5 -104z" />
<glyph unicode="&#x450;" horiz-adv-x="937" d="M54 508l6 41q38 254 173 403.5t343 149.5q183 0 269 -132.5t53 -354.5l-23 -154h-546q-12 -123 25 -192.5t137 -69.5q81 0 143 20t131 61l47 -176q-66 -53 -170.5 -89t-216.5 -36q-205 0 -305.5 149.5t-65.5 379.5zM252 1540l3 5h313l141 -266h-246zM359 647h268l4 25 q15 103 -4 156t-84 53q-68 0 -113.5 -63t-70.5 -171z" />
<glyph unicode="&#x451;" horiz-adv-x="937" d="M54 508l6 41q38 254 173 403.5t343 149.5q183 0 269 -132.5t53 -354.5l-23 -154h-546q-12 -123 25 -192.5t137 -69.5q81 0 143 20t131 61l47 -176q-66 -53 -170.5 -89t-216.5 -36q-205 0 -305.5 149.5t-65.5 379.5zM221 1286l28 197h251l-28 -197h-251zM359 647h268l4 25 q15 103 -4 156t-84 53q-68 0 -113.5 -63t-70.5 -171zM677 1286l28 197h250l-28 -197h-250z" />
<glyph unicode="&#x452;" horiz-adv-x="1009" d="M7 0l181 1209h-135l27 177h135l26 174h281l-26 -174h90l-27 -177h-90l-38 -252q53 70 119.5 107.5t139.5 37.5q140 0 209 -115t35 -350l-26 -170h1l-76 -504q-30 -199 -134.5 -299.5t-268.5 -100.5q-35 0 -65 4t-61 13l44 216q21 -6 39.5 -9.5t42.5 -3.5q44 0 76 47 t45 133l5 37l96 639q20 139 -1 190t-84 51q-48 0 -88 -21t-71 -58l-120 -801h-281z" />
<glyph unicode="&#x453;" horiz-adv-x="749" d="M9 0l162 1082h649l-33 -221h-367l-129 -861h-282zM337 1262l213 261h314l2 -6l-289 -260h-237z" />
<glyph unicode="&#x454;" horiz-adv-x="922" d="M52 526l4 29q37 249 172 398t348 149q169 0 260 -114.5t63 -306.5h-263q14 93 -9 146.5t-84 53.5q-75 0 -123 -74t-72 -194h228l-25 -167h-227q-11 -118 15 -182.5t103 -64.5q58 0 96.5 45t51.5 127h255l2 -6q-23 -176 -146 -281t-292 -105q-203 0 -298 154.5t-59 392.5z " />
<glyph unicode="&#x455;" horiz-adv-x="899" d="M13 332l2 6h257q-10 -88 24.5 -126.5t104.5 -38.5q58 0 94.5 30t43.5 79q7 50 -24.5 82.5t-131.5 82.5q-157 61 -229 138.5t-55 198.5q19 137 136 227.5t293 90.5q175 0 273.5 -97.5t73.5 -242.5l-2 -6h-273q10 71 -14.5 111t-85.5 40q-48 0 -87 -32.5t-44 -77.5 q-8 -50 20.5 -78t133.5 -81q164 -59 236 -138.5t54 -206.5q-21 -143 -142 -228.5t-304 -85.5q-182 0 -280 109t-74 244z" />
<glyph unicode="&#x456;" horiz-adv-x="497" d="M27 0l162 1082h282l-162 -1082h-282zM229 1345l32 215h282l-32 -215h-282z" />
<glyph unicode="&#x457;" horiz-adv-x="514" d="M6 1264l28 197h251l-28 -197h-251zM34 0l162 1082h283l-162 -1082h-283zM462 1264l28 197h250l-28 -197h-250z" />
<glyph unicode="&#x458;" horiz-adv-x="489" d="M-220 -419l46 217q21 -6 39 -9.5t40 -3.5q45 0 76.5 45t45.5 133l168 1119h282l-168 -1119q-30 -199 -134.5 -299.5t-268.5 -100.5q-33 0 -62.5 4.5t-63.5 13.5zM229 1347l32 213h283l-32 -213h-283z" />
<glyph unicode="&#x459;" horiz-adv-x="1535" d="M-55 0l29 221h25q71 0 123.5 97t83.5 300l69 464h729l-52 -349h154q186 0 286.5 -102.5t76.5 -263.5q-26 -171 -151.5 -269t-321.5 -98h-437l129 861h-164l-36 -243q-50 -328 -166.5 -473t-336.5 -145h-40zM875 218h154q66 0 107 42.5t51 108.5q10 65 -17.5 104.5 t-96.5 39.5h-154z" />
<glyph unicode="&#x45a;" horiz-adv-x="1532" d="M9 0l162 1082h282l-63 -422h264l63 422h283l-52 -349h155q185 0 285.5 -102.5t76.5 -263.5q-26 -171 -151.5 -269t-320.5 -98h-438l66 441h-264l-66 -441h-282zM871 218h155q66 0 107 42.5t51 108.5q10 65 -17.5 104.5t-96.5 39.5h-155z" />
<glyph unicode="&#x45b;" horiz-adv-x="1009" d="M7 0l182 1218h-68l26 172h68l26 170h281l-26 -170h239l-26 -172h-239l-39 -261q53 69 119.5 107t139.5 38q140 0 209 -115t35 -350l-96 -637h-282l96 639q20 139 -1 190t-84 51q-48 0 -88 -21t-71 -58l-120 -801h-281z" />
<glyph unicode="&#x45c;" horiz-adv-x="1033" d="M32 0l162 1082h281l-62 -413h68l240 413h358l-367 -487l4 -5l2 1l224 -591h-377l-104 407h-87l-61 -407h-281zM471 1261l213 261h314l2 -6l-289 -260h-237z" />
<glyph unicode="&#x45d;" d="M9 0l162 1082h282l-91 -605l6 -2l353 607h282l-162 -1082h-282l91 604l-6 2l-353 -606h-282zM286 1518l3 5h313l141 -266h-246z" />
<glyph unicode="&#x45e;" horiz-adv-x="920" d="M-56 -414l65 207q12 -2 21.5 -4t19.5 -2q59 0 98.5 35t62.5 88l39 83l-163 1089h303l40 -645l6 -1l258 646h303l-559 -1245q-58 -116 -139.5 -195t-223.5 -79q-32 0 -59.5 5.5t-71.5 17.5zM286 1546l3 6h205q-9 -56 12.5 -89.5t78.5 -33.5q51 0 82.5 35t39.5 88h207l2 -6 q-15 -133 -111.5 -210.5t-243.5 -77.5q-142 0 -220 81t-55 207z" />
<glyph unicode="&#x45f;" d="M9 0l162 1082h282l-129 -862h267l129 862h283l-162 -1082h-276l-54 -358h-282l54 358h-274z" />
<glyph unicode="&#x460;" horiz-adv-x="1708" d="M94 579l45 298q41 275 191.5 437.5t352.5 162.5q56 0 111 -11.5t102 -32.5l-88 -207q-29 14 -67.5 22t-83.5 8q-79 0 -145.5 -106t-90.5 -271l-45 -300q-27 -176 8 -278t123 -102q61 0 99.5 20t68.5 52l43 286h-150l29 195h584l-29 -195h-151l-43 -285q17 -33 49 -53 t99 -20q81 0 150 106.5t94 273.5l45 300q26 172 -8 274.5t-115 102.5q-44 0 -85 -8t-74 -22l-26 207q52 21 110 32.5t118 11.5q189 0 295 -169t67 -431l-45 -298q-42 -276 -196.5 -438t-362.5 -162q-91 0 -162 20.5t-124 57.5q-64 -37 -141.5 -57.5t-171.5 -20.5 q-199 0 -309.5 168.5t-70.5 431.5z" />
<glyph unicode="&#x461;" horiz-adv-x="1284" d="M95 1082h297l32 -682l2 -142l6 -1l58 143l101 290l-37 392h280l4 -682l1 -45h6q76 146 124 331.5t74 395.5h295q-65 -279 -169.5 -545.5t-245.5 -536.5h-267l-26 277l-6 1l-123 -278h-259z" />
<glyph unicode="&#x462;" horiz-adv-x="1120" d="M30 0l163 1093h-93l26 172h93l29 191h283l-29 -191h212l-26 -172h-212l-22 -151h192q211 0 327.5 -133t86.5 -337q-33 -216 -183 -344t-372 -128h-475zM346 220h192q91 0 157.5 74.5t82.5 179.5q15 106 -27 176.5t-138 70.5h-192z" />
<glyph unicode="&#x463;" horiz-adv-x="1005" d="M30 0l166 1112h-108l26 172h108l42 278h283l-42 -278h205l-26 -172h-205l-56 -379h155q185 0 285.5 -102.5t76.5 -263.5q-26 -171 -151.5 -269t-320.5 -98h-438zM346 218h155q65 0 106.5 42t51.5 107q9 65 -18 105.5t-96 40.5h-155z" />
<glyph unicode="&#x464;" horiz-adv-x="1585" d="M49 0l218 1456h281l-93 -620h143l16 108q39 264 191.5 399t382.5 135t345 -117.5t76 -350.5l-2 -5h-275q21 146 -19.5 199t-157.5 53q-102 0 -169 -77.5t-90 -233.5l-17 -110h238l-33 -221h-238l-15 -103q-25 -165 20.5 -238.5t161.5 -73.5q102 0 157.5 56t77.5 197h272 l2 -6q-32 -243 -171 -355t-371 -112q-227 0 -348 139.5t-83 392.5l15 103h-142l-92 -615h-281z" />
<glyph unicode="&#x465;" horiz-adv-x="1347" d="M32 0l162 1082h283l-66 -442h87q51 213 180.5 337.5t323.5 124.5q169 0 260 -114.5t63 -306.5h-263q14 93 -9 146.5t-84 53.5q-71 0 -117 -65.5t-72 -175.5h221l-26 -172h-223q-15 -128 10 -198.5t106 -70.5q58 0 96.5 45t51.5 127h255l2 -6q-23 -176 -146 -281 t-292 -105q-190 0 -286 136t-78 353h-86l-70 -468h-283z" />
<glyph unicode="&#x466;" horiz-adv-x="1194" d="M-62 0l655 1456h293l219 -1456h-296l-51 393h-67l-59 -393h-232l59 393h-58l-169 -393h-294zM484 586h249l-56 435l-5 1z" />
<glyph unicode="&#x467;" horiz-adv-x="1012" d="M-71 0l505 1082h295l180 -1082h-286l-32 279h-50l-41 -279h-173l41 279h-38l-114 -279h-287zM403 456h168l-25 224l-7 104h-6l-38 -104z" />
<glyph unicode="&#x468;" horiz-adv-x="1689" d="M67 0l218 1456h281l-131 -870h295l392 870h293l219 -1456h-296l-51 393h-67l-59 -393h-232l59 393h-58l-169 -393h-294l176 392h-237l-58 -392h-281zM1013 586h249l-56 435l-5 1z" />
<glyph unicode="&#x469;" horiz-adv-x="1441" d="M67 0l162 1082h283l-94 -626h171l292 626h295l180 -1082h-286l-32 279h-50l-41 -279h-173l41 279h-38l-114 -279h-287l131 280h-115l-42 -280h-283zM850 456h168l-25 224l-7 104h-6l-38 -104z" />
<glyph unicode="&#x46a;" horiz-adv-x="1566" d="M15 0l51 343q37 247 169.5 349.5t367.5 104.5l-230 659h1129l-426 -660q204 -10 301 -118.5t64 -334.5l-51 -343h-281l51 343q20 134 -18.5 182.5t-142.5 48.5h-56l-86 -574h-282l86 574h-83q-99 0 -155 -52t-75 -179l-51 -343h-282zM746 1232l103 -353h6l208 353h-317z " />
<glyph unicode="&#x46b;" horiz-adv-x="1311" d="M11 0l28 186q31 210 131.5 307.5t272.5 113.5l-169 475h942l-312 -477q152 -23 222 -124.5t42 -294.5l-28 -186h-282l28 186q18 124 -7 168.5t-95 38.5l-5 -1l-59 -392h-281l60 402h-7q-71 0 -112.5 -48t-58.5 -168l-28 -186h-282zM622 901l57 -232l6 -1l128 233h-191z " />
<glyph unicode="&#x46c;" horiz-adv-x="2091" d="M48 0l218 1456h281l-218 -1456h-281zM302 575l34 223h848l-34 -223h-848zM582 0l51 343q37 247 169.5 349.5t367.5 104.5l-230 659h1129l-426 -660q204 -10 301 -118.5t64 -334.5l-51 -343h-281l51 343q20 134 -18.5 182.5t-142.5 48.5h-56l-86 -574h-282l86 574h-83 q-99 0 -155 -52t-75 -179l-51 -343h-282zM1313 1232l103 -353h6l208 353h-317z" />
<glyph unicode="&#x46d;" horiz-adv-x="1812" d="M34 0l162 1082h283l-162 -1082h-283zM189 410l30 202h870l-30 -202h-870zM517 0l28 186q31 210 131.5 307.5t272.5 113.5l-169 475h942l-312 -477q152 -23 222 -124.5t42 -294.5l-28 -186h-282l28 186q18 124 -7 168.5t-95 38.5l-5 -1l-59 -392h-281l60 402h-7 q-71 0 -112.5 -48t-58.5 -168l-28 -186h-282zM1128 901l57 -232l6 -1l128 233h-191z" />
<glyph unicode="&#x46e;" horiz-adv-x="918" d="M-101 -79q23 147 116.5 217.5t244.5 70.5h56q77 0 132.5 53.5t68.5 139.5q17 118 -28.5 173.5t-151.5 55.5h-124l10 70l24 158h132q80 0 129 52.5t63 140.5q13 85 -24 131t-125 46h-213l34 227h213q214 0 321.5 -94.5t79.5 -283.5q-19 -125 -84.5 -208.5t-168.5 -125.5 q110 -43 161.5 -129.5t34.5 -208.5q-32 -208 -165 -316.5t-336 -108.5h-49q-43 0 -68.5 -26t-32.5 -72q-9 -61 20.5 -96.5t75.5 -60.5l-101 -168q-144 33 -204 127t-41 236zM370 1896l2 16h255l73 -129l110 129h254l-2 -17l-288 -252h-191z" />
<glyph unicode="&#x46f;" horiz-adv-x="911" d="M-73 -79q20 131 105 195t219 64h52q76 0 128.5 37t62.5 97q11 72 -30 106t-130 34h-142l6 41l13 83l7 46h150q63 0 101 37.5t48 100.5q9 58 -25.5 89.5t-114.5 31.5h-217l30 199h217q205 0 311 -73.5t84 -220.5q-14 -89 -64 -151t-131 -97q91 -33 134.5 -93.5 t32.5 -142.5q-24 -158 -144.5 -240.5t-308.5 -82.5h-43q-51 0 -81 -26t-37 -72q-9 -61 15.5 -96.5t64.5 -60.5l-99 -153q-113 40 -171.5 132t-42.5 216zM246 1552l2 16h255l73 -129l110 129h254l-2 -17l-288 -252h-191z" />
<glyph unicode="&#x470;" horiz-adv-x="1301" d="M105 945l76 511h281l-76 -511q-25 -162 9 -251t121 -106l6 1l130 867h281l-130 -865l6 -2q85 16 143.5 107t82.5 249l76 511h282l-76 -511q-42 -268 -186.5 -418.5t-363.5 -174.5l-52 -352h-281l52 351q-209 23 -315 179t-66 415z" />
<glyph unicode="&#x471;" horiz-adv-x="1349" d="M64 589l74 493h282l-74 -496q-25 -160 11 -246t117 -108h6l127 849h282l-127 -846l6 -2q104 31 167.5 128t84.5 235q16 117 11 237t-25 249h257q36 -98 48.5 -219t-9.5 -267q-38 -251 -176.5 -413.5t-400.5 -195.5l-69 -459h-282l69 463q-213 36 -316 184.5t-63 413.5z " />
<glyph unicode="&#x472;" horiz-adv-x="1232" d="M84 524l61 406q39 266 202.5 406.5t407.5 140.5q232 0 360 -147t90 -400l-61 -406q-41 -267 -205 -406t-408 -139q-232 0 -359 145.5t-88 399.5zM365 524q-26 -168 24 -246t175 -78q118 0 196 82t103 242l13 89q-30 -29 -65.5 -44t-76.5 -15q-60 0 -123.5 59.5 t-111.5 59.5q-33 0 -75 -39.5t-56 -90.5zM404 786q30 38 69 59t87 21q46 0 117 -59.5t119 -59.5q22 0 54 20t57 51l17 115q24 165 -27.5 243t-175.5 78q-118 0 -195 -81.5t-100 -239.5z" />
<glyph unicode="&#x473;" horiz-adv-x="1007" d="M58 528l4 23q37 253 175 402t351 149q202 0 300.5 -155t63.5 -396l-4 -23q-38 -253 -176.5 -401t-349.5 -148q-203 0 -301.5 154t-62.5 395zM327 390q0 -93 29.5 -142t98.5 -49q70 0 118 65t69 171l-4 5q-10 -14 -28.5 -22t-37.5 -8q-43 0 -89.5 44t-80.5 44 q-23 0 -45.5 -32t-28.5 -76h-1zM357 602l4 -5q12 21 36.5 35.5t49.5 14.5q32 0 83 -44t86 -44q23 0 45.5 31.5t29.5 77.5l39 -56q-9 -54 -29 -95t-41 -51l-6 2q1 3 5 21t7 39l4 23q23 154 -1.5 242t-113.5 88q-79 0 -130 -79.5t-68 -199.5z" />
<glyph unicode="&#x474;" horiz-adv-x="1154" d="M153 1456h296l93 -1084l2 -57l6 -1l20 55l276 766q70 171 156.5 255.5t206.5 84.5q25 0 47 -5t38 -15l-52 -216q-3 1 -18 3t-24 2q-34 0 -64 -33t-47 -93l-441 -1118h-293z" />
<glyph unicode="&#x475;" horiz-adv-x="918" d="M95 1082h297l15 -682l1 -67l6 -1l21 68l118 373q67 164 155.5 246.5t209.5 82.5q24 0 46 -5t39 -14l-53 -216q-4 1 -19 3.5t-23 2.5q-33 0 -62.5 -32t-43.5 -82l-301 -759h-274z" />
<glyph unicode="&#x476;" horiz-adv-x="1154" d="M153 1456h296l93 -1084l2 -57l6 -1l20 55l276 766q70 171 156.5 255.5t206.5 84.5q25 0 47 -5t38 -15l-52 -216q-3 1 -18 3t-24 2q-34 0 -64 -33t-47 -93l-441 -1118h-293zM233 1854h269l167 -266h-228zM587 1854h266l129 -266h-226z" />
<glyph unicode="&#x477;" horiz-adv-x="918" d="M95 1082h297l15 -682l1 -67l6 -1l21 68l118 373q67 164 155.5 246.5t209.5 82.5q24 0 46 -5t39 -14l-53 -216q-4 1 -19 3.5t-23 2.5q-33 0 -62.5 -32t-43.5 -82l-301 -759h-274zM111 1602h269l167 -266h-228zM465 1602h266l129 -266h-226z" />
<glyph unicode="&#x478;" horiz-adv-x="2150" d="M84 524l61 406q39 266 202.5 406.5t407.5 140.5q232 0 360 -147t90 -400l-61 -406q-41 -267 -205 -406t-408 -139q-232 0 -359 145.5t-88 399.5zM365 524q-26 -168 24 -246t175 -78q118 0 196 82t103 242l61 409q24 165 -27.5 243t-175.5 78q-118 0 -195 -81.5 t-100 -239.5zM1174 -414l65 207q12 -2 21.5 -4t19.5 -2q59 0 98.5 35t62.5 88l39 83l-163 1089h303l40 -645l6 -1l258 646h303l-559 -1245q-58 -116 -139.5 -195t-223.5 -79q-32 0 -59.5 5.5t-71.5 17.5z" />
<glyph unicode="&#x479;" horiz-adv-x="1928" d="M58 528l4 23q37 253 175 402t351 149q202 0 300.5 -155t63.5 -396l-4 -23q-38 -253 -176.5 -401t-349.5 -148q-203 0 -301.5 154t-62.5 395zM339 528q-23 -157 1 -243t115 -86q83 0 136 90.5t75 238.5l4 23q23 154 -1.5 242t-113.5 88q-85 0 -138 -92.5t-74 -237.5z M952 -414l65 207q12 -2 21.5 -4t19.5 -2q59 0 98.5 35t62.5 88l39 83l-163 1089h303l40 -645l6 -1l258 646h303l-559 -1245q-58 -116 -139.5 -195t-223.5 -79q-32 0 -59.5 5.5t-71.5 17.5z" />
<glyph unicode="&#x47a;" horiz-adv-x="1232" d="M84 524l61 406q39 266 202.5 406.5t407.5 140.5q232 0 360 -147t90 -400l-61 -406q-41 -267 -205 -406t-408 -139q-232 0 -359 145.5t-88 399.5zM365 524q-26 -168 24 -246t175 -78q118 0 196 82t103 242l61 409q24 165 -27.5 243t-175.5 78q-118 0 -195 -81.5 t-100 -239.5zM428 -136l69 460h179l-69 -460h-179zM615 1126l68 451h178l-68 -451h-178z" />
<glyph unicode="&#x47b;" horiz-adv-x="1009" d="M58 528l4 23q37 253 175 402t351 149q202 0 300.5 -155t63.5 -396l-4 -23q-38 -253 -176.5 -401t-349.5 -148q-203 0 -301.5 154t-62.5 395zM314 -126l68 454h178l-68 -454h-178zM339 528q-23 -157 1 -243t115 -86q83 0 136 90.5t75 238.5l4 23q23 154 -1.5 242 t-113.5 88q-85 0 -138 -92.5t-74 -237.5zM453 765l66 440h179l-66 -440h-179z" />
<glyph unicode="&#x47c;" horiz-adv-x="1709" d="M102 635l30 200q44 294 196.5 468t354.5 174q49 0 97 -11.5t89 -32.5l-88 -207q-24 14 -55.5 22t-68.5 8q-79 0 -147.5 -118t-94.5 -301l-31 -202q-31 -202 2 -319t121 -117q63 0 102.5 24t69.5 64l6 42h282l-6 -42q15 -40 46 -64t99 -24q81 0 152 122t100 314l31 202 q28 192 -4 305.5t-113 113.5q-35 0 -69.5 -8t-62.5 -22l-26 207q46 21 96.5 32.5t104.5 11.5q189 0 293 -181t62 -461l-30 -200q-46 -302 -202.5 -479t-364.5 -177q-92 0 -162 24.5t-122 68.5q-64 -44 -142.5 -68.5t-172.5 -24.5q-199 0 -307 184t-65 472zM798 1733l5 36 q16 112 76 165t157 53q54 0 182 -63.5t224 -63.5h16l-19 -126h-17q-105 0 -237 63t-166 63q-36 0 -63 -28t-34 -81l-3 -18h-121zM902 1499l66 108l21 147h162l-19 -130l-164 -176z" />
<glyph unicode="&#x47d;" horiz-adv-x="1467" d="M70 526l6 40q36 245 170 391t311 146q45 0 88.5 -11t80.5 -31l-88 -206q-21 13 -48 20.5t-58 7.5q-55 0 -104.5 -89t-69.5 -226l-6 -42q-23 -150 0 -238.5t86 -88.5q44 0 70.5 20t48.5 54l9 63h282l-9 -63q12 -35 32 -54.5t66 -19.5q58 0 109.5 91.5t73.5 235.5l6 42 q21 144 -0.5 229.5t-78.5 85.5q-31 0 -60.5 -7.5t-53.5 -20.5l-26 206q42 20 87.5 31t93.5 11q167 0 260 -151.5t59 -385.5l-6 -40q-38 -251 -175.5 -399t-321.5 -148q-75 0 -133 20.5t-103 58.5q-56 -38 -121.5 -58.5t-141.5 -20.5q-177 0 -274.5 154t-60.5 393zM647 1350 l5 36q16 112 76 165t157 53q54 0 182 -63.5t224 -63.5h16l-19 -126h-16q-105 0 -238 63.5t-166 63.5q-36 0 -64 -28.5t-35 -81.5l-2 -18h-120zM752 1130l67 109l19 133h162l-18 -117l-163 -176z" />
<glyph unicode="&#x47e;" horiz-adv-x="1709" d="M94 579q-40 -263 70.5 -431.5t309.5 -168.5q94 0 171.5 20.5t141.5 57.5q53 -37 124 -57.5t162 -20.5q208 0 362.5 162t196.5 438l45 298q39 262 -67 431t-295 169q-60 0 -118 -11.5t-110 -32.5l26 -207q33 14 74 22t85 8q81 0 115 -102.5t8 -274.5l-45 -300 q-25 -167 -94 -273.5t-150 -106.5q-67 0 -99 20t-49 53l43 285h151l29 195h-584l-29 -195h150l-43 -286q-30 -32 -68.5 -52t-99.5 -20q-88 0 -123 102t-8 278l45 300q24 165 90.5 271t145.5 106q45 0 83.5 -8t67.5 -22l88 207q-47 21 -102 32.5t-111 11.5 q-202 0 -352.5 -162.5t-191.5 -437.5zM615 1565l35 231h784l-34 -232h-164l18 125h-153l-18 -125h-166l18 125h-139l-18 -125z" />
<glyph unicode="&#x47f;" horiz-adv-x="1284" d="M95 1082l147 -1082h259l123 278l6 -1l26 -277h267q141 270 245.5 536.5t169.5 545.5h-295q-26 -210 -74 -395.5t-124 -331.5h-6l-1 45l-4 682h-280l37 -392l-101 -290l-58 -143l-6 1l-2 142l-32 682h-297zM404 1231l35 234h719l-35 -234h-165l19 127h-120l-19 -127h-165 l19 127h-107l-19 -127h-162z" />
<glyph unicode="&#x480;" horiz-adv-x="1104" d="M86 584l43 287q41 279 197.5 442.5t380.5 163.5q217 0 323.5 -130.5t70.5 -371.5h-281q23 152 -10.5 216.5t-136.5 64.5q-98 0 -167.5 -106t-94.5 -277l-43 -289q-28 -182 8 -283.5t139 -101.5h182l-84 -560h-281l52 351q-169 38 -251.5 199.5t-46.5 394.5z" />
<glyph unicode="&#x481;" horiz-adv-x="958" d="M75 526l4 29q37 249 172 398t346 149q169 0 261 -114.5t64 -306.5h-263q14 93 -9 146.5t-86 53.5q-83 0 -133.5 -91.5t-71.5 -234.5l-4 -29q-24 -155 -2 -241t111 -86h185l-84 -561h-282l52 352q-154 36 -223 182.5t-37 353.5z" />
<glyph unicode="&#x482;" horiz-adv-x="1112" d="M69 0l253 398l-223 171l82 122l227 -171l226 366l-224 171l84 124l224 -171l206 332h154l-255 -409l227 -171l-87 -121l-221 170l-228 -366l222 -172l-82 -122l-226 170l-202 -321h-157z" />
<glyph unicode="&#x483;" horiz-adv-x="784" d="M170 1191l35 232h475l16 108l162 -1l-33 -214h-475l-18 -126z" />
<glyph unicode="&#x484;" horiz-adv-x="812" d="M194 1304l19 126h17q97 0 248.5 63.5t209.5 63.5q98 0 142.5 -53.5t28.5 -165.5l-6 -35h-123l3 18q7 52 -12.5 80.5t-55.5 28.5q-35 0 -190.5 -63t-262.5 -63h-18z" />
<glyph unicode="&#x485;" horiz-adv-x="398" d="M247 1500l22 144h170l-26 -161l34 -109l-83 -64z" />
<glyph unicode="&#x486;" horiz-adv-x="407" d="M203 1374l66 109l24 161h169l-22 -144l-172 -190z" />
<glyph unicode="&#x488;" horiz-adv-x="1790" d="M51 493q8 82 63.5 132t138.5 50q80 0 122.5 -52.5t27.5 -130.5l-3 -5h-89q6 45 -10 73t-61 28q-41 0 -66.5 -29.5t-31.5 -71.5h-89zM116 -26q8 82 63.5 132t138.5 50q80 0 123 -52.5t28 -130.5l-3 -5h-91q7 45 -9 73t-61 28q-41 0 -66 -29t-31 -72h-90zM278 996 q8 82 63.5 132t140.5 50q79 0 121.5 -52.5t28.5 -130.5l-3 -5h-90q6 45 -10.5 73t-59.5 28q-42 0 -68 -29.5t-31 -71.5h-90zM580 -310q8 82 63 132t139 50q79 0 121.5 -52t27.5 -131l-3 -5h-89q6 46 -10.5 73.5t-59.5 27.5q-41 0 -66.5 -29t-31.5 -72h-89zM813 1273 q8 82 63 132t139 50q79 0 121.5 -52.5t27.5 -130.5l-3 -5h-89q6 45 -10.5 73t-59.5 28q-42 0 -67.5 -29.5t-31.5 -71.5h-88zM1117 -26q9 82 63.5 132t138.5 50q80 0 122.5 -52.5t27.5 -130.5l-3 -5h-89q7 45 -10 73t-61 28q-41 0 -66.5 -29.5t-31.5 -71.5h-89zM1279 996 q8 82 63.5 132t139.5 50q80 0 122.5 -52.5t27.5 -130.5l-3 -5h-89q6 45 -10.5 73t-60.5 28q-41 0 -66.5 -29.5t-30.5 -71.5h-91zM1364 493q8 82 63.5 132t139.5 50q80 0 122.5 -52.5t27.5 -130.5l-3 -5h-90q6 45 -10.5 73t-59.5 28q-41 0 -67 -29.5t-32 -71.5h-89z" />
<glyph unicode="&#x489;" horiz-adv-x="1732" d="M71 545l14 98l287 -71l-21 -139l-13 -12zM144 -80l283 200l68 -99l-3 -17l-298 -153zM408 1188l67 69l125 -299l-99 -98l-14 2zM632 -413l113 353h118l7 -14l-156 -339h-82zM865 1140l155 338h83l-113 -352h-117zM1125 62l98 99l15 -2l79 -325l-68 -71zM1231 1002l4 16 l299 153l48 -68q-35 -23 -283 -200zM1361 492l21 139l12 12l268 -124l-15 -98z" />
<glyph unicode="&#x48a;" horiz-adv-x="1241" d="M21 0l218 1456h281l-138 -918l6 -2l600 920h283l-218 -1456h-283l137 916l-6 2l-599 -918h-281zM496 1889l3 6h205q-9 -56 12.5 -89.5t78.5 -33.5q51 0 82.5 35t39.5 88h207l2 -6q-15 -133 -111.5 -210.5t-243.5 -77.5q-142 0 -220 81t-55 207zM926 -343l109 317l35 234 h274l-36 -242l-193 -309h-189z" />
<glyph unicode="&#x48b;" d="M9 0l162 1082h282l-91 -605l6 -2l353 607h282l-162 -1082h-282l91 604l-6 2l-353 -606h-282zM334 1546l3 6h205q-9 -56 12.5 -89.5t78.5 -33.5q51 0 82.5 35t39.5 88h207l2 -6q-15 -133 -111.5 -210.5t-243.5 -77.5q-142 0 -220 81t-55 207zM714 -343l109 317l35 234h274 l-36 -242l-193 -309h-189z" />
<glyph unicode="&#x48c;" horiz-adv-x="1120" d="M30 0l163 1093h-93l26 172h93l29 191h283l-29 -191h212l-26 -172h-212l-22 -151h192q211 0 327.5 -133t86.5 -337q-33 -216 -183 -344t-372 -128h-475zM346 220h192q91 0 157.5 74.5t82.5 179.5q15 106 -27 176.5t-138 70.5h-192z" />
<glyph unicode="&#x48d;" horiz-adv-x="1005" d="M30 0l122 814h-108l26 172h107l15 96h283l-15 -96h198l-26 -172h-197l-12 -81h155q185 0 285.5 -102.5t76.5 -263.5q-26 -171 -151.5 -269t-320.5 -98h-438zM346 218h155q65 0 106.5 42t51.5 107q9 65 -18 105.5t-96 40.5h-155z" />
<glyph unicode="&#x48e;" horiz-adv-x="1117" d="M25 0l218 1456h487q211 0 323.5 -130t82.5 -335q-34 -217 -178.5 -340.5t-366.5 -123.5h-205l-79 -527h-282zM419 748h205q91 0 153 69t77 172q17 111 -22 178.5t-135 67.5h-205zM592 909l117 60l183 -570l-115 -59z" />
<glyph unicode="&#x48f;" horiz-adv-x="1005" d="M-48 -416l224 1498h258l-4 -111q49 63 109 97t133 34q167 0 242.5 -157.5t37.5 -409.5l-3 -21q-38 -251 -153.5 -393t-289.5 -142q-67 0 -116 29.5t-81 85.5l-76 -510h-281zM337 277q15 -38 46.5 -58t81.5 -20q79 0 129.5 85t72.5 230l3 21q24 160 0.5 252.5t-104.5 92.5 q-47 0 -85.5 -25.5t-68.5 -71.5zM441 375l120 44l96 -556l-120 -45z" />
<glyph unicode="&#x490;" horiz-adv-x="995" d="M30 0l218 1456h565l57 375h281l-90 -595h-15v-1h-548l-185 -1235h-283z" />
<glyph unicode="&#x491;" horiz-adv-x="836" d="M9 0l162 1082h411l48 321h281l-81 -542h-410l-129 -861h-282z" />
<glyph unicode="&#x492;" horiz-adv-x="994" d="M6 666l26 172h123l93 618h831l-33 -221h-548l-60 -397h182l-26 -172h-181l-100 -666h-283l99 666h-123z" />
<glyph unicode="&#x493;" horiz-adv-x="749" d="M-52 458l25 172h130l68 452h649l-33 -221h-367l-35 -231h177l-26 -172h-177l-68 -458h-282l68 458h-129z" />
<glyph unicode="&#x494;" horiz-adv-x="988" d="M30 0l218 1456h831l-33 -221h-548l-49 -324h221q228 0 353 -124.5t90 -360.5q-17 -131 -120.5 -265t-266.5 -194l-95 180q81 47 133 116t67 163q20 130 -31 196t-164 66h-220l-103 -688h-283z" />
<glyph unicode="&#x495;" horiz-adv-x="1087" d="M9 0l162 1082h649l-33 -221h-367l-23 -152h66q228 0 353.5 -124.5t90.5 -360.5q-17 -131 -120.5 -264.5t-266.5 -194.5l-95 180q81 48 133 116.5t67 162.5q19 131 -31.5 196.5t-163.5 65.5h-66l-73 -486h-282z" />
<glyph unicode="&#x496;" horiz-adv-x="1665" d="M-73 0l507 796l-272 660h351l172 -598h60l90 598h282l-90 -598h59l341 598h350l-461 -657l261 -799h-351l-158 609h-78l-91 -609h-282l91 609h-82l-347 -609h-352zM1353 -356l88 590h282l-88 -590h-282z" />
<glyph unicode="&#x497;" horiz-adv-x="1478" d="M-62 0l375 591l5 -3l5 3l-213 491h357l106 -411h44l62 411h280l-62 -411h49l229 411h356l-360 -490l3 -4l7 3l196 -591h-360l-94 409h-65l-61 -409h-280l61 409h-61l-218 -409h-361zM1113 -356l88 590h282l-88 -590h-282z" />
<glyph unicode="&#x498;" horiz-adv-x="1167" d="M60 398l2 6h273q-15 -91 35.5 -148t142.5 -57q106 0 181 59t89 151q18 123 -29 174.5t-160 51.5h-173l22 148h1l10 67h173q100 0 160 55.5t75 153.5q13 88 -35 142.5t-156 54.5q-80 0 -143.5 -53.5t-75.5 -138.5h-273l-2 6q23 189 174.5 298t353.5 109q223 0 345 -109 t93 -306q-16 -105 -85 -188.5t-176 -129.5q104 -43 152.5 -130t30.5 -209q-32 -208 -190.5 -317t-394.5 -109q-193 0 -324.5 108t-95.5 311zM220 -376l55 149q18 -9 35 -15.5t43 -6.5q43 0 62.5 23t22.5 45q7 51 -6 83.5t-47 88.5l140 58q71 -51 98.5 -119t16.5 -143 q-16 -101 -87.5 -154t-171.5 -53q-54 0 -92.5 13t-68.5 31z" />
<glyph unicode="&#x499;" horiz-adv-x="1000" d="M47 312l2 6h273q-10 -60 21 -96t104 -36q67 0 111 40t53 99q10 74 -22.5 107t-102.5 33h-148l18 121l8 55h148q59 0 98.5 33.5t48.5 90.5q8 56 -17 92.5t-90 36.5q-57 0 -98.5 -32.5t-49.5 -88.5h-271l-2 6q17 150 141 235.5t295 85.5q186 0 292 -82.5t84 -230.5 q-12 -76 -63.5 -137t-131.5 -95q79 -33 116 -97.5t24 -153.5q-24 -156 -158.5 -239.5t-330.5 -83.5q-162 0 -271.5 85.5t-80.5 245.5zM140 -375l55 149q18 -9 35 -15.5t43 -6.5q43 0 62.5 23t22.5 45q7 51 -6 83.5t-47 88.5l140 58q71 -51 98.5 -119t16.5 -143 q-16 -101 -87.5 -154t-171.5 -53q-54 0 -92.5 13t-68.5 31z" />
<glyph unicode="&#x49a;" horiz-adv-x="1142" d="M30 0l218 1456h283l-90 -598h77l330 598h368l-491 -722l288 -734h-324l-211 606h-75l-90 -606h-283zM789 -356l88 590h282l-88 -590h-282z" />
<glyph unicode="&#x49b;" horiz-adv-x="1033" d="M32 0l162 1082h281l-62 -413h68l240 413h358l-367 -487l4 -5l2 1l224 -591h-377l-104 407h-87l-61 -407h-281zM684 -356l88 590h282l-88 -590h-282z" />
<glyph unicode="&#x49c;" horiz-adv-x="1193" d="M31 0l218 1456h282l-90 -600h62l39 261h154l-39 -261h23l292 600h350l-422 -649l234 -807h-358l-122 606h-35l-35 -236h-154l35 236h-62l-90 -606h-282z" />
<glyph unicode="&#x49d;" horiz-adv-x="1049" d="M32 0l162 1082h281l-62 -413h39l30 196h137l-30 -196h18l169 413h356l-320 -499l167 -583h-360l-54 407h-15l-27 -178h-137l27 178h-39l-61 -407h-281z" />
<glyph unicode="&#x49e;" horiz-adv-x="1142" d="M14 1143l26 172h189l21 141h282l-21 -141h117l-26 -172h-117l-43 -283h59l398 596h350l-520 -665l333 -791h-360l-220 611h-77l-91 -611h-282l171 1143h-189z" />
<glyph unicode="&#x49f;" horiz-adv-x="973" d="M14 0l182 1212h-173l26 172h172l27 176h282l-27 -176h134l-26 -172h-134l-81 -540h47l257 410h325l-367 -488l249 -594h-323l-169 454h-51l-68 -454h-282z" />
<glyph unicode="&#x4a0;" horiz-adv-x="1528" d="M184 1235l33 221h754l-89 -596h58l398 596h350l-520 -665l333 -791h-360l-220 611h-77l-91 -611h-282l185 1235h-472z" />
<glyph unicode="&#x4a1;" horiz-adv-x="1326" d="M120 861l33 221h702l-62 -413h68l240 413h358l-367 -487l4 -5l2 1l224 -591h-377l-104 407h-87l-61 -407h-281l129 861h-421z" />
<glyph unicode="&#x4a2;" horiz-adv-x="1257" d="M32 0l218 1456h282l-94 -629h469l94 629h281l-218 -1456h-281l91 607h-469l-91 -607h-282zM901 -356l88 590h282l-88 -590h-282z" />
<glyph unicode="&#x4a3;" d="M9 0l162 1082h282l-66 -439h264l66 439h283l-162 -1082h-283l63 424h-264l-63 -424h-282zM675 -356l88 590h282l-88 -590h-282z" />
<glyph unicode="&#x4a4;" horiz-adv-x="1744" d="M31 0l218 1456h282l-94 -629h469l94 629h806l-33 -220h-523l-2 1l-185 -1237h-281l91 607h-469l-91 -607h-282z" />
<glyph unicode="&#x4a5;" horiz-adv-x="1252" d="M9 0l162 1082h282l-66 -439h264l66 439h561l-33 -221h-278l-129 -861h-283l63 424h-264l-63 -424h-282z" />
<glyph unicode="&#x4a6;" horiz-adv-x="1846" d="M31 0l218 1456h1033l-81 -540h143q227 0 353 -124t91 -360q-18 -132 -121 -266t-266 -194l-96 181q82 46 134.5 115t67.5 164q18 130 -33 196t-163 66h-143l-104 -694h-281l185 1235h-470l-185 -1235h-282z" />
<glyph unicode="&#x4a7;" horiz-adv-x="1537" d="M9 0l162 1082h832l-162 -1082h-283l129 861h-267l-129 -861h-282zM919 489l34 223h267q228 0 353 -124.5t90 -360.5q-16 -131 -120 -264.5t-267 -194.5l-95 180q81 48 133 116.5t67 162.5q20 130 -31 196t-164 66h-267z" />
<glyph unicode="&#x4a8;" horiz-adv-x="1297" d="M95 597l39 262q39 262 221.5 439t410.5 173l6 -3l-33 -221q-115 0 -198 -106t-109 -280l-39 -264q-26 -170 31 -279.5t175 -109.5q27 0 52.5 5t49.5 17q-109 52 -158 158.5t-27 252.5l16 107q23 160 137 267.5t260 107.5q167 0 252.5 -110.5t58.5 -294.5l-15 -98 q-41 -273 -231 -457t-429 -184q-253 0 -382.5 171t-87.5 447zM782 639q-13 -84 7 -147t66 -86h6q21 39 38.5 94.5t27.5 119.5l15 101q11 75 -2 123t-43 43h-6q-32 5 -58.5 -41.5t-38.5 -124.5z" />
<glyph unicode="&#x4a9;" horiz-adv-x="1032" d="M55 507l6 40q35 236 198.5 394.5t368.5 154.5l6 -3l-33 -219q-94 -10 -157 -94.5t-85 -230.5l-6 -42q-20 -127 17.5 -207.5t110.5 -65.5l6 2q-40 24 -56.5 91.5t-1.5 157.5l5 36q18 125 108.5 210.5t205.5 85.5q120 0 180.5 -90t39.5 -236l-5 -34q-31 -205 -174 -341.5 t-322 -136.5q-221 0 -334.5 145.5t-77.5 382.5zM625 379.5q6 -39.5 23 -50.5l6 -1q14 21 26 59t19 85l5 36q8 51 3 85.5t-18 26.5l-6 1q-13 7 -27.5 -25.5t-21.5 -84.5l-6 -40q-9 -52 -3 -91.5z" />
<glyph unicode="&#x4aa;" horiz-adv-x="1133" d="M82 511l64 432q40 264 192.5 399t382.5 135t345 -117.5t76 -350.5l-2 -5h-275q21 146 -19.5 199t-158.5 53q-102 0 -168.5 -77.5t-89.5 -233.5l-65 -434q-25 -165 20.5 -238.5t161.5 -73.5q102 0 157.5 56t77.5 197h272l2 -6q-32 -243 -171 -355t-371 -112 q-227 0 -348 139.5t-83 392.5zM221 -369l55 149q18 -9 35 -15.5t43 -6.5q43 0 62.5 23t22.5 45q7 51 -6 83.5t-47 88.5l140 58q71 -51 98.5 -119t16.5 -143q-16 -101 -87.5 -154t-171.5 -53q-54 0 -92.5 13t-68.5 31z" />
<glyph unicode="&#x4ab;" horiz-adv-x="921" d="M52 526l4 29q37 249 172 398t348 149q169 0 260 -114.5t63 -306.5h-263q14 93 -9 146.5t-84 53.5q-84 0 -134 -91t-71 -235l-4 -29q-24 -156 -3 -241.5t111 -85.5q58 0 96.5 45t51.5 127h255l2 -6q-23 -176 -146 -281t-292 -105q-203 0 -298 154.5t-59 392.5zM129 -369 l55 149q18 -9 35 -15.5t43 -6.5q43 0 62.5 23t22.5 45q7 51 -6 83.5t-47 88.5l140 58q71 -51 98.5 -119t16.5 -143q-16 -101 -87.5 -154t-171.5 -53q-54 0 -92.5 13t-68.5 31z" />
<glyph unicode="&#x4ac;" horiz-adv-x="1014" d="M135 1235l33 221h958l-33 -221h-342l-185 -1235h-283l185 1235h-333zM402 -356l88 590h282l-88 -590h-282z" />
<glyph unicode="&#x4ad;" horiz-adv-x="939" d="M92 863l33 219h860l-33 -219h-291l-129 -863h-282l129 863h-287zM369 -356l88 590h282l-88 -590h-282z" />
<glyph unicode="&#x4ae;" horiz-adv-x="1141" d="M147 1456h308l155 -633l6 -1l346 634h308l-565 -937l-78 -519h-281l81 537z" />
<glyph unicode="&#x4af;" horiz-adv-x="921" d="M95 1082h297l32 -682l1 -82l6 -1l27 83l234 682h295l-466 -1073l-64 -426h-281l64 429z" />
<glyph unicode="&#x4b0;" horiz-adv-x="1141" d="M147 1456h308l155 -633l6 -1l346 634h308l-462 -766h92l-26 -172h-169l-78 -518h-281l78 518h-138l26 172h68z" />
<glyph unicode="&#x4b1;" horiz-adv-x="921" d="M95 1082h297l32 -682l1 -82l6 -1l27 83l234 682h295l-391 -899h113l-25 -172h-162l-1 -1l-64 -427h-281l64 428h-144l25 172h96z" />
<glyph unicode="&#x4b2;" horiz-adv-x="1141" d="M-53 0l481 734l-255 722h326l127 -515l6 -1l284 516h327l-470 -722l276 -734h-341l-135 525l-6 1l-292 -526h-328zM740 -356l88 590h282l-88 -590h-282z" />
<glyph unicode="&#x4b3;" horiz-adv-x="920" d="M-64 0l364 547l-194 535h315l65 -346l6 -1l173 347h318l-353 -535l200 -547h-317l-73 356l-6 1l-180 -357h-318zM530 -356l88 590h282l-88 -590h-282z" />
<glyph unicode="&#x4b4;" horiz-adv-x="1606" d="M149 1234l33 221h503v1h281v-1h45l-33 -221h-46l-151 -1013h470l185 1235h282l-183 -1218h178l-89 -590h-282l53 352h-928l185 1234h-503z" />
<glyph unicode="&#x4b5;" horiz-adv-x="1243" d="M99 861l33 221h607l-33 -221h-129l-96 -641h267l129 862h283l-129 -862h144l-87 -577h-281l54 357h-695l129 861h-196z" />
<glyph unicode="&#x4b6;" horiz-adv-x="1245" d="M192 1015l66 441h282l-66 -441q-23 -151 20 -204.5t159 -53.5q43 0 112.5 8t124.5 22l100 669h281l-218 -1456h-281l85 567q-56 -14 -124.5 -22t-112.5 -8q-228 0 -346 118.5t-82 359.5zM890 -356l88 590h282l-88 -590h-282z" />
<glyph unicode="&#x4b7;" horiz-adv-x="1004" d="M119 749l50 333h281l-50 -333q-18 -118 12.5 -156.5t122.5 -38.5q25 0 50 3.5t53 10.5l77 514h283l-162 -1082h-283l52 346q-28 -6 -54.5 -9t-48.5 -3q-207 0 -311 101.5t-72 313.5zM673 -356l88 590h282l-88 -590h-282z" />
<glyph unicode="&#x4b8;" horiz-adv-x="1217" d="M192 1015l66 441h282l-66 -441q-23 -151 20 -204.5t159 -53.5q43 0 112.5 8t124.5 22l100 669h281l-218 -1456h-281l85 567q-56 -14 -124.5 -22t-112.5 -8q-228 0 -346 118.5t-82 359.5zM547 297l113 759h153l-113 -759h-153z" />
<glyph unicode="&#x4b9;" horiz-adv-x="1005" d="M119 749l50 333h281l-50 -333q-18 -118 12.5 -156.5t122.5 -38.5q25 0 50 3.5t53 10.5l77 514h283l-162 -1082h-283l52 346q-28 -6 -54.5 -9t-48.5 -3q-207 0 -311 101.5t-72 313.5zM371 182l97 646h153l-97 -646h-153z" />
<glyph unicode="&#x4ba;" horiz-adv-x="1259" d="M153 0l218 1456h281l-85 -568q54 13 123 22t115 9q227 0 344.5 -119t82.5 -359l-66 -441h-282l66 441q22 150 -20.5 204t-157.5 54q-44 0 -113.5 -9t-124.5 -22l-100 -668h-281z" />
<glyph unicode="&#x4bb;" horiz-adv-x="1005" d="M301 2l162 1082h283l-52 -346q28 6 54.5 9t48.5 3q207 0 311 -101.5t72 -313.5l-50 -333h-281l50 333q18 118 -12.5 156.5t-122.5 38.5q-25 0 -50 -3.5t-53 -10.5l-77 -514h-283z" />
<glyph unicode="&#x4bc;" horiz-adv-x="1448" d="M59 1082h184q-13 -86 3.5 -140.5t63.5 -75.5q71 280 248 444.5t394 164.5q244 0 356 -183t66 -495l-23 -151h-798q-22 -204 45 -318t246 -114q97 0 185.5 21t150.5 51l10 -222q-40 -29 -144 -58t-237 -29q-291 0 -432.5 189.5t-101.5 501.5q-126 26 -184 135.5t-32 278.5 zM596 870l2 -5h506l4 31q24 161 -19 250.5t-173 89.5q-109 0 -194.5 -102.5t-125.5 -263.5z" />
<glyph unicode="&#x4bd;" horiz-adv-x="1070" d="M-12 864h170q-11 -66 -0.5 -112t41.5 -73q56 198 182 310.5t306 112.5q183 0 269 -132.5t53 -354.5l-23 -154h-546q-12 -123 25 -192.5t137 -69.5q81 0 143 20t131 61l47 -176q-66 -53 -170.5 -89t-216.5 -36q-200 0 -301 143t-73 364q-104 37 -149.5 135t-24.5 243z M470 647h268l4 25q15 103 -4 156t-84 53q-68 0 -113.5 -63t-70.5 -171z" />
<glyph unicode="&#x4be;" horiz-adv-x="1448" d="M59 1082h184q-13 -86 3.5 -140.5t63.5 -75.5q71 280 248 444.5t394 164.5q244 0 356 -183t66 -495l-23 -151h-798q-22 -204 45 -318t246 -114q97 0 185.5 21t150.5 51l10 -222q-40 -29 -144 -58t-237 -29q-291 0 -432.5 189.5t-101.5 501.5q-126 26 -184 135.5t-32 278.5 zM418 -209q12 79 59.5 145.5t138.5 119.5l119 -56q-49 -53 -73.5 -90t-31.5 -86q-4 -25 6.5 -46.5t55.5 -21.5q22 0 41.5 6t40.5 15l9 -148q-34 -18 -75.5 -31t-94.5 -13q-95 0 -152.5 55t-42.5 151zM596 870l2 -5h506l4 31q24 161 -19 250.5t-173 89.5 q-109 0 -194.5 -102.5t-125.5 -263.5z" />
<glyph unicode="&#x4bf;" horiz-adv-x="1070" d="M-12 864h170q-11 -66 -0.5 -112t41.5 -73q56 198 182 310.5t306 112.5q183 0 269 -132.5t53 -354.5l-23 -154h-546q-12 -123 25 -192.5t137 -69.5q81 0 143 20t131 61l47 -176q-66 -53 -170.5 -89t-216.5 -36q-200 0 -301 143t-73 364q-104 37 -149.5 135t-24.5 243z M229 -209q12 79 59.5 145.5t138.5 119.5l119 -56q-49 -53 -73.5 -90t-31.5 -86q-4 -25 6.5 -46.5t55.5 -21.5q22 0 41.5 6t40.5 15l9 -148q-34 -18 -75.5 -31t-94.5 -13q-95 0 -152.5 55t-42.5 151zM470 647h268l4 25q15 103 -4 156t-84 53q-68 0 -113.5 -63t-70.5 -171z " />
<glyph unicode="&#x4c0;" horiz-adv-x="538" d="M48 0l218 1456h281l-218 -1456h-281z" />
<glyph unicode="&#x4c1;" horiz-adv-x="1665" d="M-73 0l507 796l-272 660h351l172 -598h60l90 598h282l-90 -598h59l341 598h350l-461 -657l261 -799h-351l-158 609h-78l-91 -609h-282l91 609h-82l-347 -609h-352zM709 1889l3 6h205q-9 -56 12.5 -89.5t78.5 -33.5q51 0 82.5 35t39.5 88h207l2 -6q-15 -133 -111.5 -210.5 t-243.5 -77.5q-142 0 -220 81t-55 207z" />
<glyph unicode="&#x4c2;" horiz-adv-x="1478" d="M-62 0l375 591l5 -3l5 3l-213 491h357l106 -411h44l62 411h280l-62 -411h49l229 411h356l-360 -490l3 -4l7 3l196 -591h-360l-94 409h-65l-61 -409h-280l61 409h-61l-218 -409h-361zM568 1546l3 6h205q-9 -56 12.5 -89.5t78.5 -33.5q51 0 82.5 35t39.5 88h207l2 -6 q-15 -133 -111.5 -210.5t-243.5 -77.5q-142 0 -220 81t-55 207z" />
<glyph unicode="&#x4c3;" horiz-adv-x="1134" d="M31 0l218 1456h282l-90 -600h75l374 600h350l-484 -648q166 -40 247.5 -166t50.5 -335q-18 -138 -128 -278t-284 -204l-96 180q93 48 151.5 123.5t74.5 178.5q23 156 -30.5 226t-176.5 70h-162l-90 -603h-282z" />
<glyph unicode="&#x4c4;" horiz-adv-x="1036" d="M32 0l162 1082h281l-62 -413h68l240 413h358l-368 -490q125 -50 184.5 -160.5t34.5 -278.5q-18 -131 -120.5 -262t-264.5 -193l-96 181q81 46 132.5 113t67.5 161q18 124 -24 185t-140 69h-111l-61 -407h-281z" />
<glyph unicode="&#x4c5;" horiz-adv-x="1257" d="M-38 0l33 220h34q113 0 170 123t106 457l95 656h883l-218 -1456h-282l185 1235h-318l-62 -435q-62 -427 -207.5 -613.5t-382.5 -186.5h-36zM938 -343l109 317l35 234h274l-36 -242l-193 -309h-189z" />
<glyph unicode="&#x4c6;" horiz-adv-x="1006" d="M-61 0l29 224h26q81 0 117 81t71 313l69 464h752l-162 -1082h-282l129 861h-188l-36 -243q-50 -332 -159 -475t-326 -143h-40zM714 -343l109 317l35 234h274l-36 -242l-193 -309h-189z" />
<glyph unicode="&#x4c7;" horiz-adv-x="1257" d="M31 0l218 1456h283l-94 -629h469l94 629h282l-224 -1493q-30 -199 -135 -299.5t-268 -100.5q-35 0 -65.5 4.5t-62.5 13.5l45 216q21 -6 40.5 -9.5t43.5 -3.5q43 0 75 47t45 132l97 644h-469l-91 -607h-283z" />
<glyph unicode="&#x4c8;" d="M9 0l162 1082h282l-66 -439h264l66 439h283l-168 -1119q-30 -199 -135 -299.5t-269 -100.5q-34 0 -64 4.5t-62 13.5l44 216q20 -6 40 -9.5t43 -3.5q44 0 75.5 46.5t44.5 132.5l70 461h-264l-64 -424h-282z" />
<glyph unicode="&#x4c9;" horiz-adv-x="1257" d="M32 0l218 1456h282l-94 -629h469l94 629h281l-218 -1456h-281l91 607h-469l-91 -607h-282zM937 -343l109 317l35 234h274l-36 -242l-193 -309h-189z" />
<glyph unicode="&#x4ca;" d="M9 0l162 1082h282l-66 -439h264l66 439h283l-162 -1082h-283l63 424h-264l-63 -424h-282zM711 -343l109 317l35 234h274l-36 -242l-193 -309h-189z" />
<glyph unicode="&#x4cb;" horiz-adv-x="1245" d="M192 1015l66 441h282l-66 -441q-23 -151 20 -204.5t159 -53.5q43 0 112.5 8t124.5 22l100 669h281l-218 -1456h-281l85 567q-56 -14 -124.5 -22t-112.5 -8q-228 0 -346 118.5t-82 359.5zM538 -356l88 590h282l-88 -590h-282z" />
<glyph unicode="&#x4cc;" horiz-adv-x="1004" d="M119 749l50 333h281l-50 -333q-18 -118 12.5 -156.5t122.5 -38.5q25 0 50 3.5t53 10.5l77 514h283l-162 -1082h-283l52 346q-28 -6 -54.5 -9t-48.5 -3q-207 0 -311 101.5t-72 313.5zM320 -356l88 590h282l-88 -590h-282z" />
<glyph unicode="&#x4cd;" horiz-adv-x="1499" d="M26 0l218 1456h367l110 -1080h6l434 1080h369l-218 -1456h-280l137 916l-6 2l-400 -918h-189l-125 911h-6l-136 -911h-281zM1185 -343l109 317l35 234h274l-36 -242l-193 -309h-189z" />
<glyph unicode="&#x4ce;" horiz-adv-x="1362" d="M30 0l162 1082h348l98 -749l5 -1l325 750h354l-162 -1082h-282l87 583l-6 1l-274 -584h-188l-95 561h-6l-84 -561h-282zM1033 -343l109 317l35 234h274l-36 -242l-193 -309h-189z" />
<glyph unicode="&#x4cf;" horiz-adv-x="538" d="M48 0l218 1456h281l-218 -1456h-281z" />
<glyph unicode="&#x4d0;" horiz-adv-x="1141" d="M-62 0l631 1456h292l195 -1456h-295l-35 315h-364l-130 -315h-294zM452 1889l3 6h205q-9 -56 12.5 -89.5t78.5 -33.5q51 0 82.5 35t39.5 88h207l2 -6q-15 -133 -111.5 -210.5t-243.5 -77.5q-142 0 -220 81t-55 207zM453 537h248l-52 460l-6 1z" />
<glyph unicode="&#x4d1;" horiz-adv-x="957" d="M12 303q24 164 140.5 248.5t326.5 84.5h123l14 90q12 83 -11 125.5t-83 42.5q-50 0 -83.5 -35.5t-42.5 -99.5l-272 1l-1 6q16 145 140.5 240.5t307.5 95.5q164 0 258.5 -98.5t68.5 -279.5l-67 -444q-12 -80 -11 -146t14 -134h-280q-10 37 -14.5 79t-2.5 85 q-48 -81 -114.5 -133t-151.5 -52q-142 0 -211 87.5t-48 236.5zM295 314q-9 -59 12.5 -92.5t67.5 -33.5q54 0 104.5 35.5t73.5 84.5l25 168h-123q-68 0 -109 -46.5t-51 -115.5zM309 1567l3 6h205q-9 -56 12.5 -89.5t78.5 -33.5q51 0 82.5 35t39.5 88h207l2 -6 q-15 -133 -111.5 -210.5t-243.5 -77.5q-142 0 -220 81t-55 207z" />
<glyph unicode="&#x4d2;" horiz-adv-x="1141" d="M-62 0l631 1456h292l195 -1456h-295l-35 315h-364l-130 -315h-294zM371 1607l28 197h251l-28 -197h-251zM453 537h248l-52 460l-6 1zM827 1607l28 197h250l-28 -197h-250z" />
<glyph unicode="&#x4d3;" horiz-adv-x="957" d="M12 303q24 164 140.5 248.5t326.5 84.5h123l14 90q12 83 -11 125.5t-83 42.5q-50 0 -83.5 -35.5t-42.5 -99.5l-272 1l-1 6q16 145 140.5 240.5t307.5 95.5q164 0 258.5 -98.5t68.5 -279.5l-67 -444q-12 -80 -11 -146t14 -134h-280q-10 37 -14.5 79t-2.5 85 q-48 -81 -114.5 -133t-151.5 -52q-142 0 -211 87.5t-48 236.5zM229 1285l28 197h251l-28 -197h-251zM295 314q-9 -59 12.5 -92.5t67.5 -33.5q54 0 104.5 35.5t73.5 84.5l25 168h-123q-68 0 -109 -46.5t-51 -115.5zM685 1285l28 197h250l-28 -197h-250z" />
<glyph unicode="&#x4d4;" horiz-adv-x="1689" d="M-66 0l871 1456h900l-33 -224h-495l-42 -373h411l-34 -223h-402l-47 -413h509l-33 -223h-783l39 341h-341l-192 -341h-328zM584 573h237l58 512l-5 2z" />
<glyph unicode="&#x4d5;" horiz-adv-x="1532" d="M38 316q24 162 148 245t341 83h139l10 62q12 85 -11 130t-80 45q-59 0 -101 -39t-50 -96l-270 17l-2 6q17 150 143 241.5t316 91.5q80 0 147 -24t113 -70q59 46 132.5 70t158.5 24q178 0 267.5 -132.5t56.5 -353.5l-23 -157h-550q-13 -125 24.5 -192.5t140.5 -67.5 q74 0 131.5 20t127.5 60l44 -178q-60 -49 -161 -85.5t-208 -36.5q-106 0 -186 39.5t-129 114.5q-62 -68 -155 -111t-210 -43q-163 0 -245 91t-59 246zM319 312q-10 -65 16.5 -99t92.5 -34q41 0 93.5 27.5t88.5 66.5l29 193h-137q-72 0 -123 -45.5t-60 -108.5zM953 643h270 l5 28q14 100 -7.5 155t-81.5 55q-72 0 -117 -63t-69 -175z" />
<glyph unicode="&#x4d6;" horiz-adv-x="994" d="M32 0l218 1456h813l-33 -221h-531l-56 -372h445l-33 -220h-445l-63 -423h533l-33 -220h-815zM401 1889l3 6h205q-9 -56 12.5 -89.5t78.5 -33.5q51 0 82.5 35t39.5 88h207l2 -6q-15 -133 -111.5 -210.5t-243.5 -77.5q-142 0 -220 81t-55 207z" />
<glyph unicode="&#x4d7;" horiz-adv-x="937" d="M54 508l6 41q38 254 173 403.5t343 149.5q183 0 269 -132.5t53 -354.5l-23 -154h-546q-12 -123 25 -192.5t137 -69.5q81 0 143 20t131 61l47 -176q-66 -53 -170.5 -89t-216.5 -36q-205 0 -305.5 149.5t-65.5 379.5zM301 1568l3 6h205q-9 -56 12.5 -89.5t78.5 -33.5 q51 0 82.5 35t39.5 88h207l2 -6q-15 -133 -111.5 -210.5t-243.5 -77.5q-142 0 -220 81t-55 207zM359 647h268l4 25q15 103 -4 156t-84 53q-68 0 -113.5 -63t-70.5 -171z" />
<glyph unicode="&#x4d8;" horiz-adv-x="1322" d="M95 656l23 151h831q22 202 -44 316.5t-242 114.5q-98 0 -186.5 -21.5t-150.5 -50.5l-11 223q41 28 145.5 58t238.5 30q294 0 433.5 -199.5t91.5 -521.5l-8 -54q-50 -329 -236.5 -526t-425.5 -197q-262 0 -384 182t-75 495zM363 557q-25 -161 26 -251t200 -90 q107 0 192 102.5t125 264.5l-2 5h-537z" />
<glyph unicode="&#x4d9;" horiz-adv-x="942" d="M387 467l23 154h546q12 123 -25 192.5t-137 69.5q-81 0 -143 -20t-131 -61l-47 176q66 53 170.5 89t216.5 36q205 0 305.5 -149.5t65.5 -379.5l-6 -41q-38 -254 -173 -403.5t-343 -149.5q-183 0 -269 132.5t-53 354.5zM654 410q-15 -103 4 -156t84 -53q68 0 113.5 63 t70.5 171h-268z" />
<glyph unicode="&#x4da;" horiz-adv-x="1322" d="M95 656l23 151h831q22 202 -44 316.5t-242 114.5q-98 0 -186.5 -21.5t-150.5 -50.5l-11 223q41 28 145.5 58t238.5 30q294 0 433.5 -199.5t91.5 -521.5l-8 -54q-50 -329 -236.5 -526t-425.5 -197q-262 0 -384 182t-75 495zM363 557q-25 -161 26 -251t200 -90 q107 0 192 102.5t125 264.5l-2 5h-537zM389 1551l28 197h251l-28 -197h-251zM845 1551l28 197h250l-28 -197h-250z" />
<glyph unicode="&#x4db;" horiz-adv-x="942" d="M243 1285l28 197h251l-28 -197h-251zM387 467l23 154h546q12 123 -25 192.5t-137 69.5q-81 0 -143 -20t-131 -61l-47 176q66 53 170.5 89t216.5 36q205 0 305.5 -149.5t65.5 -379.5l-6 -41q-38 -254 -173 -403.5t-343 -149.5q-183 0 -269 132.5t-53 354.5zM654 410 q-15 -103 4 -156t84 -53q68 0 113.5 63t70.5 171h-268zM699 1285l28 197h250l-28 -197h-250z" />
<glyph unicode="&#x4dc;" horiz-adv-x="1665" d="M-73 0l507 796l-272 660h351l172 -598h60l90 598h282l-90 -598h59l341 598h350l-461 -657l261 -799h-351l-158 609h-78l-91 -609h-282l91 609h-82l-347 -609h-352zM628 1607l28 197h251l-28 -197h-251zM1084 1607l28 197h250l-28 -197h-250z" />
<glyph unicode="&#x4dd;" horiz-adv-x="1478" d="M-62 0l375 591l5 -3l5 3l-213 491h357l106 -411h44l62 411h280l-62 -411h49l229 411h356l-360 -490l3 -4l7 3l196 -591h-360l-94 409h-65l-61 -409h-280l61 409h-61l-218 -409h-361zM488 1264l28 197h251l-28 -197h-251zM944 1264l28 197h250l-28 -197h-250z" />
<glyph unicode="&#x4de;" horiz-adv-x="1167" d="M60 398l2 6h273q-15 -91 35.5 -148t142.5 -57q106 0 181 59t89 151q18 123 -29 174.5t-160 51.5h-173l22 148h1l10 67h173q100 0 160 55.5t75 153.5q13 88 -35 142.5t-156 54.5q-80 0 -143.5 -53.5t-75.5 -138.5h-273l-2 6q23 189 174.5 298t353.5 109q223 0 345 -109 t93 -306q-16 -105 -85 -188.5t-176 -129.5q104 -43 152.5 -130t30.5 -209q-32 -208 -190.5 -317t-394.5 -109q-193 0 -324.5 108t-95.5 311zM380 1628l28 197h251l-28 -197h-251zM836 1628l28 197h250l-28 -197h-250z" />
<glyph unicode="&#x4df;" horiz-adv-x="1000" d="M47 312l2 6h273q-10 -60 21 -96t104 -36q67 0 111 40t53 99q10 74 -22.5 107t-102.5 33h-148l18 121l8 55h148q59 0 98.5 33.5t48.5 90.5q8 56 -17 92.5t-90 36.5q-57 0 -98.5 -32.5t-49.5 -88.5h-271l-2 6q17 150 141 235.5t295 85.5q186 0 292 -82.5t84 -230.5 q-12 -76 -63.5 -137t-131.5 -95q79 -33 116 -97.5t24 -153.5q-24 -156 -158.5 -239.5t-330.5 -83.5q-162 0 -271.5 85.5t-80.5 245.5zM249 1284l28 197h251l-28 -197h-251zM705 1284l28 197h250l-28 -197h-250z" />
<glyph unicode="&#x4e0;" horiz-adv-x="1033" d="M57 399l2 5h274q-15 -92 21.5 -148.5t111.5 -56.5q83 0 144 59.5t75 150.5q23 153 -23 217.5t-161 64.5h-118l25 169l1 5l328 365l-2 5h-501l33 221h830l-27 -183l-377 -411q154 -34 227.5 -152t46.5 -305q-32 -208 -177 -317t-357 -109q-177 0 -294 108t-82 312z" />
<glyph unicode="&#x4e1;" horiz-adv-x="1033" d="M0 24l2 5h274q-13 -90 23 -146.5t111 -56.5q83 0 144 59.5t75 149.5q23 154 -22 218t-160 64h-120l8 58l10 67l7 44l1 4l325 366l-2 5h-506l33 221h838l-27 -183l-375 -411q154 -34 227 -152.5t45 -305.5q-32 -205 -177.5 -315t-356.5 -110q-176 0 -293.5 108.5 t-83.5 310.5z" />
<glyph unicode="&#x4e2;" horiz-adv-x="1241" d="M21 0l218 1456h281l-138 -918l6 -2l600 920h283l-218 -1456h-283l137 916l-6 2l-599 -918h-281zM440 1621l22 157h662l-22 -157h-662z" />
<glyph unicode="&#x4e3;" d="M9 0l162 1082h282l-91 -605l6 -2l353 607h282l-162 -1082h-282l91 604l-6 2l-353 -606h-282zM279 1279l22 157h662l-22 -157h-662z" />
<glyph unicode="&#x4e4;" horiz-adv-x="1241" d="M21 0l218 1456h281l-138 -918l6 -2l600 920h283l-218 -1456h-283l137 916l-6 2l-599 -918h-281zM415 1607l28 197h251l-28 -197h-251zM871 1607l28 197h250l-28 -197h-250z" />
<glyph unicode="&#x4e5;" d="M9 0l162 1082h282l-91 -605l6 -2l353 607h282l-162 -1082h-282l91 604l-6 2l-353 -606h-282zM254 1264l28 197h251l-28 -197h-251zM710 1264l28 197h250l-28 -197h-250z" />
<glyph unicode="&#x4e6;" horiz-adv-x="1230" d="M84 524l61 406q39 266 202.5 406.5t407.5 140.5q232 0 360 -147t90 -400l-61 -406q-41 -267 -205 -406t-408 -139q-232 0 -359 145.5t-88 399.5zM365 524q-26 -168 24 -246t175 -78q118 0 196 82t103 242l61 409q24 165 -27.5 243t-175.5 78q-118 0 -195 -81.5 t-100 -239.5zM418 1628l28 197h251l-28 -197h-251zM874 1628l28 197h250l-28 -197h-250z" />
<glyph unicode="&#x4e7;" d="M58 528l4 23q37 253 175 402t351 149q202 0 300.5 -155t63.5 -396l-4 -23q-38 -253 -176.5 -401t-349.5 -148q-203 0 -301.5 154t-62.5 395zM254 1285l28 197h251l-28 -197h-251zM339 528q-23 -157 1 -243t115 -86q83 0 136 90.5t75 238.5l4 23q23 154 -1.5 242 t-113.5 88q-85 0 -138 -92.5t-74 -237.5zM710 1285l28 197h250l-28 -197h-250z" />
<glyph unicode="&#x4e8;" horiz-adv-x="1232" d="M84 524l61 406q39 266 202.5 406.5t407.5 140.5q232 0 360 -147t90 -400l-61 -406q-41 -267 -205 -406t-408 -139q-232 0 -359 145.5t-88 399.5zM365 524q-26 -168 24 -246t175 -78q118 0 196 82t103 242l13 89q-30 -29 -65.5 -44t-76.5 -15q-60 0 -123.5 59.5 t-111.5 59.5q-33 0 -75 -39.5t-56 -90.5zM404 786q30 38 69 59t87 21q46 0 117 -59.5t119 -59.5q22 0 54 20t57 51l17 115q24 165 -27.5 243t-175.5 78q-118 0 -195 -81.5t-100 -239.5z" />
<glyph unicode="&#x4e9;" horiz-adv-x="1007" d="M58 528l4 23q37 253 175 402t351 149q202 0 300.5 -155t63.5 -396l-4 -23q-38 -253 -176.5 -401t-349.5 -148q-203 0 -301.5 154t-62.5 395zM327 390q0 -93 29.5 -142t98.5 -49q70 0 118 65t69 171l-4 5q-10 -14 -28.5 -22t-37.5 -8q-43 0 -89.5 44t-80.5 44 q-23 0 -45.5 -32t-28.5 -76h-1zM357 602l4 -5q12 21 36.5 35.5t49.5 14.5q32 0 83 -44t86 -44q23 0 45.5 31.5t29.5 77.5l39 -56q-9 -54 -29 -95t-41 -51l-6 2q1 3 5 21t7 39l4 23q23 154 -1.5 242t-113.5 88q-79 0 -130 -79.5t-68 -199.5z" />
<glyph unicode="&#x4ea;" horiz-adv-x="1232" d="M84 524l61 406q39 266 202.5 406.5t407.5 140.5q232 0 360 -147t90 -400l-61 -406q-41 -267 -205 -406t-408 -139q-232 0 -359 145.5t-88 399.5zM365 524q-26 -168 24 -246t175 -78q118 0 196 82t103 242l13 89q-30 -29 -65.5 -44t-76.5 -15q-60 0 -123.5 59.5 t-111.5 59.5q-33 0 -75 -39.5t-56 -90.5zM404 786q30 38 69 59t87 21q46 0 117 -59.5t119 -59.5q22 0 54 20t57 51l17 115q24 165 -27.5 243t-175.5 78q-118 0 -195 -81.5t-100 -239.5zM435 1602l28 197h251l-28 -197h-251zM891 1602l28 197h250l-28 -197h-250z" />
<glyph unicode="&#x4eb;" horiz-adv-x="1007" d="M58 528l4 23q37 253 175 402t351 149q202 0 300.5 -155t63.5 -396l-4 -23q-38 -253 -176.5 -401t-349.5 -148q-203 0 -301.5 154t-62.5 395zM245 1313l28 197h251l-28 -197h-251zM327 390q0 -93 29.5 -142t98.5 -49q70 0 118 65t69 171l-4 5q-10 -14 -28.5 -22t-37.5 -8 q-43 0 -89.5 44t-80.5 44q-23 0 -45.5 -32t-28.5 -76h-1zM357 602l4 -5q12 21 36.5 35.5t49.5 14.5q32 0 83 -44t86 -44q23 0 45.5 31.5t29.5 77.5l39 -56q-9 -54 -29 -95t-41 -51l-6 2q1 3 5 21t7 39l4 23q23 154 -1.5 242t-113.5 88q-79 0 -130 -79.5t-68 -199.5z M701 1313l28 197h250l-28 -197h-250z" />
<glyph unicode="&#x4ec;" horiz-adv-x="1105" d="M54 480h282q-23 -153 9.5 -216.5t137.5 -63.5q97 0 166.5 105.5t95.5 277.5l6 43h-357l33 221h358l4 25q27 181 -9 283t-138 102q-99 0 -154.5 -68.5t-76.5 -214.5h-274l-2 6q33 247 172 372.5t368 125.5q211 0 322.5 -170t72.5 -436l-43 -287q-42 -280 -198.5 -442.5 t-378.5 -162.5q-219 0 -326 129t-70 371zM352 1629l28 197h251l-28 -197h-251zM808 1629l28 197h250l-28 -197h-250z" />
<glyph unicode="&#x4ed;" horiz-adv-x="921" d="M31 400h263q-14 -95 9 -148t86 -53q72 0 119 71t73 191h-213l25 166h213q11 120 -14.5 187t-102.5 67q-58 0 -97 -45.5t-51 -125.5h-255l-2 6q22 174 145.5 280t292.5 106q201 0 296.5 -155.5t60.5 -391.5l-4 -29q-38 -250 -173.5 -398.5t-345.5 -148.5q-170 0 -262 114 t-63 307zM216 1285l28 197h251l-28 -197h-251zM672 1285l28 197h250l-28 -197h-250z" />
<glyph unicode="&#x4ee;" horiz-adv-x="1139" d="M57 22l62 204q36 -14 62 -20.5t56 -6.5q67 0 108 37t71 110l24 53l-283 1057h303l142 -667l4 -35l6 -1l351 703h296l-626 -1176q-79 -143 -168.5 -222t-228.5 -79q-51 0 -88.5 10.5t-90.5 32.5zM395 1621l22 157h662l-22 -157h-662z" />
<glyph unicode="&#x4ef;" horiz-adv-x="920" d="M-56 -414l65 207q12 -2 21.5 -4t19.5 -2q59 0 98.5 35t62.5 88l39 83l-163 1089h303l40 -645l6 -1l258 646h303l-559 -1245q-58 -116 -139.5 -195t-223.5 -79q-32 0 -59.5 5.5t-71.5 17.5zM232 1279l22 157h662l-22 -157h-662z" />
<glyph unicode="&#x4f0;" horiz-adv-x="1139" d="M57 22l62 204q36 -14 62 -20.5t56 -6.5q67 0 108 37t71 110l24 53l-283 1057h303l142 -667l4 -35l6 -1l351 703h296l-626 -1176q-79 -143 -168.5 -222t-228.5 -79q-51 0 -88.5 10.5t-90.5 32.5zM370 1607l28 197h251l-28 -197h-251zM826 1607l28 197h250l-28 -197h-250z " />
<glyph unicode="&#x4f1;" horiz-adv-x="920" d="M-56 -414l65 207q12 -2 21.5 -4t19.5 -2q59 0 98.5 35t62.5 88l39 83l-163 1089h303l40 -645l6 -1l258 646h303l-559 -1245q-58 -116 -139.5 -195t-223.5 -79q-32 0 -59.5 5.5t-71.5 17.5zM207 1264l28 197h251l-28 -197h-251zM663 1264l28 197h250l-28 -197h-250z" />
<glyph unicode="&#x4f2;" horiz-adv-x="1139" d="M57 22l62 204q36 -14 62 -20.5t56 -6.5q67 0 108 37t71 110l24 53l-283 1057h303l142 -667l4 -35l6 -1l351 703h296l-626 -1176q-79 -143 -168.5 -222t-228.5 -79q-51 0 -88.5 10.5t-90.5 32.5zM445 1601l209 266h258l3 -6l-245 -260h-225zM762 1607l243 260h261l2 -6 l-283 -260h-220z" />
<glyph unicode="&#x4f3;" horiz-adv-x="920" d="M-56 -414l65 207q12 -2 21.5 -4t19.5 -2q59 0 98.5 35t62.5 88l39 83l-163 1089h303l40 -645l6 -1l258 646h303l-559 -1245q-58 -116 -139.5 -195t-223.5 -79q-32 0 -59.5 5.5t-71.5 17.5zM281 1258l209 266h258l3 -6l-245 -260h-225zM598 1264l243 260h261l2 -6 l-283 -260h-220z" />
<glyph unicode="&#x4f4;" horiz-adv-x="1245" d="M192 1015l66 441h282l-66 -441q-23 -151 20 -204.5t159 -53.5q43 0 112.5 8t124.5 22l100 669h281l-218 -1456h-281l85 567q-56 -14 -124.5 -22t-112.5 -8q-228 0 -346 118.5t-82 359.5zM472 1607l28 197h251l-28 -197h-251zM928 1607l28 197h250l-28 -197h-250z" />
<glyph unicode="&#x4f5;" horiz-adv-x="1004" d="M119 749l50 333h281l-50 -333q-18 -118 12.5 -156.5t122.5 -38.5q25 0 50 3.5t53 10.5l77 514h283l-162 -1082h-283l52 346q-28 -6 -54.5 -9t-48.5 -3q-207 0 -311 101.5t-72 313.5zM250 1264l28 197h251l-28 -197h-251zM706 1264l28 197h250l-28 -197h-250z" />
<glyph unicode="&#x4f6;" horiz-adv-x="994" d="M30 0l218 1456h831l-33 -221h-548l-185 -1235h-283zM150 -356l88 590h282l-88 -590h-282z" />
<glyph unicode="&#x4f7;" horiz-adv-x="749" d="M9 0l162 1082h649l-33 -221h-367l-129 -861h-282zM86 -356l88 590h282l-88 -590h-282z" />
<glyph unicode="&#x4f8;" horiz-adv-x="1555" d="M30 0l218 1456h283l-77 -514h192q211 0 327.5 -133t86.5 -337q-33 -216 -183 -344t-372 -128h-475zM346 220h192q91 0 157.5 74.5t82.5 179.5q15 106 -27 176.5t-138 70.5h-192zM573 1607l28 197h251l-28 -197h-251zM1029 1607l28 197h250l-28 -197h-250zM1246 0 l218 1456h281l-218 -1456h-281z" />
<glyph unicode="&#x4f9;" horiz-adv-x="1505" d="M50 0l162 1082h283l-52 -349h155q185 0 285.5 -102.5t76.5 -263.5q-26 -171 -151.5 -269t-320.5 -98h-438zM366 218h155q65 0 106.5 42t51.5 107q9 65 -18 105.5t-96 40.5h-155zM494 1264l28 197h251l-28 -197h-251zM950 1264l28 197h250l-28 -197h-250zM1116 0l162 1082 h283l-162 -1082h-283z" />
<glyph unicode="&#x4fa;" horiz-adv-x="1082" d="M42 -419l46 218q22 -6 40.5 -9.5t40.5 -3.5q44 0 75.5 46t44.5 131l44 288h282l-44 -288q-30 -199 -134.5 -299.5t-268.5 -100.5q-33 0 -62.5 4.5t-63.5 13.5zM90 718l26 172h588l-26 -172h-588zM123 0l218 1456h831l-33 -221h-548l-185 -1235h-283z" />
<glyph unicode="&#x4fb;" horiz-adv-x="761" d="M26 -419l46 218q22 -6 40.5 -9.5t40.5 -3.5q44 0 75.5 46t44.5 131l44 288h282l-44 -288q-30 -199 -134.5 -299.5t-268.5 -100.5q-33 0 -62.5 4.5t-63.5 13.5zM65 543l26 172h588l-26 -172h-588zM107 0l162 1082h649l-33 -221h-367l-129 -861h-282z" />
<glyph unicode="&#x4fc;" horiz-adv-x="1141" d="M-53 0l481 734l-255 722h326l127 -515l6 -1l284 516h327l-470 -722l276 -734h-341l-135 525l-6 1l-292 -526h-328zM650 -419l46 218q22 -6 40.5 -9.5t40.5 -3.5q44 0 75.5 46t44.5 131l44 288h282l-44 -288q-30 -199 -134.5 -299.5t-268.5 -100.5q-33 0 -62.5 4.5 t-63.5 13.5z" />
<glyph unicode="&#x4fd;" horiz-adv-x="920" d="M-64 0l364 547l-194 535h315l65 -346l6 -1l173 347h318l-353 -535l200 -547h-317l-73 356l-6 1l-180 -357h-318zM440 -419l46 218q22 -6 40.5 -9.5t40.5 -3.5q44 0 75.5 46t44.5 131l44 288h282l-44 -288q-30 -199 -134.5 -299.5t-268.5 -100.5q-33 0 -62.5 4.5 t-63.5 13.5z" />
<glyph unicode="&#x4fe;" horiz-adv-x="1141" d="M-53 0l432 659h-78l26 172h66l-220 625h326l127 -515l6 -1l284 516h327l-407 -625h79l-26 -172h-88l248 -659h-341l-135 525l-6 1l-292 -526h-328z" />
<glyph unicode="&#x4ff;" horiz-adv-x="920" d="M-64 0l311 468h-83l26 172h76l-160 442h315l65 -346l6 -1l173 347h318l-292 -442h87l-26 -172h-93l171 -468h-317l-73 356l-6 1l-180 -357h-318z" />
<glyph unicode="&#x500;" horiz-adv-x="1131" d="M61 472q32 214 182 342t372 128h192l77 514h281l-218 -1456h-473q-212 0 -328 133t-85 339zM344 474q-17 -111 24 -182.5t139 -71.5h192l75 501h-192q-93 0 -158 -73t-80 -174z" />
<glyph unicode="&#x501;" d="M53 514l3 21q40 265 156.5 416t292.5 151q63 0 111 -32.5t81 -92.5l88 583h282l-234 -1560h-241l-3 122q-53 -70 -116.5 -106.5t-137.5 -36.5q-165 0 -241.5 148t-40.5 387zM333 514q-23 -153 0.5 -233.5t107.5 -80.5q45 0 84 23t69 66l74 493q-17 46 -48.5 72t-75.5 26 q-78 0 -131.5 -96.5t-76.5 -248.5z" />
<glyph unicode="&#x502;" horiz-adv-x="1647" d="M102 472q32 214 182 342t372 128h192l77 514h281l-185 -1236h51q74 1 122 53.5t64 147.5q13 74 12 158t-14 166h275q13 -102 17 -177t-8 -147q-34 -203 -176.5 -312t-324.5 -109h-524q-212 0 -328 133t-85 339zM384 474q-17 -111 24.5 -182.5t139.5 -71.5h192l75 501 h-192q-93 0 -158.5 -73t-80.5 -174z" />
<glyph unicode="&#x503;" horiz-adv-x="1513" d="M78 514l3 21q40 265 156 416t292 151q58 0 103.5 -27.5t77.5 -77.5l85 563h282l-178 -1186q-13 -78 4 -125t58 -47q74 1 128 87.5t80 239.5q16 97 17.5 198t-8.5 204l276 1q9 -130 10.5 -221t-14.5 -182q-43 -265 -190.5 -407.5t-331.5 -142.5q-116 -1 -190.5 40 t-104.5 130q-56 -82 -124 -126t-150 -44q-165 0 -241 148.5t-40 386.5zM358 514q-23 -153 0.5 -233.5t107.5 -80.5q43 0 80.5 20.5t66.5 60.5q-1 22 0 45t4 48l65 433q-18 35 -46.5 54t-66.5 19q-78 0 -131.5 -96.5t-76.5 -248.5z" />
<glyph unicode="&#x504;" horiz-adv-x="1400" d="M170 1232l33 224h292q221 0 331 -106.5t81 -304.5q-19 -123 -94.5 -206.5t-203.5 -129.5q123 -34 171.5 -117.5t30.5 -204.5l-10 -70q-9 -51 0 -82.5t32 -25.5l6 -1q68 -3 119 83.5t78 237.5q16 98 18 199.5t-9 203.5h276q9 -139 10 -226t-14 -177 q-43 -263 -193.5 -406.5t-337.5 -143.5q-149 -3 -218 78.5t-50 259.5v3l10 65q15 104 -19.5 163t-108.5 59h-213l34 224h160q109 0 168 53t76 163q13 92 -25 138.5t-138 46.5h-292z" />
<glyph unicode="&#x505;" horiz-adv-x="1143" d="M99 398l29 208h155q56 0 88.5 31t41.5 88q9 64 -11.5 99.5t-77.5 35.5h-225l27 222h231q180 0 273 -85.5t71 -235.5q-13 -82 -56.5 -138t-116.5 -92q85 -26 118 -84.5t21 -141.5l-7 -48v1q-9 -50 -2.5 -76.5t31.5 -20.5l6 -1q44 -4 81 65t59 194q12 78 11.5 160 t-13.5 159h273q14 -102 18.5 -175t-7.5 -144q-36 -215 -159 -330t-278 -115q-170 -3 -244.5 53.5t-64.5 186.5l11 75q8 53 -5.5 81t-46.5 28h-231z" />
<glyph unicode="&#x506;" horiz-adv-x="1070" d="M114 584l31 221h225q87 0 144 55t73 153q16 106 -22 164t-129 58h-267l27 221h273q208 0 319.5 -114.5t81.5 -313.5q-18 -119 -82 -200t-173 -129q105 -39 143.5 -128.5t20.5 -216.5l-16 -106q-10 -62 -5 -128.5t35 -98.5l-3 -21h-291q-30 32 -29 107.5t13 142.5l15 102 q17 114 -20 173t-125 59h-239zM594 -307l109 317l35 234h274l-36 -242l-193 -309h-189z" />
<glyph unicode="&#x507;" horiz-adv-x="1026" d="M120 392l27 190h225q59 0 101 36.5t52 98.5q9 64 -21 105t-90 41h-256l23 219h266q182 0 284.5 -94t79.5 -250q-14 -85 -59.5 -146t-122.5 -101q76 -35 104.5 -101.5t15.5 -157.5l-11 -75q-6 -33 -6.5 -79t14.5 -64l-2 -14h-291q-11 17 -7 66t11 92l11 73 q11 81 -19.5 121t-103.5 40h-225zM575 -327l109 317l35 234h274l-36 -242l-193 -309h-189z" />
<glyph unicode="&#x508;" horiz-adv-x="1713" d="M-19 0l33 223h36q95 0 160 129t108 416l103 688h859l-162 -1082q-13 -78 4 -125t58 -47q74 1 127.5 87t80.5 240q16 98 18 199t-9 203l276 1q9 -130 10.5 -221t-13.5 -182q-43 -265 -191 -407.5t-332 -142.5q-173 -3 -253 92.5t-58 302.5l128 858h-294l-69 -464 q-62 -412 -193 -590t-381 -178h-46z" />
<glyph unicode="&#x509;" horiz-adv-x="1525" d="M-21 0l38 236l36 1q70 0 116 91.5t76 293.5l69 460h702l-106 -708q-13 -78 9 -125t72 -47q55 1 96.5 75t63.5 206q15 93 17 189.5t-9 191.5l274 1q11 -128 13 -212.5t-13 -169.5q-40 -243 -174 -373.5t-301 -130.5q-181 -3 -265.5 92.5t-64.5 302.5l72 483h-138l-35 -235 q-49 -329 -159.5 -475.5t-323.5 -146.5h-65z" />
<glyph unicode="&#x50a;" horiz-adv-x="1771" d="M30 0l218 1456h282l-94 -629h477l94 629h281l-162 -1082q-13 -82 4 -127t59 -45q73 1 127 87.5t80 239.5q16 98 18 199t-9 203l276 1q10 -127 11.5 -219.5t-14.5 -183.5q-43 -265 -190.5 -407.5t-331.5 -142.5q-173 -3 -253 92.5t-58 302.5l35 233h-477l-91 -607h-282z " />
<glyph unicode="&#x50b;" horiz-adv-x="1465" d="M-6 0l162 1082h282l-64 -427h276l64 427h283l-106 -708q-13 -79 8 -125.5t71 -46.5q56 1 98 75t64 206q15 91 16 187t-9 194l275 1q10 -133 12 -215t-13 -167q-40 -243 -174 -373.5t-302 -130.5q-180 -3 -264.5 92.5t-64.5 302.5l9 59h-276l-65 -433h-282z" />
<glyph unicode="&#x50c;" horiz-adv-x="1134" d="M69 597l39 262q41 278 219 448t425 170q94 0 170 -22.5t129 -64.5l-88 -205q-53 33 -113 50.5t-132 17.5q-118 0 -211 -114t-117 -278l-39 -264q-27 -175 29 -285t180 -110q88 1 145.5 63t77.5 174q12 80 13.5 166t-4.5 181h274q8 -190 9 -231.5t-11 -115.5 q-37 -223 -188 -341.5t-349 -118.5q-235 0 -367 176.5t-91 441.5z" />
<glyph unicode="&#x50d;" horiz-adv-x="953" d="M56 520l6 42q35 234 181 387t361 153q78 0 139 -17.5t95 -48.5l-73 -215q-36 27 -85.5 42t-108.5 15q-85 0 -146.5 -96t-80.5 -220l-6 -42q-21 -134 13.5 -226t134.5 -92q48 1 72 32.5t36 94.5q8 52 12 105t4 103h275q1 -60 -0.5 -111.5t-8.5 -96.5q-29 -172 -143.5 -261 t-279.5 -89q-213 0 -322 158.5t-75 382.5z" />
<glyph unicode="&#x50e;" horiz-adv-x="1255" d="M138 1232l33 224h991l-33 -224h-352l-128 -858q-13 -82 3.5 -127t58.5 -45q75 1 128.5 87.5t79.5 239.5q16 97 18 198.5t-8 203.5l276 1q10 -124 11 -217.5t-15 -185.5q-43 -265 -190.5 -407.5t-332.5 -142.5q-172 -3 -252 92.5t-58 302.5l128 858h-358z" />
<glyph unicode="&#x50f;" horiz-adv-x="1134" d="M111 860l33 222h781l-33 -222h-262l-73 -486q-13 -79 7.5 -125.5t69.5 -46.5q56 1 96 59.5t59 164.5q11 72 9 148.5t-17 148.5h275q16 -98 21 -164.5t-6 -132.5q-36 -216 -169 -331.5t-301 -115.5q-180 -3 -264 92.5t-62 302.5l73 486h-237z" />
<glyph unicode="&#x510;" horiz-adv-x="1167" d="M74 405q19 131 91.5 217.5t193.5 126.5q-92 48 -137.5 131t-30.5 182q31 207 180 311t385 104q191 0 314 -113.5t92 -293.5l-2 -6h-274q13 90 -34 141t-130 51q-104 0 -170.5 -56.5t-78.5 -140.5q-16 -103 25.5 -156t148.5 -53h172l-23 -152h-1l-9 -63h-172 q-109 0 -174.5 -54.5t-83.5 -171.5q-15 -96 40.5 -153t167.5 -57q87 0 157 59t84 146h272l2 -6q-28 -213 -187 -316t-361 -103q-225 0 -356 114t-101 312z" />
<glyph unicode="&#x511;" horiz-adv-x="1000" d="M51 304q14 95 70 159t150 95q-71 36 -106.5 97t-24.5 132q23 155 151 234t325 79q162 0 265.5 -89t77.5 -232l-2 -6h-273q8 58 -24 89.5t-91 31.5q-63 0 -103 -38t-48 -91q-9 -59 21 -90t95 -31h160l-19 -127h-1l-8 -55h-160q-69 0 -114.5 -33.5t-55.5 -103.5 q-10 -61 22 -100t104 -39q69 0 114.5 37.5t54.5 94.5h271l2 -6q-21 -167 -153 -249t-303 -82q-187 0 -303.5 87.5t-93.5 235.5z" />
<glyph unicode="&#x512;" horiz-adv-x="1257" d="M-38 0l33 220h34q113 0 170 123t106 457l95 656h883l-218 -1456h-282l185 1235h-318l-62 -435q-62 -427 -207.5 -613.5t-382.5 -186.5h-36zM812 -419l46 218q22 -6 40.5 -9.5t40.5 -3.5q44 0 75.5 46t44.5 131l44 288h282l-44 -288q-30 -199 -134.5 -299.5t-268.5 -100.5 q-33 0 -62.5 4.5t-63.5 13.5z" />
<glyph unicode="&#x513;" horiz-adv-x="1006" d="M-61 0l29 224h26q81 0 117 81t71 313l69 464h752l-162 -1082h-282l129 861h-188l-36 -243q-50 -332 -159 -475t-326 -143h-40zM588 -419l46 218q22 -6 40.5 -9.5t40.5 -3.5q44 0 75.5 46t44.5 131l44 288h282l-44 -288q-30 -199 -134.5 -299.5t-268.5 -100.5 q-33 0 -62.5 4.5t-63.5 13.5z" />
<glyph unicode="&#x1e00;" horiz-adv-x="1141" d="M-62 0l631 1456h292l195 -1456h-295l-35 315h-364l-130 -315h-294zM293 -226q11 73 64.5 118.5t124.5 45.5q66 0 107 -47.5t31 -116.5q-12 -72 -64.5 -116t-122.5 -44q-67 0 -109 46t-31 114zM397 -226q-5 -30 9 -49t41 -19q24 0 43 19.5t24 48.5q5 32 -8 51t-38 19 q-26 0 -46.5 -19.5t-24.5 -50.5zM453 537h248l-52 460l-6 1z" />
<glyph unicode="&#x1e01;" horiz-adv-x="957" d="M12 303q24 164 140.5 248.5t326.5 84.5h123l14 90q12 83 -11 125.5t-83 42.5q-50 0 -83.5 -35.5t-42.5 -99.5l-272 1l-1 6q16 145 140.5 240.5t307.5 95.5q164 0 258.5 -98.5t68.5 -279.5l-67 -444q-12 -80 -11 -146t14 -134h-280q-10 37 -14.5 79t-2.5 85 q-48 -81 -114.5 -133t-151.5 -52q-142 0 -211 87.5t-48 236.5zM132 -211q11 73 64.5 118.5t124.5 45.5q66 0 107 -47.5t31 -116.5q-12 -72 -64.5 -116t-122.5 -44q-67 0 -109 46t-31 114zM236 -211q-5 -30 9 -49t41 -19q24 0 43 19.5t24 48.5q5 32 -8 51t-38 19 q-26 0 -46.5 -19.5t-24.5 -50.5zM295 314q-9 -59 12.5 -92.5t67.5 -33.5q54 0 104.5 35.5t73.5 84.5l25 168h-123q-68 0 -109 -46.5t-51 -115.5z" />
<glyph unicode="&#x1e3e;" horiz-adv-x="1499" d="M26 0l218 1456h367l110 -1080h6l434 1080h369l-218 -1456h-280l137 916l-6 2l-400 -918h-189l-125 911h-6l-136 -911h-281zM766 1605l213 261h314l2 -6l-289 -260h-237z" />
<glyph unicode="&#x1e3f;" horiz-adv-x="1530" d="M14 0l162 1082h263l-9 -134q55 74 127 114t159 40q80 0 136 -44.5t77 -133.5q55 85 130 131.5t167 46.5q131 0 195 -115.5t30 -347.5l-96 -639h-282l96 639q21 142 0 191.5t-82 49.5q-43 0 -80.5 -26.5t-67.5 -72.5q-1 -17 -3 -35.5t-5 -40.5l-106 -705h-281l96 639 q21 140 0 190.5t-83 50.5q-41 0 -76.5 -21.5t-65.5 -61.5l-119 -797h-282zM755 1283l213 261h314l2 -6l-289 -260h-237z" />
<glyph unicode="&#x1e80;" horiz-adv-x="1566" d="M156 1456h289l11 -925l6 -1l347 926h222l72 -922l6 -1l287 923h287l-503 -1456h-262l-78 901l-6 1l-347 -902h-262zM614 1861l3 5h313l141 -266h-246z" />
<glyph unicode="&#x1e81;" horiz-adv-x="1301" d="M107 1082h271l7 -605l6 -1l248 606h183l68 -602l6 -1l186 603h272l-390 -1082h-235l-72 570h-6l-242 -570h-236zM429 1518l3 5h313l141 -266h-246z" />
<glyph unicode="&#x1e82;" horiz-adv-x="1566" d="M156 1456h289l11 -925l6 -1l347 926h222l72 -922l6 -1l287 923h287l-503 -1456h-262l-78 901l-6 1l-347 -902h-262zM801 1605l213 261h314l2 -6l-289 -260h-237z" />
<glyph unicode="&#x1e83;" horiz-adv-x="1301" d="M107 1082h271l7 -605l6 -1l248 606h183l68 -602l6 -1l186 603h272l-390 -1082h-235l-72 570h-6l-242 -570h-236zM616 1262l213 261h314l2 -6l-289 -260h-237z" />
<glyph unicode="&#x1e84;" horiz-adv-x="1566" d="M156 1456h289l11 -925l6 -1l347 926h222l72 -922l6 -1l287 923h287l-503 -1456h-262l-78 901l-6 1l-347 -902h-262zM582 1607l28 197h251l-28 -197h-251zM1038 1607l28 197h250l-28 -197h-250z" />
<glyph unicode="&#x1e85;" horiz-adv-x="1301" d="M107 1082h271l7 -605l6 -1l248 606h183l68 -602l6 -1l186 603h272l-390 -1082h-235l-72 570h-6l-242 -570h-236zM397 1264l28 197h251l-28 -197h-251zM853 1264l28 197h250l-28 -197h-250z" />
<glyph unicode="&#x1ea0;" horiz-adv-x="1141" d="M-62 0l631 1456h292l195 -1456h-295l-35 315h-364l-130 -315h-294zM285 -351l36 237h314l-36 -237h-314zM453 537h248l-52 460l-6 1z" />
<glyph unicode="&#x1ea1;" horiz-adv-x="957" d="M12 303q24 164 140.5 248.5t326.5 84.5h123l14 90q12 83 -11 125.5t-83 42.5q-50 0 -83.5 -35.5t-42.5 -99.5l-272 1l-1 6q16 145 140.5 240.5t307.5 95.5q164 0 258.5 -98.5t68.5 -279.5l-67 -444q-12 -80 -11 -146t14 -134h-280q-10 37 -14.5 79t-2.5 85 q-48 -81 -114.5 -133t-151.5 -52q-142 0 -211 87.5t-48 236.5zM124 -336l36 237h314l-36 -237h-314zM295 314q-9 -59 12.5 -92.5t67.5 -33.5q54 0 104.5 35.5t73.5 84.5l25 168h-123q-68 0 -109 -46.5t-51 -115.5z" />
<glyph unicode="&#x1ea2;" horiz-adv-x="1141" d="M-62 0l631 1456h292l195 -1456h-295l-35 315h-364l-130 -315h-294zM453 537h248l-52 460l-6 1zM622 1587l3 130q63 3 92 19t33 50q7 39 -20.5 55.5t-81.5 16.5l26 129q171 0 251 -49t65 -143q-9 -64 -51 -100.5t-96 -44.5l-9 -63h-212z" />
<glyph unicode="&#x1ea3;" horiz-adv-x="957" d="M12 303q24 164 140.5 248.5t326.5 84.5h123l14 90q12 83 -11 125.5t-83 42.5q-50 0 -83.5 -35.5t-42.5 -99.5l-272 1l-1 6q16 145 140.5 240.5t307.5 95.5q164 0 258.5 -98.5t68.5 -279.5l-67 -444q-12 -80 -11 -146t14 -134h-280q-10 37 -14.5 79t-2.5 85 q-48 -81 -114.5 -133t-151.5 -52q-142 0 -211 87.5t-48 236.5zM295 314q-9 -59 12.5 -92.5t67.5 -33.5q54 0 104.5 35.5t73.5 84.5l25 168h-123q-68 0 -109 -46.5t-51 -115.5zM479 1265l3 130q63 3 92 19t33 50q7 39 -20.5 55.5t-81.5 16.5l26 129q171 0 251 -49t65 -143 q-9 -64 -51 -100.5t-96 -44.5l-9 -63h-212z" />
</font>
</defs>
</svg>
